G04 #@! TF.GenerationSoftware,KiCad,Pcbnew,6.0.11*
G04 #@! TF.CreationDate,2025-10-14T23:18:51+03:00*
G04 #@! TF.ProjectId,rns-gate,726e732d-6761-4746-952e-6b696361645f,rev?*
G04 #@! TF.SameCoordinates,Original*
G04 #@! TF.FileFunction,Copper,L1,Top*
G04 #@! TF.FilePolarity,Positive*
%FSLAX46Y46*%
G04 Gerber Fmt 4.6, Leading zero omitted, Abs format (unit mm)*
G04 Created by KiCad (PCBNEW 6.0.11) date 2025-10-14 23:18:51*
%MOMM*%
%LPD*%
G01*
G04 APERTURE LIST*
G04 Aperture macros list*
%AMRoundRect*
0 Rectangle with rounded corners*
0 $1 Rounding radius*
0 $2 $3 $4 $5 $6 $7 $8 $9 X,Y pos of 4 corners*
0 Add a 4 corners polygon primitive as box body*
4,1,4,$2,$3,$4,$5,$6,$7,$8,$9,$2,$3,0*
0 Add four circle primitives for the rounded corners*
1,1,$1+$1,$2,$3*
1,1,$1+$1,$4,$5*
1,1,$1+$1,$6,$7*
1,1,$1+$1,$8,$9*
0 Add four rect primitives between the rounded corners*
20,1,$1+$1,$2,$3,$4,$5,0*
20,1,$1+$1,$4,$5,$6,$7,0*
20,1,$1+$1,$6,$7,$8,$9,0*
20,1,$1+$1,$8,$9,$2,$3,0*%
G04 Aperture macros list end*
G04 #@! TA.AperFunction,ComponentPad*
%ADD10R,1.700000X1.700000*%
G04 #@! TD*
G04 #@! TA.AperFunction,ComponentPad*
%ADD11O,1.700000X1.700000*%
G04 #@! TD*
G04 #@! TA.AperFunction,ComponentPad*
%ADD12C,0.700000*%
G04 #@! TD*
G04 #@! TA.AperFunction,ComponentPad*
%ADD13C,4.400000*%
G04 #@! TD*
G04 #@! TA.AperFunction,ComponentPad*
%ADD14C,1.440000*%
G04 #@! TD*
G04 #@! TA.AperFunction,SMDPad,CuDef*
%ADD15RoundRect,0.250000X-0.450000X0.262500X-0.450000X-0.262500X0.450000X-0.262500X0.450000X0.262500X0*%
G04 #@! TD*
G04 #@! TA.AperFunction,SMDPad,CuDef*
%ADD16RoundRect,0.250000X-0.250000X-0.475000X0.250000X-0.475000X0.250000X0.475000X-0.250000X0.475000X0*%
G04 #@! TD*
G04 #@! TA.AperFunction,SMDPad,CuDef*
%ADD17RoundRect,0.250000X0.250000X0.475000X-0.250000X0.475000X-0.250000X-0.475000X0.250000X-0.475000X0*%
G04 #@! TD*
G04 #@! TA.AperFunction,SMDPad,CuDef*
%ADD18RoundRect,0.150000X0.587500X0.150000X-0.587500X0.150000X-0.587500X-0.150000X0.587500X-0.150000X0*%
G04 #@! TD*
G04 #@! TA.AperFunction,Conductor*
%ADD19C,0.500000*%
G04 #@! TD*
G04 #@! TA.AperFunction,Conductor*
%ADD20C,0.250000*%
G04 #@! TD*
G04 APERTURE END LIST*
D10*
G04 #@! TO.P,J2,1,Pin_1*
G04 #@! TO.N,unconnected-(J2-Pad1)*
X170708000Y-95410000D03*
D11*
G04 #@! TO.P,J2,2,Pin_2*
G04 #@! TO.N,unconnected-(J2-Pad2)*
X170708000Y-92870000D03*
G04 #@! TO.P,J2,3,Pin_3*
G04 #@! TO.N,unconnected-(J2-Pad3)*
X173248000Y-95410000D03*
G04 #@! TO.P,J2,4,Pin_4*
G04 #@! TO.N,unconnected-(J2-Pad4)*
X173248000Y-92870000D03*
G04 #@! TO.P,J2,5,Pin_5*
G04 #@! TO.N,unconnected-(J2-Pad5)*
X175788000Y-95410000D03*
G04 #@! TO.P,J2,6,Pin_6*
G04 #@! TO.N,unconnected-(J2-Pad6)*
X175788000Y-92870000D03*
G04 #@! TO.P,J2,7,Pin_7*
G04 #@! TO.N,unconnected-(J2-Pad7)*
X178328000Y-95410000D03*
G04 #@! TO.P,J2,8,Pin_8*
G04 #@! TO.N,unconnected-(J2-Pad8)*
X178328000Y-92870000D03*
G04 #@! TO.P,J2,9,Pin_9*
G04 #@! TO.N,unconnected-(J2-Pad9)*
X180868000Y-95410000D03*
G04 #@! TO.P,J2,10,Pin_10*
G04 #@! TO.N,unconnected-(J2-Pad10)*
X180868000Y-92870000D03*
G04 #@! TO.P,J2,11,Pin_11*
G04 #@! TO.N,unconnected-(J2-Pad11)*
X183408000Y-95410000D03*
G04 #@! TO.P,J2,12,Pin_12*
G04 #@! TO.N,Net-(J2-Pad12)*
X183408000Y-92870000D03*
G04 #@! TO.P,J2,13,Pin_13*
G04 #@! TO.N,unconnected-(J2-Pad13)*
X185948000Y-95410000D03*
G04 #@! TO.P,J2,14,Pin_14*
G04 #@! TO.N,GND*
X185948000Y-92870000D03*
G04 #@! TO.P,J2,15,Pin_15*
G04 #@! TO.N,unconnected-(J2-Pad15)*
X188488000Y-95410000D03*
G04 #@! TO.P,J2,16,Pin_16*
G04 #@! TO.N,unconnected-(J2-Pad16)*
X188488000Y-92870000D03*
G04 #@! TO.P,J2,17,Pin_17*
G04 #@! TO.N,unconnected-(J2-Pad17)*
X191028000Y-95410000D03*
G04 #@! TO.P,J2,18,Pin_18*
G04 #@! TO.N,unconnected-(J2-Pad18)*
X191028000Y-92870000D03*
G04 #@! TO.P,J2,19,Pin_19*
G04 #@! TO.N,unconnected-(J2-Pad19)*
X193568000Y-95410000D03*
G04 #@! TO.P,J2,20,Pin_20*
G04 #@! TO.N,unconnected-(J2-Pad20)*
X193568000Y-92870000D03*
G04 #@! TO.P,J2,21,Pin_21*
G04 #@! TO.N,unconnected-(J2-Pad21)*
X196108000Y-95410000D03*
G04 #@! TO.P,J2,22,Pin_22*
G04 #@! TO.N,unconnected-(J2-Pad22)*
X196108000Y-92870000D03*
G04 #@! TO.P,J2,23,Pin_23*
G04 #@! TO.N,unconnected-(J2-Pad23)*
X198648000Y-95410000D03*
G04 #@! TO.P,J2,24,Pin_24*
G04 #@! TO.N,unconnected-(J2-Pad24)*
X198648000Y-92870000D03*
G04 #@! TO.P,J2,25,Pin_25*
G04 #@! TO.N,unconnected-(J2-Pad25)*
X201188000Y-95410000D03*
G04 #@! TO.P,J2,26,Pin_26*
G04 #@! TO.N,unconnected-(J2-Pad26)*
X201188000Y-92870000D03*
G04 #@! TD*
D10*
G04 #@! TO.P,J1,1,Pin_1*
G04 #@! TO.N,+5V*
X201158000Y-52210000D03*
D11*
G04 #@! TO.P,J1,2,Pin_2*
G04 #@! TO.N,GND*
X198618000Y-52210000D03*
G04 #@! TO.P,J1,3,Pin_3*
G04 #@! TO.N,unconnected-(J1-Pad3)*
X196078000Y-52210000D03*
G04 #@! TO.P,J1,4,Pin_4*
G04 #@! TO.N,unconnected-(J1-Pad4)*
X193538000Y-52210000D03*
G04 #@! TO.P,J1,5,Pin_5*
G04 #@! TO.N,unconnected-(J1-Pad5)*
X190998000Y-52210000D03*
G04 #@! TO.P,J1,6,Pin_6*
G04 #@! TO.N,unconnected-(J1-Pad6)*
X188458000Y-52210000D03*
G04 #@! TO.P,J1,7,Pin_7*
G04 #@! TO.N,unconnected-(J1-Pad7)*
X185918000Y-52210000D03*
G04 #@! TO.P,J1,8,Pin_8*
G04 #@! TO.N,Net-(J1-Pad8)*
X183378000Y-52210000D03*
G04 #@! TO.P,J1,9,Pin_9*
G04 #@! TO.N,unconnected-(J1-Pad9)*
X180838000Y-52210000D03*
G04 #@! TO.P,J1,10,Pin_10*
G04 #@! TO.N,unconnected-(J1-Pad10)*
X178298000Y-52210000D03*
G04 #@! TO.P,J1,11,Pin_11*
G04 #@! TO.N,Net-(J1-Pad11)*
X175758000Y-52210000D03*
G04 #@! TO.P,J1,12,Pin_12*
G04 #@! TO.N,Net-(J1-Pad12)*
X173218000Y-52210000D03*
G04 #@! TO.P,J1,13,Pin_13*
G04 #@! TO.N,unconnected-(J1-Pad13)*
X170678000Y-52210000D03*
G04 #@! TD*
D12*
G04 #@! TO.P,REF1,1*
G04 #@! TO.N,N/C*
X166166726Y-52743274D03*
X165000000Y-55560000D03*
D13*
X165000000Y-53910000D03*
D12*
X163833274Y-55076726D03*
X166650000Y-53910000D03*
X163350000Y-53910000D03*
X163833274Y-52743274D03*
X165000000Y-52260000D03*
X166166726Y-55076726D03*
G04 #@! TD*
G04 #@! TO.P,REF3,1*
G04 #@! TO.N,N/C*
X166166726Y-92543274D03*
X165000000Y-95360000D03*
X163350000Y-93710000D03*
X166166726Y-94876726D03*
X165000000Y-92060000D03*
X163833274Y-92543274D03*
X166650000Y-93710000D03*
X163833274Y-94876726D03*
D13*
X165000000Y-93710000D03*
G04 #@! TD*
D12*
G04 #@! TO.P,REF2,1*
G04 #@! TO.N,N/C*
X208450000Y-53910000D03*
X206800000Y-55560000D03*
X207966726Y-52743274D03*
X206800000Y-52260000D03*
D13*
X206800000Y-53910000D03*
D12*
X205150000Y-53910000D03*
X205633274Y-52743274D03*
X207966726Y-55076726D03*
X205633274Y-55076726D03*
G04 #@! TD*
G04 #@! TO.P,REF4,1*
G04 #@! TO.N,N/C*
X205633274Y-94876726D03*
X207966726Y-92543274D03*
X206800000Y-92060000D03*
X208450000Y-93710000D03*
X205150000Y-93710000D03*
X205633274Y-92543274D03*
X206800000Y-95360000D03*
D13*
X206800000Y-93710000D03*
D12*
X207966726Y-94876726D03*
G04 #@! TD*
D10*
G04 #@! TO.P,J3,1,Pin_1*
G04 #@! TO.N,+5V*
X190749000Y-58928000D03*
D11*
G04 #@! TO.P,J3,2,Pin_2*
G04 #@! TO.N,GND*
X193289000Y-58928000D03*
G04 #@! TD*
D14*
G04 #@! TO.P,RV2,1,1*
G04 #@! TO.N,Net-(C1-Pad2)*
X174498000Y-64780000D03*
G04 #@! TO.P,RV2,2,2*
G04 #@! TO.N,Net-(C2-Pad1)*
X174498000Y-62240000D03*
G04 #@! TO.P,RV2,3,3*
G04 #@! TO.N,GND*
X174498000Y-59700000D03*
G04 #@! TD*
D10*
G04 #@! TO.P,J5,1,Pin_1*
G04 #@! TO.N,Net-(J5-Pad1)*
X173736000Y-80782000D03*
D11*
G04 #@! TO.P,J5,2,Pin_2*
G04 #@! TO.N,Net-(J5-Pad2)*
X173736000Y-83322000D03*
G04 #@! TO.P,J5,3,Pin_3*
G04 #@! TO.N,Net-(Q1-Pad3)*
X173736000Y-85862000D03*
G04 #@! TO.P,J5,4,Pin_4*
G04 #@! TO.N,GND*
X173736000Y-88402000D03*
G04 #@! TD*
D15*
G04 #@! TO.P,R2,1*
G04 #@! TO.N,GND*
X183388000Y-83669500D03*
G04 #@! TO.P,R2,2*
G04 #@! TO.N,Net-(Q1-Pad1)*
X183388000Y-85494500D03*
G04 #@! TD*
D16*
G04 #@! TO.P,C4,1*
G04 #@! TO.N,Net-(RV1-Pad1)*
X179136000Y-75692000D03*
G04 #@! TO.P,C4,2*
G04 #@! TO.N,Net-(J1-Pad8)*
X181036000Y-75692000D03*
G04 #@! TD*
D17*
G04 #@! TO.P,C1,1*
G04 #@! TO.N,Net-(J5-Pad1)*
X181036000Y-64770000D03*
G04 #@! TO.P,C1,2*
G04 #@! TO.N,Net-(C1-Pad2)*
X179136000Y-64770000D03*
G04 #@! TD*
D15*
G04 #@! TO.P,R1,1*
G04 #@! TO.N,Net-(Q1-Pad1)*
X183388000Y-88241500D03*
G04 #@! TO.P,R1,2*
G04 #@! TO.N,Net-(J2-Pad12)*
X183388000Y-90066500D03*
G04 #@! TD*
D14*
G04 #@! TO.P,RV1,1,1*
G04 #@! TO.N,Net-(RV1-Pad1)*
X174498000Y-75702000D03*
G04 #@! TO.P,RV1,2,2*
G04 #@! TO.N,Net-(J5-Pad2)*
X174498000Y-73162000D03*
G04 #@! TO.P,RV1,3,3*
G04 #@! TO.N,GND*
X174498000Y-70622000D03*
G04 #@! TD*
D17*
G04 #@! TO.P,C3,1*
G04 #@! TO.N,GND*
X175194000Y-55372000D03*
G04 #@! TO.P,C3,2*
G04 #@! TO.N,Net-(J1-Pad12)*
X173294000Y-55372000D03*
G04 #@! TD*
D18*
G04 #@! TO.P,Q1,1,G*
G04 #@! TO.N,Net-(Q1-Pad1)*
X179499500Y-86802000D03*
G04 #@! TO.P,Q1,2,S*
G04 #@! TO.N,GND*
X179499500Y-84902000D03*
G04 #@! TO.P,Q1,3,D*
G04 #@! TO.N,Net-(Q1-Pad3)*
X177624500Y-85852000D03*
G04 #@! TD*
D16*
G04 #@! TO.P,C2,1*
G04 #@! TO.N,Net-(C2-Pad1)*
X179136000Y-62230000D03*
G04 #@! TO.P,C2,2*
G04 #@! TO.N,Net-(J1-Pad11)*
X181036000Y-62230000D03*
G04 #@! TD*
D19*
G04 #@! TO.N,+5V*
X192532000Y-55626000D02*
X199644000Y-55626000D01*
X201158000Y-54112000D02*
X201158000Y-52210000D01*
X199644000Y-55626000D02*
X201158000Y-54112000D01*
X190749000Y-58928000D02*
X190749000Y-57409000D01*
X190749000Y-57409000D02*
X192532000Y-55626000D01*
D20*
G04 #@! TO.N,Net-(C1-Pad2)*
X179126000Y-64780000D02*
X179136000Y-64770000D01*
X174498000Y-64780000D02*
X179126000Y-64780000D01*
G04 #@! TO.N,Net-(C2-Pad1)*
X179126000Y-62240000D02*
X179136000Y-62230000D01*
X174498000Y-62240000D02*
X179126000Y-62240000D01*
G04 #@! TO.N,Net-(J5-Pad1)*
X170180000Y-69596000D02*
X172212000Y-67564000D01*
X170180000Y-77216000D02*
X170180000Y-69596000D01*
X178242000Y-67564000D02*
X181036000Y-64770000D01*
X173453000Y-80499000D02*
X173453000Y-80489000D01*
X173453000Y-80489000D02*
X170180000Y-77216000D01*
X172212000Y-67564000D02*
X178242000Y-67564000D01*
X173736000Y-80782000D02*
X173453000Y-80499000D01*
G04 #@! TO.N,Net-(RV1-Pad1)*
X174498000Y-75702000D02*
X179126000Y-75702000D01*
X179126000Y-75702000D02*
X179136000Y-75692000D01*
G04 #@! TO.N,Net-(J1-Pad8)*
X181036000Y-75692000D02*
X183378000Y-73350000D01*
X183378000Y-73350000D02*
X183378000Y-52210000D01*
G04 #@! TO.N,Net-(J5-Pad2)*
X175260000Y-79756000D02*
X172466000Y-76962000D01*
X172466000Y-75194000D02*
X174498000Y-73162000D01*
X172466000Y-76962000D02*
X172466000Y-75194000D01*
X175260000Y-81798000D02*
X175260000Y-79756000D01*
X173736000Y-83322000D02*
X175260000Y-81798000D01*
G04 #@! TO.N,Net-(J2-Pad12)*
X183408000Y-90086500D02*
X183408000Y-92870000D01*
X183388000Y-90066500D02*
X183408000Y-90086500D01*
G04 #@! TO.N,Net-(Q1-Pad1)*
X179499500Y-86802000D02*
X181948500Y-86802000D01*
X181948500Y-86802000D02*
X183388000Y-88241500D01*
X182080500Y-86802000D02*
X183388000Y-85494500D01*
X181948500Y-86802000D02*
X182080500Y-86802000D01*
G04 #@! TO.N,Net-(Q1-Pad3)*
X177614500Y-85862000D02*
X177624500Y-85852000D01*
X173736000Y-85862000D02*
X177614500Y-85862000D01*
G04 #@! TO.N,Net-(J1-Pad12)*
X173218000Y-55296000D02*
X173294000Y-55372000D01*
X173218000Y-52210000D02*
X173218000Y-55296000D01*
G04 #@! TO.N,Net-(J1-Pad11)*
X181036000Y-57488000D02*
X175758000Y-52210000D01*
X181036000Y-62230000D02*
X181036000Y-57488000D01*
G04 #@! TD*
G04 #@! TA.AperFunction,Conductor*
G04 #@! TO.N,GND*
G36*
X205468402Y-51338502D02*
G01*
X205514895Y-51392158D01*
X205524999Y-51462432D01*
X205495505Y-51527012D01*
X205464704Y-51552785D01*
X205278074Y-51663817D01*
X205278068Y-51663821D01*
X205274814Y-51665757D01*
X205016244Y-51865243D01*
X204783513Y-52094347D01*
X204781149Y-52097314D01*
X204781146Y-52097317D01*
X204764220Y-52118558D01*
X204579991Y-52349751D01*
X204408626Y-52627757D01*
X204271902Y-52924336D01*
X204270741Y-52927940D01*
X204270741Y-52927941D01*
X204262196Y-52954477D01*
X204171797Y-53235192D01*
X204171079Y-53238903D01*
X204171078Y-53238907D01*
X204110482Y-53552105D01*
X204110481Y-53552114D01*
X204109763Y-53555824D01*
X204109496Y-53559600D01*
X204109495Y-53559605D01*
X204108635Y-53571753D01*
X204086698Y-53881585D01*
X204090830Y-53964586D01*
X204102589Y-54200785D01*
X204102936Y-54207759D01*
X204103577Y-54211490D01*
X204103578Y-54211498D01*
X204154296Y-54506659D01*
X204158241Y-54529619D01*
X204159329Y-54533258D01*
X204159330Y-54533261D01*
X204223844Y-54748978D01*
X204251814Y-54842504D01*
X204253327Y-54845975D01*
X204253329Y-54845981D01*
X204293414Y-54937951D01*
X204382297Y-55141881D01*
X204384220Y-55145152D01*
X204384222Y-55145156D01*
X204424680Y-55213977D01*
X204547802Y-55423414D01*
X204550103Y-55426429D01*
X204743631Y-55680012D01*
X204743636Y-55680017D01*
X204745931Y-55683025D01*
X204807931Y-55746670D01*
X204957847Y-55900562D01*
X204973814Y-55916953D01*
X205046635Y-55975607D01*
X205225196Y-56119431D01*
X205225201Y-56119435D01*
X205228149Y-56121809D01*
X205505253Y-56294627D01*
X205801112Y-56432903D01*
X206111440Y-56534634D01*
X206148075Y-56541921D01*
X206210984Y-56574829D01*
X206246116Y-56636524D01*
X206242316Y-56707418D01*
X206200790Y-56765004D01*
X206134723Y-56790999D01*
X206123493Y-56791500D01*
X198145250Y-56791500D01*
X198124345Y-56789754D01*
X198109344Y-56787230D01*
X198109341Y-56787230D01*
X198104552Y-56786424D01*
X198098313Y-56786348D01*
X198096860Y-56786330D01*
X198096857Y-56786330D01*
X198092000Y-56786271D01*
X198083296Y-56787517D01*
X198072503Y-56788592D01*
X197807106Y-56803496D01*
X197525795Y-56851293D01*
X197251604Y-56930286D01*
X197248336Y-56931640D01*
X197248335Y-56931640D01*
X196991250Y-57038128D01*
X196991245Y-57038130D01*
X196987982Y-57039482D01*
X196738243Y-57177508D01*
X196505528Y-57342627D01*
X196292765Y-57532765D01*
X196102627Y-57745528D01*
X196035807Y-57839703D01*
X195973005Y-57928215D01*
X195937508Y-57978243D01*
X195799482Y-58227982D01*
X195798130Y-58231245D01*
X195798128Y-58231250D01*
X195691640Y-58488335D01*
X195690286Y-58491604D01*
X195611293Y-58765795D01*
X195563496Y-59047106D01*
X195561164Y-59088636D01*
X195549065Y-59304065D01*
X195547764Y-59316377D01*
X195546309Y-59325724D01*
X195550436Y-59357283D01*
X195551500Y-59373621D01*
X195551500Y-88241033D01*
X195550000Y-88260418D01*
X195546309Y-88284124D01*
X195547473Y-88293028D01*
X195547463Y-88293850D01*
X195548034Y-88299971D01*
X195563496Y-88575294D01*
X195611293Y-88856605D01*
X195690286Y-89130796D01*
X195691640Y-89134064D01*
X195691640Y-89134065D01*
X195775235Y-89335880D01*
X195799482Y-89394418D01*
X195937508Y-89644157D01*
X196102627Y-89876872D01*
X196292765Y-90089635D01*
X196505528Y-90279773D01*
X196738243Y-90444892D01*
X196987982Y-90582918D01*
X196991245Y-90584270D01*
X196991250Y-90584272D01*
X197248335Y-90690760D01*
X197251604Y-90692114D01*
X197525795Y-90771107D01*
X197807106Y-90818904D01*
X198056629Y-90832916D01*
X198070462Y-90834464D01*
X198079448Y-90835976D01*
X198085966Y-90836055D01*
X198087140Y-90836070D01*
X198087143Y-90836070D01*
X198092000Y-90836129D01*
X198111704Y-90833307D01*
X198119700Y-90832162D01*
X198137532Y-90830889D01*
X202913043Y-90829717D01*
X206116880Y-90828930D01*
X206185006Y-90848915D01*
X206231512Y-90902560D01*
X206241633Y-90972831D01*
X206212156Y-91037419D01*
X206153645Y-91075456D01*
X205857804Y-91165622D01*
X205857796Y-91165625D01*
X205854167Y-91166731D01*
X205555477Y-91298781D01*
X205530041Y-91313914D01*
X205278074Y-91463817D01*
X205278068Y-91463821D01*
X205274814Y-91465757D01*
X205271812Y-91468073D01*
X205031608Y-91653390D01*
X205016244Y-91665243D01*
X204783513Y-91894347D01*
X204781149Y-91897314D01*
X204781146Y-91897317D01*
X204665362Y-92042617D01*
X204579991Y-92149751D01*
X204408626Y-92427757D01*
X204407037Y-92431204D01*
X204305009Y-92652522D01*
X204271902Y-92724336D01*
X204270741Y-92727940D01*
X204270741Y-92727941D01*
X204262196Y-92754477D01*
X204171797Y-93035192D01*
X204171079Y-93038903D01*
X204171078Y-93038907D01*
X204110482Y-93352105D01*
X204110481Y-93352114D01*
X204109763Y-93355824D01*
X204109496Y-93359600D01*
X204109495Y-93359605D01*
X204087469Y-93670689D01*
X204086698Y-93681585D01*
X204090069Y-93749292D01*
X204101994Y-93988831D01*
X204102936Y-94007759D01*
X204103577Y-94011490D01*
X204103578Y-94011498D01*
X204156881Y-94321703D01*
X204158241Y-94329619D01*
X204159329Y-94333258D01*
X204159330Y-94333261D01*
X204231464Y-94574457D01*
X204251814Y-94642504D01*
X204253327Y-94645975D01*
X204253329Y-94645981D01*
X204284929Y-94718482D01*
X204382297Y-94941881D01*
X204384220Y-94945152D01*
X204384222Y-94945156D01*
X204426584Y-95017215D01*
X204547802Y-95223414D01*
X204550103Y-95226429D01*
X204743631Y-95480012D01*
X204743636Y-95480017D01*
X204745931Y-95483025D01*
X204807931Y-95546670D01*
X204950421Y-95692939D01*
X204973814Y-95716953D01*
X205046635Y-95775607D01*
X205225196Y-95919431D01*
X205225201Y-95919435D01*
X205228149Y-95921809D01*
X205308623Y-95971997D01*
X205463501Y-96068588D01*
X205510717Y-96121608D01*
X205521773Y-96191738D01*
X205493159Y-96256713D01*
X205433959Y-96295903D01*
X205396824Y-96301500D01*
X202464846Y-96301500D01*
X202396725Y-96281498D01*
X202350232Y-96227842D01*
X202340128Y-96157568D01*
X202356187Y-96112447D01*
X202356453Y-96112077D01*
X202455430Y-95911811D01*
X202520370Y-95698069D01*
X202549529Y-95476590D01*
X202551156Y-95410000D01*
X202532852Y-95187361D01*
X202478431Y-94970702D01*
X202389354Y-94765840D01*
X202309564Y-94642504D01*
X202270822Y-94582617D01*
X202270820Y-94582614D01*
X202268014Y-94578277D01*
X202117670Y-94413051D01*
X202113619Y-94409852D01*
X202113615Y-94409848D01*
X201946414Y-94277800D01*
X201946410Y-94277798D01*
X201942359Y-94274598D01*
X201901053Y-94251796D01*
X201851084Y-94201364D01*
X201836312Y-94131921D01*
X201861428Y-94065516D01*
X201888780Y-94038909D01*
X201937764Y-94003969D01*
X202067860Y-93911173D01*
X202226096Y-93753489D01*
X202248327Y-93722552D01*
X202353435Y-93576277D01*
X202356453Y-93572077D01*
X202369995Y-93544678D01*
X202453136Y-93376453D01*
X202453137Y-93376451D01*
X202455430Y-93371811D01*
X202520370Y-93158069D01*
X202549529Y-92936590D01*
X202551156Y-92870000D01*
X202532852Y-92647361D01*
X202478431Y-92430702D01*
X202389354Y-92225840D01*
X202330705Y-92135183D01*
X202270822Y-92042617D01*
X202270820Y-92042614D01*
X202268014Y-92038277D01*
X202117670Y-91873051D01*
X202113619Y-91869852D01*
X202113615Y-91869848D01*
X201946414Y-91737800D01*
X201946410Y-91737798D01*
X201942359Y-91734598D01*
X201937831Y-91732098D01*
X201850762Y-91684034D01*
X201746789Y-91626638D01*
X201741920Y-91624914D01*
X201741916Y-91624912D01*
X201541087Y-91553795D01*
X201541083Y-91553794D01*
X201536212Y-91552069D01*
X201531119Y-91551162D01*
X201531116Y-91551161D01*
X201321373Y-91513800D01*
X201321367Y-91513799D01*
X201316284Y-91512894D01*
X201242452Y-91511992D01*
X201098081Y-91510228D01*
X201098079Y-91510228D01*
X201092911Y-91510165D01*
X200872091Y-91543955D01*
X200659756Y-91613357D01*
X200582853Y-91653390D01*
X200485975Y-91703822D01*
X200461607Y-91716507D01*
X200457474Y-91719610D01*
X200457471Y-91719612D01*
X200287100Y-91847530D01*
X200282965Y-91850635D01*
X200128629Y-92012138D01*
X200021201Y-92169621D01*
X199966293Y-92214621D01*
X199895768Y-92222792D01*
X199832021Y-92191538D01*
X199811324Y-92167054D01*
X199730822Y-92042617D01*
X199730820Y-92042614D01*
X199728014Y-92038277D01*
X199577670Y-91873051D01*
X199573619Y-91869852D01*
X199573615Y-91869848D01*
X199406414Y-91737800D01*
X199406410Y-91737798D01*
X199402359Y-91734598D01*
X199397831Y-91732098D01*
X199310762Y-91684034D01*
X199206789Y-91626638D01*
X199201920Y-91624914D01*
X199201916Y-91624912D01*
X199001087Y-91553795D01*
X199001083Y-91553794D01*
X198996212Y-91552069D01*
X198991119Y-91551162D01*
X198991116Y-91551161D01*
X198781373Y-91513800D01*
X198781367Y-91513799D01*
X198776284Y-91512894D01*
X198702452Y-91511992D01*
X198558081Y-91510228D01*
X198558079Y-91510228D01*
X198552911Y-91510165D01*
X198332091Y-91543955D01*
X198119756Y-91613357D01*
X198042853Y-91653390D01*
X197945975Y-91703822D01*
X197921607Y-91716507D01*
X197917474Y-91719610D01*
X197917471Y-91719612D01*
X197747100Y-91847530D01*
X197742965Y-91850635D01*
X197588629Y-92012138D01*
X197481201Y-92169621D01*
X197426293Y-92214621D01*
X197355768Y-92222792D01*
X197292021Y-92191538D01*
X197271324Y-92167054D01*
X197190822Y-92042617D01*
X197190820Y-92042614D01*
X197188014Y-92038277D01*
X197037670Y-91873051D01*
X197033619Y-91869852D01*
X197033615Y-91869848D01*
X196866414Y-91737800D01*
X196866410Y-91737798D01*
X196862359Y-91734598D01*
X196857831Y-91732098D01*
X196770762Y-91684034D01*
X196666789Y-91626638D01*
X196661920Y-91624914D01*
X196661916Y-91624912D01*
X196461087Y-91553795D01*
X196461083Y-91553794D01*
X196456212Y-91552069D01*
X196451119Y-91551162D01*
X196451116Y-91551161D01*
X196241373Y-91513800D01*
X196241367Y-91513799D01*
X196236284Y-91512894D01*
X196162452Y-91511992D01*
X196018081Y-91510228D01*
X196018079Y-91510228D01*
X196012911Y-91510165D01*
X195792091Y-91543955D01*
X195579756Y-91613357D01*
X195502853Y-91653390D01*
X195405975Y-91703822D01*
X195381607Y-91716507D01*
X195377474Y-91719610D01*
X195377471Y-91719612D01*
X195207100Y-91847530D01*
X195202965Y-91850635D01*
X195048629Y-92012138D01*
X194941201Y-92169621D01*
X194886293Y-92214621D01*
X194815768Y-92222792D01*
X194752021Y-92191538D01*
X194731324Y-92167054D01*
X194650822Y-92042617D01*
X194650820Y-92042614D01*
X194648014Y-92038277D01*
X194497670Y-91873051D01*
X194493619Y-91869852D01*
X194493615Y-91869848D01*
X194326414Y-91737800D01*
X194326410Y-91737798D01*
X194322359Y-91734598D01*
X194317831Y-91732098D01*
X194230762Y-91684034D01*
X194126789Y-91626638D01*
X194121920Y-91624914D01*
X194121916Y-91624912D01*
X193921087Y-91553795D01*
X193921083Y-91553794D01*
X193916212Y-91552069D01*
X193911119Y-91551162D01*
X193911116Y-91551161D01*
X193701373Y-91513800D01*
X193701367Y-91513799D01*
X193696284Y-91512894D01*
X193622452Y-91511992D01*
X193478081Y-91510228D01*
X193478079Y-91510228D01*
X193472911Y-91510165D01*
X193252091Y-91543955D01*
X193039756Y-91613357D01*
X192962853Y-91653390D01*
X192865975Y-91703822D01*
X192841607Y-91716507D01*
X192837474Y-91719610D01*
X192837471Y-91719612D01*
X192667100Y-91847530D01*
X192662965Y-91850635D01*
X192508629Y-92012138D01*
X192401201Y-92169621D01*
X192346293Y-92214621D01*
X192275768Y-92222792D01*
X192212021Y-92191538D01*
X192191324Y-92167054D01*
X192110822Y-92042617D01*
X192110820Y-92042614D01*
X192108014Y-92038277D01*
X191957670Y-91873051D01*
X191953619Y-91869852D01*
X191953615Y-91869848D01*
X191786414Y-91737800D01*
X191786410Y-91737798D01*
X191782359Y-91734598D01*
X191777831Y-91732098D01*
X191690762Y-91684034D01*
X191586789Y-91626638D01*
X191581920Y-91624914D01*
X191581916Y-91624912D01*
X191381087Y-91553795D01*
X191381083Y-91553794D01*
X191376212Y-91552069D01*
X191371119Y-91551162D01*
X191371116Y-91551161D01*
X191161373Y-91513800D01*
X191161367Y-91513799D01*
X191156284Y-91512894D01*
X191082452Y-91511992D01*
X190938081Y-91510228D01*
X190938079Y-91510228D01*
X190932911Y-91510165D01*
X190712091Y-91543955D01*
X190499756Y-91613357D01*
X190422853Y-91653390D01*
X190325975Y-91703822D01*
X190301607Y-91716507D01*
X190297474Y-91719610D01*
X190297471Y-91719612D01*
X190127100Y-91847530D01*
X190122965Y-91850635D01*
X189968629Y-92012138D01*
X189861201Y-92169621D01*
X189806293Y-92214621D01*
X189735768Y-92222792D01*
X189672021Y-92191538D01*
X189651324Y-92167054D01*
X189570822Y-92042617D01*
X189570820Y-92042614D01*
X189568014Y-92038277D01*
X189417670Y-91873051D01*
X189413619Y-91869852D01*
X189413615Y-91869848D01*
X189246414Y-91737800D01*
X189246410Y-91737798D01*
X189242359Y-91734598D01*
X189237831Y-91732098D01*
X189150762Y-91684034D01*
X189046789Y-91626638D01*
X189041920Y-91624914D01*
X189041916Y-91624912D01*
X188841087Y-91553795D01*
X188841083Y-91553794D01*
X188836212Y-91552069D01*
X188831119Y-91551162D01*
X188831116Y-91551161D01*
X188621373Y-91513800D01*
X188621367Y-91513799D01*
X188616284Y-91512894D01*
X188542452Y-91511992D01*
X188398081Y-91510228D01*
X188398079Y-91510228D01*
X188392911Y-91510165D01*
X188172091Y-91543955D01*
X187959756Y-91613357D01*
X187882853Y-91653390D01*
X187785975Y-91703822D01*
X187761607Y-91716507D01*
X187757474Y-91719610D01*
X187757471Y-91719612D01*
X187587100Y-91847530D01*
X187582965Y-91850635D01*
X187428629Y-92012138D01*
X187321204Y-92169618D01*
X187320898Y-92170066D01*
X187265987Y-92215069D01*
X187195462Y-92223240D01*
X187131715Y-92191986D01*
X187111018Y-92167502D01*
X187030426Y-92042926D01*
X187024136Y-92034757D01*
X186880806Y-91877240D01*
X186873273Y-91870215D01*
X186706139Y-91738222D01*
X186697552Y-91732517D01*
X186511117Y-91629599D01*
X186501705Y-91625369D01*
X186300959Y-91554280D01*
X186290988Y-91551646D01*
X186219837Y-91538972D01*
X186206540Y-91540432D01*
X186202000Y-91554989D01*
X186202000Y-92998000D01*
X186181998Y-93066121D01*
X186128342Y-93112614D01*
X186076000Y-93124000D01*
X185820000Y-93124000D01*
X185751879Y-93103998D01*
X185705386Y-93050342D01*
X185694000Y-92998000D01*
X185694000Y-91553102D01*
X185690082Y-91539758D01*
X185675806Y-91537771D01*
X185637324Y-91543660D01*
X185627288Y-91546051D01*
X185424868Y-91612212D01*
X185415359Y-91616209D01*
X185226463Y-91714542D01*
X185217738Y-91720036D01*
X185047433Y-91847905D01*
X185039726Y-91854748D01*
X184892590Y-92008717D01*
X184886109Y-92016722D01*
X184781498Y-92170074D01*
X184726587Y-92215076D01*
X184656062Y-92223247D01*
X184592315Y-92191993D01*
X184571618Y-92167509D01*
X184490822Y-92042617D01*
X184490820Y-92042614D01*
X184488014Y-92038277D01*
X184337670Y-91873051D01*
X184333619Y-91869852D01*
X184333615Y-91869848D01*
X184166414Y-91737800D01*
X184166410Y-91737798D01*
X184162359Y-91734598D01*
X184157835Y-91732101D01*
X184157831Y-91732098D01*
X184106608Y-91703822D01*
X184056636Y-91653390D01*
X184041500Y-91593513D01*
X184041500Y-91151525D01*
X184061502Y-91083404D01*
X184115158Y-91036911D01*
X184127623Y-91032002D01*
X184154993Y-91022871D01*
X184155003Y-91022867D01*
X184161946Y-91020550D01*
X184312348Y-90927478D01*
X184437305Y-90802303D01*
X184459974Y-90765528D01*
X184526275Y-90657968D01*
X184526276Y-90657966D01*
X184530115Y-90651738D01*
X184585797Y-90483861D01*
X184596500Y-90379400D01*
X184596500Y-89753600D01*
X184594504Y-89734359D01*
X184586238Y-89654692D01*
X184586237Y-89654688D01*
X184585526Y-89647834D01*
X184560243Y-89572050D01*
X184531868Y-89487002D01*
X184529550Y-89480054D01*
X184436478Y-89329652D01*
X184349891Y-89243216D01*
X184315812Y-89180934D01*
X184320815Y-89110114D01*
X184349736Y-89065025D01*
X184432134Y-88982483D01*
X184437305Y-88977303D01*
X184530115Y-88826738D01*
X184582114Y-88669966D01*
X184583632Y-88665389D01*
X184583632Y-88665387D01*
X184585797Y-88658861D01*
X184596500Y-88554400D01*
X184596500Y-87928600D01*
X184596163Y-87925350D01*
X184586238Y-87829692D01*
X184586237Y-87829688D01*
X184585526Y-87822834D01*
X184529550Y-87655054D01*
X184436478Y-87504652D01*
X184311303Y-87379695D01*
X184160738Y-87286885D01*
X184026399Y-87242327D01*
X183999389Y-87233368D01*
X183999387Y-87233368D01*
X183992861Y-87231203D01*
X183986025Y-87230503D01*
X183986022Y-87230502D01*
X183942969Y-87226091D01*
X183888400Y-87220500D01*
X183315095Y-87220500D01*
X183246974Y-87200498D01*
X183226000Y-87183595D01*
X182999500Y-86957095D01*
X182965474Y-86894783D01*
X182970539Y-86823968D01*
X182999500Y-86778905D01*
X183226000Y-86552405D01*
X183288312Y-86518379D01*
X183315095Y-86515500D01*
X183888400Y-86515500D01*
X183891646Y-86515163D01*
X183891650Y-86515163D01*
X183987308Y-86505238D01*
X183987312Y-86505237D01*
X183994166Y-86504526D01*
X184000702Y-86502345D01*
X184000704Y-86502345D01*
X184154998Y-86450868D01*
X184161946Y-86448550D01*
X184312348Y-86355478D01*
X184437305Y-86230303D01*
X184530115Y-86079738D01*
X184585797Y-85911861D01*
X184596500Y-85807400D01*
X184596500Y-85181600D01*
X184596163Y-85178350D01*
X184586238Y-85082692D01*
X184586237Y-85082688D01*
X184585526Y-85075834D01*
X184574739Y-85043500D01*
X184531868Y-84915002D01*
X184529550Y-84908054D01*
X184436478Y-84757652D01*
X184431296Y-84752479D01*
X184349537Y-84670862D01*
X184315458Y-84608579D01*
X184320461Y-84537759D01*
X184349382Y-84492671D01*
X184431739Y-84410171D01*
X184440751Y-84398760D01*
X184525816Y-84260757D01*
X184531963Y-84247576D01*
X184583138Y-84093290D01*
X184586005Y-84079914D01*
X184595672Y-83985562D01*
X184596000Y-83979146D01*
X184596000Y-83941615D01*
X184591525Y-83926376D01*
X184590135Y-83925171D01*
X184582452Y-83923500D01*
X182198116Y-83923500D01*
X182182877Y-83927975D01*
X182181672Y-83929365D01*
X182180001Y-83937048D01*
X182180001Y-83979095D01*
X182180338Y-83985614D01*
X182190257Y-84081206D01*
X182193149Y-84094600D01*
X182244588Y-84248784D01*
X182250761Y-84261962D01*
X182336063Y-84399807D01*
X182345099Y-84411208D01*
X182426462Y-84492430D01*
X182460541Y-84554713D01*
X182455538Y-84625533D01*
X182426617Y-84670620D01*
X182343870Y-84753512D01*
X182343866Y-84753517D01*
X182338695Y-84758697D01*
X182334855Y-84764927D01*
X182334854Y-84764928D01*
X182275112Y-84861848D01*
X182245885Y-84909262D01*
X182243581Y-84916209D01*
X182199791Y-85048233D01*
X182190203Y-85077139D01*
X182179500Y-85181600D01*
X182179500Y-85754905D01*
X182159498Y-85823026D01*
X182142595Y-85844000D01*
X181855000Y-86131595D01*
X181792688Y-86165621D01*
X181765905Y-86168500D01*
X180586950Y-86168500D01*
X180518829Y-86148498D01*
X180505729Y-86137941D01*
X180505675Y-86138011D01*
X180499415Y-86133155D01*
X180493807Y-86127547D01*
X180486983Y-86123511D01*
X180486980Y-86123509D01*
X180357427Y-86046892D01*
X180357428Y-86046892D01*
X180350601Y-86042855D01*
X180342990Y-86040644D01*
X180342988Y-86040643D01*
X180290769Y-86025472D01*
X180190831Y-85996438D01*
X180184426Y-85995934D01*
X180184421Y-85995933D01*
X180155958Y-85993693D01*
X180155950Y-85993693D01*
X180153502Y-85993500D01*
X178996500Y-85993500D01*
X178928379Y-85973498D01*
X178881886Y-85919842D01*
X178870500Y-85867500D01*
X178870500Y-85836000D01*
X178890502Y-85767879D01*
X178944158Y-85721386D01*
X178996500Y-85710000D01*
X179227385Y-85710000D01*
X179242624Y-85705525D01*
X179243829Y-85704135D01*
X179245500Y-85696452D01*
X179245500Y-85691884D01*
X179753500Y-85691884D01*
X179757975Y-85707123D01*
X179759365Y-85708328D01*
X179767048Y-85709999D01*
X180150984Y-85709999D01*
X180155920Y-85709805D01*
X180184336Y-85707570D01*
X180196931Y-85705270D01*
X180342790Y-85662893D01*
X180357221Y-85656648D01*
X180486678Y-85580089D01*
X180499104Y-85570449D01*
X180605449Y-85464104D01*
X180615089Y-85451678D01*
X180691648Y-85322221D01*
X180697893Y-85307790D01*
X180736939Y-85173395D01*
X180736899Y-85159294D01*
X180729630Y-85156000D01*
X179771615Y-85156000D01*
X179756376Y-85160475D01*
X179755171Y-85161865D01*
X179753500Y-85169548D01*
X179753500Y-85691884D01*
X179245500Y-85691884D01*
X179245500Y-85174115D01*
X179241025Y-85158876D01*
X179239635Y-85157671D01*
X179231952Y-85156000D01*
X178616842Y-85156000D01*
X178552703Y-85138453D01*
X178482427Y-85096892D01*
X178482428Y-85096892D01*
X178475601Y-85092855D01*
X178467990Y-85090644D01*
X178467988Y-85090643D01*
X178399036Y-85070611D01*
X178315831Y-85046438D01*
X178309426Y-85045934D01*
X178309421Y-85045933D01*
X178280958Y-85043693D01*
X178280950Y-85043693D01*
X178278502Y-85043500D01*
X176970498Y-85043500D01*
X176968050Y-85043693D01*
X176968042Y-85043693D01*
X176939579Y-85045933D01*
X176939574Y-85045934D01*
X176933169Y-85046438D01*
X176849964Y-85070611D01*
X176781012Y-85090643D01*
X176781010Y-85090644D01*
X176773399Y-85092855D01*
X176766572Y-85096892D01*
X176766573Y-85096892D01*
X176637020Y-85173509D01*
X176637017Y-85173511D01*
X176630193Y-85177547D01*
X176616145Y-85191595D01*
X176553833Y-85225621D01*
X176527050Y-85228500D01*
X175012805Y-85228500D01*
X174944684Y-85208498D01*
X174907013Y-85170940D01*
X174818822Y-85034617D01*
X174818820Y-85034614D01*
X174816014Y-85030277D01*
X174665670Y-84865051D01*
X174661619Y-84861852D01*
X174661615Y-84861848D01*
X174494414Y-84729800D01*
X174494410Y-84729798D01*
X174490359Y-84726598D01*
X174449053Y-84703796D01*
X174399084Y-84653364D01*
X174394243Y-84630605D01*
X178262061Y-84630605D01*
X178262101Y-84644706D01*
X178269370Y-84648000D01*
X179227385Y-84648000D01*
X179242624Y-84643525D01*
X179243829Y-84642135D01*
X179245500Y-84634452D01*
X179245500Y-84629885D01*
X179753500Y-84629885D01*
X179757975Y-84645124D01*
X179759365Y-84646329D01*
X179767048Y-84648000D01*
X180723878Y-84648000D01*
X180737409Y-84644027D01*
X180738544Y-84636129D01*
X180697893Y-84496210D01*
X180691648Y-84481779D01*
X180615089Y-84352322D01*
X180605449Y-84339896D01*
X180499104Y-84233551D01*
X180486678Y-84223911D01*
X180357221Y-84147352D01*
X180342790Y-84141107D01*
X180196935Y-84098731D01*
X180184333Y-84096430D01*
X180155916Y-84094193D01*
X180150986Y-84094000D01*
X179771615Y-84094000D01*
X179756376Y-84098475D01*
X179755171Y-84099865D01*
X179753500Y-84107548D01*
X179753500Y-84629885D01*
X179245500Y-84629885D01*
X179245500Y-84112116D01*
X179241025Y-84096877D01*
X179239635Y-84095672D01*
X179231952Y-84094001D01*
X178848017Y-84094001D01*
X178843080Y-84094195D01*
X178814664Y-84096430D01*
X178802069Y-84098730D01*
X178656210Y-84141107D01*
X178641779Y-84147352D01*
X178512322Y-84223911D01*
X178499896Y-84233551D01*
X178393551Y-84339896D01*
X178383911Y-84352322D01*
X178307352Y-84481779D01*
X178301107Y-84496210D01*
X178262061Y-84630605D01*
X174394243Y-84630605D01*
X174384312Y-84583921D01*
X174409428Y-84517516D01*
X174436780Y-84490909D01*
X174480603Y-84459650D01*
X174615860Y-84363173D01*
X174639219Y-84339896D01*
X174717425Y-84261962D01*
X174774096Y-84205489D01*
X174815872Y-84147352D01*
X174901435Y-84028277D01*
X174904453Y-84024077D01*
X174923463Y-83985614D01*
X175001136Y-83828453D01*
X175001137Y-83828451D01*
X175003430Y-83823811D01*
X175068370Y-83610069D01*
X175096371Y-83397385D01*
X182180000Y-83397385D01*
X182184475Y-83412624D01*
X182185865Y-83413829D01*
X182193548Y-83415500D01*
X183115885Y-83415500D01*
X183131124Y-83411025D01*
X183132329Y-83409635D01*
X183134000Y-83401952D01*
X183134000Y-83397385D01*
X183642000Y-83397385D01*
X183646475Y-83412624D01*
X183647865Y-83413829D01*
X183655548Y-83415500D01*
X184577884Y-83415500D01*
X184593123Y-83411025D01*
X184594328Y-83409635D01*
X184595999Y-83401952D01*
X184595999Y-83359905D01*
X184595662Y-83353386D01*
X184585743Y-83257794D01*
X184582851Y-83244400D01*
X184531412Y-83090216D01*
X184525239Y-83077038D01*
X184439937Y-82939193D01*
X184430901Y-82927792D01*
X184316171Y-82813261D01*
X184304760Y-82804249D01*
X184166757Y-82719184D01*
X184153576Y-82713037D01*
X183999290Y-82661862D01*
X183985914Y-82658995D01*
X183891562Y-82649328D01*
X183885145Y-82649000D01*
X183660115Y-82649000D01*
X183644876Y-82653475D01*
X183643671Y-82654865D01*
X183642000Y-82662548D01*
X183642000Y-83397385D01*
X183134000Y-83397385D01*
X183134000Y-82667116D01*
X183129525Y-82651877D01*
X183128135Y-82650672D01*
X183120452Y-82649001D01*
X182890905Y-82649001D01*
X182884386Y-82649338D01*
X182788794Y-82659257D01*
X182775400Y-82662149D01*
X182621216Y-82713588D01*
X182608038Y-82719761D01*
X182470193Y-82805063D01*
X182458792Y-82814099D01*
X182344261Y-82928829D01*
X182335249Y-82940240D01*
X182250184Y-83078243D01*
X182244037Y-83091424D01*
X182192862Y-83245710D01*
X182189995Y-83259086D01*
X182180328Y-83353438D01*
X182180000Y-83359855D01*
X182180000Y-83397385D01*
X175096371Y-83397385D01*
X175097529Y-83388590D01*
X175099156Y-83322000D01*
X175080852Y-83099361D01*
X175052821Y-82987765D01*
X175055625Y-82916823D01*
X175085930Y-82867974D01*
X175652247Y-82301657D01*
X175660537Y-82294113D01*
X175667018Y-82290000D01*
X175713659Y-82240332D01*
X175716413Y-82237491D01*
X175736134Y-82217770D01*
X175738612Y-82214575D01*
X175746318Y-82205553D01*
X175771158Y-82179101D01*
X175776586Y-82173321D01*
X175786346Y-82155568D01*
X175797199Y-82139045D01*
X175804753Y-82129306D01*
X175809613Y-82123041D01*
X175827176Y-82082457D01*
X175832383Y-82071827D01*
X175853695Y-82033060D01*
X175855666Y-82025383D01*
X175855668Y-82025378D01*
X175858732Y-82013442D01*
X175865138Y-81994730D01*
X175870034Y-81983417D01*
X175873181Y-81976145D01*
X175880097Y-81932481D01*
X175882504Y-81920860D01*
X175891528Y-81885711D01*
X175891528Y-81885710D01*
X175893500Y-81878030D01*
X175893500Y-81857769D01*
X175895051Y-81838058D01*
X175896979Y-81825885D01*
X175898219Y-81818057D01*
X175894059Y-81774046D01*
X175893500Y-81762189D01*
X175893500Y-79834768D01*
X175894027Y-79823585D01*
X175895702Y-79816092D01*
X175893562Y-79748001D01*
X175893500Y-79744044D01*
X175893500Y-79716144D01*
X175892996Y-79712153D01*
X175892063Y-79700311D01*
X175890923Y-79664036D01*
X175890674Y-79656111D01*
X175888462Y-79648497D01*
X175888461Y-79648492D01*
X175885023Y-79636659D01*
X175881012Y-79617295D01*
X175879467Y-79605064D01*
X175878474Y-79597203D01*
X175875557Y-79589836D01*
X175875556Y-79589831D01*
X175862198Y-79556092D01*
X175858354Y-79544865D01*
X175848230Y-79510022D01*
X175846018Y-79502407D01*
X175835707Y-79484972D01*
X175827012Y-79467224D01*
X175819552Y-79448383D01*
X175793564Y-79412613D01*
X175787048Y-79402693D01*
X175768580Y-79371465D01*
X175768578Y-79371462D01*
X175764542Y-79364638D01*
X175750221Y-79350317D01*
X175737380Y-79335283D01*
X175730131Y-79325306D01*
X175725472Y-79318893D01*
X175691395Y-79290702D01*
X175682616Y-79282712D01*
X173136405Y-76736500D01*
X173102379Y-76674188D01*
X173099500Y-76647405D01*
X173099500Y-76178136D01*
X173119502Y-76110015D01*
X173173158Y-76063522D01*
X173243432Y-76053418D01*
X173308012Y-76082912D01*
X173339695Y-76124886D01*
X173384327Y-76220598D01*
X173430024Y-76318596D01*
X173553319Y-76494681D01*
X173705319Y-76646681D01*
X173881403Y-76769976D01*
X173886381Y-76772297D01*
X173886384Y-76772299D01*
X174063081Y-76854694D01*
X174076223Y-76860822D01*
X174081531Y-76862244D01*
X174081533Y-76862245D01*
X174278543Y-76915034D01*
X174278545Y-76915034D01*
X174283858Y-76916458D01*
X174498000Y-76935193D01*
X174712142Y-76916458D01*
X174717455Y-76915034D01*
X174717457Y-76915034D01*
X174914467Y-76862245D01*
X174914469Y-76862244D01*
X174919777Y-76860822D01*
X174932919Y-76854694D01*
X175109616Y-76772299D01*
X175109619Y-76772297D01*
X175114597Y-76769976D01*
X175290681Y-76646681D01*
X175442681Y-76494681D01*
X175516518Y-76389230D01*
X175571975Y-76344901D01*
X175619731Y-76335500D01*
X178051798Y-76335500D01*
X178119919Y-76355502D01*
X178166412Y-76409158D01*
X178171321Y-76421623D01*
X178191729Y-76482791D01*
X178194450Y-76490946D01*
X178287522Y-76641348D01*
X178412697Y-76766305D01*
X178418927Y-76770145D01*
X178418928Y-76770146D01*
X178556090Y-76854694D01*
X178563262Y-76859115D01*
X178572699Y-76862245D01*
X178724611Y-76912632D01*
X178724613Y-76912632D01*
X178731139Y-76914797D01*
X178737975Y-76915497D01*
X178737978Y-76915498D01*
X178781031Y-76919909D01*
X178835600Y-76925500D01*
X179436400Y-76925500D01*
X179439646Y-76925163D01*
X179439650Y-76925163D01*
X179535308Y-76915238D01*
X179535312Y-76915237D01*
X179542166Y-76914526D01*
X179548702Y-76912345D01*
X179548704Y-76912345D01*
X179698871Y-76862245D01*
X179709946Y-76858550D01*
X179860348Y-76765478D01*
X179985305Y-76640303D01*
X179987906Y-76636084D01*
X180045030Y-76595583D01*
X180115953Y-76592351D01*
X180177365Y-76627976D01*
X180183922Y-76635530D01*
X180187522Y-76641348D01*
X180312697Y-76766305D01*
X180318927Y-76770145D01*
X180318928Y-76770146D01*
X180456090Y-76854694D01*
X180463262Y-76859115D01*
X180472699Y-76862245D01*
X180624611Y-76912632D01*
X180624613Y-76912632D01*
X180631139Y-76914797D01*
X180637975Y-76915497D01*
X180637978Y-76915498D01*
X180681031Y-76919909D01*
X180735600Y-76925500D01*
X181336400Y-76925500D01*
X181339646Y-76925163D01*
X181339650Y-76925163D01*
X181435308Y-76915238D01*
X181435312Y-76915237D01*
X181442166Y-76914526D01*
X181448702Y-76912345D01*
X181448704Y-76912345D01*
X181598871Y-76862245D01*
X181609946Y-76858550D01*
X181760348Y-76765478D01*
X181885305Y-76640303D01*
X181978115Y-76489738D01*
X182033797Y-76321861D01*
X182044500Y-76217400D01*
X182044500Y-75631594D01*
X182064502Y-75563473D01*
X182081405Y-75542499D01*
X183770247Y-73853657D01*
X183778537Y-73846113D01*
X183785018Y-73842000D01*
X183831659Y-73792332D01*
X183834413Y-73789491D01*
X183854134Y-73769770D01*
X183856612Y-73766575D01*
X183864318Y-73757553D01*
X183889158Y-73731101D01*
X183894586Y-73725321D01*
X183904346Y-73707568D01*
X183915199Y-73691045D01*
X183922753Y-73681306D01*
X183927613Y-73675041D01*
X183945176Y-73634457D01*
X183950383Y-73623827D01*
X183971695Y-73585060D01*
X183973666Y-73577383D01*
X183973668Y-73577378D01*
X183976732Y-73565442D01*
X183983138Y-73546730D01*
X183988033Y-73535419D01*
X183991181Y-73528145D01*
X183992421Y-73520317D01*
X183992423Y-73520310D01*
X183998099Y-73484476D01*
X184000505Y-73472856D01*
X184009528Y-73437711D01*
X184009528Y-73437710D01*
X184011500Y-73430030D01*
X184011500Y-73409776D01*
X184013051Y-73390065D01*
X184014980Y-73377886D01*
X184016220Y-73370057D01*
X184012059Y-73326038D01*
X184011500Y-73314181D01*
X184011500Y-53490427D01*
X184031502Y-53422306D01*
X184072618Y-53382550D01*
X184075994Y-53380896D01*
X184257860Y-53251173D01*
X184416096Y-53093489D01*
X184475594Y-53010689D01*
X184546453Y-52912077D01*
X184547776Y-52913028D01*
X184594645Y-52869857D01*
X184664580Y-52857625D01*
X184730026Y-52885144D01*
X184757875Y-52916994D01*
X184817987Y-53015088D01*
X184964250Y-53183938D01*
X185136126Y-53326632D01*
X185329000Y-53439338D01*
X185537692Y-53519030D01*
X185542760Y-53520061D01*
X185542763Y-53520062D01*
X185637862Y-53539410D01*
X185756597Y-53563567D01*
X185761772Y-53563757D01*
X185761774Y-53563757D01*
X185974673Y-53571564D01*
X185974677Y-53571564D01*
X185979837Y-53571753D01*
X185984957Y-53571097D01*
X185984959Y-53571097D01*
X186196288Y-53544025D01*
X186196289Y-53544025D01*
X186201416Y-53543368D01*
X186206369Y-53541882D01*
X186410429Y-53480661D01*
X186410434Y-53480659D01*
X186415384Y-53479174D01*
X186615994Y-53380896D01*
X186797860Y-53251173D01*
X186956096Y-53093489D01*
X187015594Y-53010689D01*
X187086453Y-52912077D01*
X187087776Y-52913028D01*
X187134645Y-52869857D01*
X187204580Y-52857625D01*
X187270026Y-52885144D01*
X187297875Y-52916994D01*
X187357987Y-53015088D01*
X187504250Y-53183938D01*
X187676126Y-53326632D01*
X187869000Y-53439338D01*
X188077692Y-53519030D01*
X188082760Y-53520061D01*
X188082763Y-53520062D01*
X188177862Y-53539410D01*
X188296597Y-53563567D01*
X188301772Y-53563757D01*
X188301774Y-53563757D01*
X188514673Y-53571564D01*
X188514677Y-53571564D01*
X188519837Y-53571753D01*
X188524957Y-53571097D01*
X188524959Y-53571097D01*
X188736288Y-53544025D01*
X188736289Y-53544025D01*
X188741416Y-53543368D01*
X188746369Y-53541882D01*
X188950429Y-53480661D01*
X188950434Y-53480659D01*
X188955384Y-53479174D01*
X189155994Y-53380896D01*
X189337860Y-53251173D01*
X189496096Y-53093489D01*
X189555594Y-53010689D01*
X189626453Y-52912077D01*
X189627776Y-52913028D01*
X189674645Y-52869857D01*
X189744580Y-52857625D01*
X189810026Y-52885144D01*
X189837875Y-52916994D01*
X189897987Y-53015088D01*
X190044250Y-53183938D01*
X190216126Y-53326632D01*
X190409000Y-53439338D01*
X190617692Y-53519030D01*
X190622760Y-53520061D01*
X190622763Y-53520062D01*
X190717862Y-53539410D01*
X190836597Y-53563567D01*
X190841772Y-53563757D01*
X190841774Y-53563757D01*
X191054673Y-53571564D01*
X191054677Y-53571564D01*
X191059837Y-53571753D01*
X191064957Y-53571097D01*
X191064959Y-53571097D01*
X191276288Y-53544025D01*
X191276289Y-53544025D01*
X191281416Y-53543368D01*
X191286369Y-53541882D01*
X191490429Y-53480661D01*
X191490434Y-53480659D01*
X191495384Y-53479174D01*
X191695994Y-53380896D01*
X191877860Y-53251173D01*
X192036096Y-53093489D01*
X192095594Y-53010689D01*
X192166453Y-52912077D01*
X192167776Y-52913028D01*
X192214645Y-52869857D01*
X192284580Y-52857625D01*
X192350026Y-52885144D01*
X192377875Y-52916994D01*
X192437987Y-53015088D01*
X192584250Y-53183938D01*
X192756126Y-53326632D01*
X192949000Y-53439338D01*
X193157692Y-53519030D01*
X193162760Y-53520061D01*
X193162763Y-53520062D01*
X193257862Y-53539410D01*
X193376597Y-53563567D01*
X193381772Y-53563757D01*
X193381774Y-53563757D01*
X193594673Y-53571564D01*
X193594677Y-53571564D01*
X193599837Y-53571753D01*
X193604957Y-53571097D01*
X193604959Y-53571097D01*
X193816288Y-53544025D01*
X193816289Y-53544025D01*
X193821416Y-53543368D01*
X193826369Y-53541882D01*
X194030429Y-53480661D01*
X194030434Y-53480659D01*
X194035384Y-53479174D01*
X194235994Y-53380896D01*
X194417860Y-53251173D01*
X194576096Y-53093489D01*
X194635594Y-53010689D01*
X194706453Y-52912077D01*
X194707776Y-52913028D01*
X194754645Y-52869857D01*
X194824580Y-52857625D01*
X194890026Y-52885144D01*
X194917875Y-52916994D01*
X194977987Y-53015088D01*
X195124250Y-53183938D01*
X195296126Y-53326632D01*
X195489000Y-53439338D01*
X195697692Y-53519030D01*
X195702760Y-53520061D01*
X195702763Y-53520062D01*
X195797862Y-53539410D01*
X195916597Y-53563567D01*
X195921772Y-53563757D01*
X195921774Y-53563757D01*
X196134673Y-53571564D01*
X196134677Y-53571564D01*
X196139837Y-53571753D01*
X196144957Y-53571097D01*
X196144959Y-53571097D01*
X196356288Y-53544025D01*
X196356289Y-53544025D01*
X196361416Y-53543368D01*
X196366369Y-53541882D01*
X196570429Y-53480661D01*
X196570434Y-53480659D01*
X196575384Y-53479174D01*
X196775994Y-53380896D01*
X196957860Y-53251173D01*
X197116096Y-53093489D01*
X197175594Y-53010689D01*
X197246453Y-52912077D01*
X197247640Y-52912930D01*
X197294960Y-52869362D01*
X197364897Y-52857145D01*
X197430338Y-52884678D01*
X197458166Y-52916511D01*
X197515694Y-53010388D01*
X197521777Y-53018699D01*
X197661213Y-53179667D01*
X197668580Y-53186883D01*
X197832434Y-53322916D01*
X197840881Y-53328831D01*
X198024756Y-53436279D01*
X198034042Y-53440729D01*
X198233001Y-53516703D01*
X198242899Y-53519579D01*
X198346250Y-53540606D01*
X198360299Y-53539410D01*
X198364000Y-53529065D01*
X198364000Y-52082000D01*
X198384002Y-52013879D01*
X198437658Y-51967386D01*
X198490000Y-51956000D01*
X198746000Y-51956000D01*
X198814121Y-51976002D01*
X198860614Y-52029658D01*
X198872000Y-52082000D01*
X198872000Y-53528517D01*
X198876064Y-53542359D01*
X198889478Y-53544393D01*
X198896184Y-53543534D01*
X198906262Y-53541392D01*
X199110255Y-53480191D01*
X199119842Y-53476433D01*
X199311095Y-53382739D01*
X199319945Y-53377464D01*
X199493328Y-53253792D01*
X199501193Y-53247145D01*
X199605897Y-53142805D01*
X199668268Y-53108889D01*
X199739075Y-53114077D01*
X199795837Y-53156723D01*
X199812819Y-53187826D01*
X199857385Y-53306705D01*
X199944739Y-53423261D01*
X200061295Y-53510615D01*
X200197684Y-53561745D01*
X200259866Y-53568500D01*
X200273500Y-53568500D01*
X200341621Y-53588502D01*
X200388114Y-53642158D01*
X200399500Y-53694500D01*
X200399500Y-53745629D01*
X200379498Y-53813750D01*
X200362595Y-53834724D01*
X199366724Y-54830595D01*
X199304412Y-54864621D01*
X199277629Y-54867500D01*
X192599070Y-54867500D01*
X192580120Y-54866067D01*
X192565885Y-54863901D01*
X192565881Y-54863901D01*
X192558651Y-54862801D01*
X192551359Y-54863394D01*
X192551356Y-54863394D01*
X192505982Y-54867085D01*
X192495767Y-54867500D01*
X192487707Y-54867500D01*
X192484073Y-54867924D01*
X192484067Y-54867924D01*
X192471042Y-54869443D01*
X192459480Y-54870791D01*
X192455132Y-54871221D01*
X192382364Y-54877140D01*
X192375403Y-54879395D01*
X192369463Y-54880582D01*
X192363588Y-54881971D01*
X192356319Y-54882818D01*
X192287670Y-54907736D01*
X192283542Y-54909153D01*
X192221064Y-54929393D01*
X192221062Y-54929394D01*
X192214101Y-54931649D01*
X192207846Y-54935445D01*
X192202372Y-54937951D01*
X192196942Y-54940670D01*
X192190063Y-54943167D01*
X192183943Y-54947180D01*
X192183942Y-54947180D01*
X192129024Y-54983186D01*
X192125320Y-54985523D01*
X192062893Y-55023405D01*
X192054516Y-55030803D01*
X192054492Y-55030776D01*
X192051500Y-55033429D01*
X192048267Y-55036132D01*
X192042148Y-55040144D01*
X192037116Y-55045456D01*
X191988872Y-55096383D01*
X191986494Y-55098825D01*
X190260089Y-56825230D01*
X190245677Y-56837616D01*
X190234082Y-56846149D01*
X190234077Y-56846154D01*
X190228182Y-56850492D01*
X190223443Y-56856070D01*
X190223440Y-56856073D01*
X190193965Y-56890768D01*
X190187035Y-56898284D01*
X190181340Y-56903979D01*
X190179060Y-56906861D01*
X190163719Y-56926251D01*
X190160928Y-56929655D01*
X190159242Y-56931640D01*
X190113667Y-56985285D01*
X190110339Y-56991801D01*
X190106972Y-56996850D01*
X190103805Y-57001979D01*
X190099266Y-57007716D01*
X190068345Y-57073875D01*
X190066442Y-57077769D01*
X190033231Y-57142808D01*
X190031492Y-57149916D01*
X190029393Y-57155559D01*
X190027476Y-57161322D01*
X190024378Y-57167950D01*
X190022888Y-57175112D01*
X190022888Y-57175113D01*
X190009514Y-57239412D01*
X190008544Y-57243696D01*
X189991192Y-57314610D01*
X189990500Y-57325764D01*
X189990464Y-57325762D01*
X189990225Y-57329755D01*
X189989851Y-57333947D01*
X189988360Y-57341115D01*
X189988558Y-57348432D01*
X189990454Y-57418521D01*
X189990500Y-57421928D01*
X189990500Y-57443500D01*
X189970498Y-57511621D01*
X189916842Y-57558114D01*
X189864500Y-57569500D01*
X189850866Y-57569500D01*
X189788684Y-57576255D01*
X189652295Y-57627385D01*
X189535739Y-57714739D01*
X189448385Y-57831295D01*
X189397255Y-57967684D01*
X189390500Y-58029866D01*
X189390500Y-59826134D01*
X189397255Y-59888316D01*
X189448385Y-60024705D01*
X189535739Y-60141261D01*
X189652295Y-60228615D01*
X189788684Y-60279745D01*
X189850866Y-60286500D01*
X191647134Y-60286500D01*
X191709316Y-60279745D01*
X191845705Y-60228615D01*
X191962261Y-60141261D01*
X192049615Y-60024705D01*
X192089104Y-59919368D01*
X192093798Y-59906848D01*
X192136440Y-59850084D01*
X192203001Y-59825384D01*
X192272350Y-59840592D01*
X192307017Y-59868580D01*
X192332218Y-59897673D01*
X192339580Y-59904883D01*
X192503434Y-60040916D01*
X192511881Y-60046831D01*
X192695756Y-60154279D01*
X192705042Y-60158729D01*
X192904001Y-60234703D01*
X192913899Y-60237579D01*
X193017250Y-60258606D01*
X193031299Y-60257410D01*
X193035000Y-60247065D01*
X193035000Y-60246517D01*
X193543000Y-60246517D01*
X193547064Y-60260359D01*
X193560478Y-60262393D01*
X193567184Y-60261534D01*
X193577262Y-60259392D01*
X193781255Y-60198191D01*
X193790842Y-60194433D01*
X193982095Y-60100739D01*
X193990945Y-60095464D01*
X194164328Y-59971792D01*
X194172200Y-59965139D01*
X194323052Y-59814812D01*
X194329730Y-59806965D01*
X194454003Y-59634020D01*
X194459313Y-59625183D01*
X194553670Y-59434267D01*
X194557469Y-59424672D01*
X194619377Y-59220910D01*
X194621555Y-59210837D01*
X194622986Y-59199962D01*
X194620775Y-59185778D01*
X194607617Y-59182000D01*
X193561115Y-59182000D01*
X193545876Y-59186475D01*
X193544671Y-59187865D01*
X193543000Y-59195548D01*
X193543000Y-60246517D01*
X193035000Y-60246517D01*
X193035000Y-58655885D01*
X193543000Y-58655885D01*
X193547475Y-58671124D01*
X193548865Y-58672329D01*
X193556548Y-58674000D01*
X194607344Y-58674000D01*
X194620875Y-58670027D01*
X194622180Y-58660947D01*
X194580214Y-58493875D01*
X194576894Y-58484124D01*
X194491972Y-58288814D01*
X194487105Y-58279739D01*
X194371426Y-58100926D01*
X194365136Y-58092757D01*
X194221806Y-57935240D01*
X194214273Y-57928215D01*
X194047139Y-57796222D01*
X194038552Y-57790517D01*
X193852117Y-57687599D01*
X193842705Y-57683369D01*
X193641959Y-57612280D01*
X193631988Y-57609646D01*
X193560837Y-57596972D01*
X193547540Y-57598432D01*
X193543000Y-57612989D01*
X193543000Y-58655885D01*
X193035000Y-58655885D01*
X193035000Y-57611102D01*
X193031082Y-57597758D01*
X193016806Y-57595771D01*
X192978324Y-57601660D01*
X192968288Y-57604051D01*
X192765868Y-57670212D01*
X192756359Y-57674209D01*
X192567463Y-57772542D01*
X192558738Y-57778036D01*
X192388433Y-57905905D01*
X192380726Y-57912748D01*
X192303478Y-57993584D01*
X192241954Y-58029014D01*
X192171042Y-58025557D01*
X192113255Y-57984311D01*
X192094402Y-57950763D01*
X192052767Y-57839703D01*
X192049615Y-57831295D01*
X191962261Y-57714739D01*
X191902849Y-57670212D01*
X191852887Y-57632767D01*
X191852884Y-57632765D01*
X191845705Y-57627385D01*
X191837302Y-57624235D01*
X191835587Y-57623296D01*
X191785440Y-57573038D01*
X191770426Y-57503647D01*
X191795311Y-57437155D01*
X191807000Y-57423681D01*
X192809276Y-56421405D01*
X192871588Y-56387379D01*
X192898371Y-56384500D01*
X199576930Y-56384500D01*
X199595880Y-56385933D01*
X199610115Y-56388099D01*
X199610119Y-56388099D01*
X199617349Y-56389199D01*
X199624641Y-56388606D01*
X199624644Y-56388606D01*
X199670018Y-56384915D01*
X199680233Y-56384500D01*
X199688293Y-56384500D01*
X199701583Y-56382951D01*
X199716507Y-56381211D01*
X199720882Y-56380778D01*
X199786339Y-56375454D01*
X199786342Y-56375453D01*
X199793637Y-56374860D01*
X199800601Y-56372604D01*
X199806560Y-56371413D01*
X199812415Y-56370029D01*
X199819681Y-56369182D01*
X199888327Y-56344265D01*
X199892455Y-56342848D01*
X199954936Y-56322607D01*
X199954938Y-56322606D01*
X199961899Y-56320351D01*
X199968154Y-56316555D01*
X199973628Y-56314049D01*
X199979058Y-56311330D01*
X199985937Y-56308833D01*
X200037272Y-56275176D01*
X200046976Y-56268814D01*
X200050680Y-56266477D01*
X200113107Y-56228595D01*
X200121484Y-56221197D01*
X200121508Y-56221224D01*
X200124500Y-56218571D01*
X200127733Y-56215868D01*
X200133852Y-56211856D01*
X200187128Y-56155617D01*
X200189506Y-56153175D01*
X201646911Y-54695770D01*
X201661323Y-54683384D01*
X201672918Y-54674851D01*
X201672923Y-54674846D01*
X201678818Y-54670508D01*
X201683557Y-54664930D01*
X201683560Y-54664927D01*
X201713035Y-54630232D01*
X201719965Y-54622716D01*
X201725660Y-54617021D01*
X201743281Y-54594749D01*
X201746072Y-54591345D01*
X201788591Y-54541297D01*
X201788592Y-54541295D01*
X201793333Y-54535715D01*
X201796661Y-54529199D01*
X201800028Y-54524150D01*
X201803195Y-54519021D01*
X201807734Y-54513284D01*
X201838655Y-54447125D01*
X201840561Y-54443225D01*
X201848457Y-54427762D01*
X201873769Y-54378192D01*
X201875508Y-54371084D01*
X201877607Y-54365441D01*
X201879524Y-54359678D01*
X201882622Y-54353050D01*
X201897487Y-54281583D01*
X201898457Y-54277299D01*
X201909442Y-54232405D01*
X201915808Y-54206390D01*
X201916500Y-54195236D01*
X201916536Y-54195238D01*
X201916775Y-54191245D01*
X201917149Y-54187053D01*
X201918640Y-54179885D01*
X201916546Y-54102479D01*
X201916500Y-54099072D01*
X201916500Y-53694500D01*
X201936502Y-53626379D01*
X201990158Y-53579886D01*
X202042500Y-53568500D01*
X202056134Y-53568500D01*
X202118316Y-53561745D01*
X202254705Y-53510615D01*
X202371261Y-53423261D01*
X202458615Y-53306705D01*
X202509745Y-53170316D01*
X202516500Y-53108134D01*
X202516500Y-51444500D01*
X202536502Y-51376379D01*
X202590158Y-51329886D01*
X202642500Y-51318500D01*
X205400281Y-51318500D01*
X205468402Y-51338502D01*
G37*
G04 #@! TD.AperFunction*
G04 #@! TA.AperFunction,Conductor*
G36*
X169471221Y-51338502D02*
G01*
X169517714Y-51392158D01*
X169527818Y-51462432D01*
X169507189Y-51515503D01*
X169492743Y-51536680D01*
X169454981Y-51618031D01*
X169426273Y-51679879D01*
X169398688Y-51739305D01*
X169338989Y-51954570D01*
X169315251Y-52176695D01*
X169328110Y-52399715D01*
X169329247Y-52404761D01*
X169329248Y-52404767D01*
X169350275Y-52498069D01*
X169377222Y-52617639D01*
X169461266Y-52824616D01*
X169512942Y-52908944D01*
X169575291Y-53010688D01*
X169577987Y-53015088D01*
X169724250Y-53183938D01*
X169896126Y-53326632D01*
X170089000Y-53439338D01*
X170297692Y-53519030D01*
X170302760Y-53520061D01*
X170302763Y-53520062D01*
X170397862Y-53539410D01*
X170516597Y-53563567D01*
X170521772Y-53563757D01*
X170521774Y-53563757D01*
X170734673Y-53571564D01*
X170734677Y-53571564D01*
X170739837Y-53571753D01*
X170744957Y-53571097D01*
X170744959Y-53571097D01*
X170956288Y-53544025D01*
X170956289Y-53544025D01*
X170961416Y-53543368D01*
X170966369Y-53541882D01*
X171170429Y-53480661D01*
X171170434Y-53480659D01*
X171175384Y-53479174D01*
X171375994Y-53380896D01*
X171557860Y-53251173D01*
X171716096Y-53093489D01*
X171775594Y-53010689D01*
X171846453Y-52912077D01*
X171847776Y-52913028D01*
X171894645Y-52869857D01*
X171964580Y-52857625D01*
X172030026Y-52885144D01*
X172057875Y-52916994D01*
X172117987Y-53015088D01*
X172264250Y-53183938D01*
X172436126Y-53326632D01*
X172440593Y-53329242D01*
X172522070Y-53376853D01*
X172570794Y-53428491D01*
X172584500Y-53485641D01*
X172584500Y-54231521D01*
X172564498Y-54299642D01*
X172547673Y-54320539D01*
X172490121Y-54378192D01*
X172444695Y-54423697D01*
X172440855Y-54429927D01*
X172440854Y-54429928D01*
X172382775Y-54524150D01*
X172351885Y-54574262D01*
X172296203Y-54742139D01*
X172285500Y-54846600D01*
X172285500Y-55897400D01*
X172285837Y-55900646D01*
X172285837Y-55900650D01*
X172295618Y-55994914D01*
X172296474Y-56003166D01*
X172352450Y-56170946D01*
X172445522Y-56321348D01*
X172450704Y-56326521D01*
X172467739Y-56343526D01*
X172570697Y-56446305D01*
X172576927Y-56450145D01*
X172576928Y-56450146D01*
X172714288Y-56534816D01*
X172721262Y-56539115D01*
X172765841Y-56553901D01*
X172882611Y-56592632D01*
X172882613Y-56592632D01*
X172889139Y-56594797D01*
X172895975Y-56595497D01*
X172895978Y-56595498D01*
X172939031Y-56599909D01*
X172993600Y-56605500D01*
X173594400Y-56605500D01*
X173597646Y-56605163D01*
X173597650Y-56605163D01*
X173693308Y-56595238D01*
X173693312Y-56595237D01*
X173700166Y-56594526D01*
X173706702Y-56592345D01*
X173706704Y-56592345D01*
X173857842Y-56541921D01*
X173867946Y-56538550D01*
X174018348Y-56445478D01*
X174143305Y-56320303D01*
X174146102Y-56315765D01*
X174203353Y-56275176D01*
X174274276Y-56271946D01*
X174335687Y-56307572D01*
X174343062Y-56316068D01*
X174351098Y-56326207D01*
X174465829Y-56440739D01*
X174477240Y-56449751D01*
X174615243Y-56534816D01*
X174628424Y-56540963D01*
X174782710Y-56592138D01*
X174796086Y-56595005D01*
X174890438Y-56604672D01*
X174896854Y-56605000D01*
X174921885Y-56605000D01*
X174937124Y-56600525D01*
X174938329Y-56599135D01*
X174940000Y-56591452D01*
X174940000Y-56586884D01*
X175448000Y-56586884D01*
X175452475Y-56602123D01*
X175453865Y-56603328D01*
X175461548Y-56604999D01*
X175491095Y-56604999D01*
X175497614Y-56604662D01*
X175593206Y-56594743D01*
X175606600Y-56591851D01*
X175760784Y-56540412D01*
X175773962Y-56534239D01*
X175911807Y-56448937D01*
X175923208Y-56439901D01*
X176037739Y-56325171D01*
X176046751Y-56313760D01*
X176131816Y-56175757D01*
X176137963Y-56162576D01*
X176189138Y-56008290D01*
X176192005Y-55994914D01*
X176201672Y-55900562D01*
X176202000Y-55894146D01*
X176202000Y-55644115D01*
X176197525Y-55628876D01*
X176196135Y-55627671D01*
X176188452Y-55626000D01*
X175466115Y-55626000D01*
X175450876Y-55630475D01*
X175449671Y-55631865D01*
X175448000Y-55639548D01*
X175448000Y-56586884D01*
X174940000Y-56586884D01*
X174940000Y-55099885D01*
X175448000Y-55099885D01*
X175452475Y-55115124D01*
X175453865Y-55116329D01*
X175461548Y-55118000D01*
X176183884Y-55118000D01*
X176199123Y-55113525D01*
X176200328Y-55112135D01*
X176201999Y-55104452D01*
X176201999Y-54849905D01*
X176201662Y-54843386D01*
X176191743Y-54747794D01*
X176188851Y-54734400D01*
X176137412Y-54580216D01*
X176131239Y-54567038D01*
X176045937Y-54429193D01*
X176036901Y-54417792D01*
X175922171Y-54303261D01*
X175910760Y-54294249D01*
X175772757Y-54209184D01*
X175759576Y-54203037D01*
X175605290Y-54151862D01*
X175591914Y-54148995D01*
X175497562Y-54139328D01*
X175491145Y-54139000D01*
X175466115Y-54139000D01*
X175450876Y-54143475D01*
X175449671Y-54144865D01*
X175448000Y-54152548D01*
X175448000Y-55099885D01*
X174940000Y-55099885D01*
X174940000Y-54157116D01*
X174935525Y-54141877D01*
X174934135Y-54140672D01*
X174926452Y-54139001D01*
X174896905Y-54139001D01*
X174890386Y-54139338D01*
X174794794Y-54149257D01*
X174781400Y-54152149D01*
X174627216Y-54203588D01*
X174614038Y-54209761D01*
X174476193Y-54295063D01*
X174464792Y-54304099D01*
X174350262Y-54418828D01*
X174343206Y-54427762D01*
X174285288Y-54468823D01*
X174214365Y-54472053D01*
X174152954Y-54436426D01*
X174146154Y-54428593D01*
X174142478Y-54422652D01*
X174017303Y-54297695D01*
X174003739Y-54289334D01*
X173911384Y-54232405D01*
X173863890Y-54179632D01*
X173851500Y-54125145D01*
X173851500Y-53490427D01*
X173871502Y-53422306D01*
X173912618Y-53382550D01*
X173915994Y-53380896D01*
X174097860Y-53251173D01*
X174256096Y-53093489D01*
X174315594Y-53010689D01*
X174386453Y-52912077D01*
X174387776Y-52913028D01*
X174434645Y-52869857D01*
X174504580Y-52857625D01*
X174570026Y-52885144D01*
X174597875Y-52916994D01*
X174657987Y-53015088D01*
X174804250Y-53183938D01*
X174976126Y-53326632D01*
X175169000Y-53439338D01*
X175377692Y-53519030D01*
X175382760Y-53520061D01*
X175382763Y-53520062D01*
X175477862Y-53539410D01*
X175596597Y-53563567D01*
X175601772Y-53563757D01*
X175601774Y-53563757D01*
X175814673Y-53571564D01*
X175814677Y-53571564D01*
X175819837Y-53571753D01*
X175824957Y-53571097D01*
X175824959Y-53571097D01*
X176036288Y-53544025D01*
X176036289Y-53544025D01*
X176041416Y-53543368D01*
X176046367Y-53541883D01*
X176046370Y-53541882D01*
X176087829Y-53529444D01*
X176158825Y-53529028D01*
X176213131Y-53561035D01*
X180365595Y-57713499D01*
X180399621Y-57775811D01*
X180402500Y-57802594D01*
X180402500Y-61030101D01*
X180382498Y-61098222D01*
X180342803Y-61137245D01*
X180311652Y-61156522D01*
X180186695Y-61281697D01*
X180184094Y-61285916D01*
X180126970Y-61326417D01*
X180056047Y-61329649D01*
X179994635Y-61294024D01*
X179988078Y-61286470D01*
X179984478Y-61280652D01*
X179859303Y-61155695D01*
X179853072Y-61151854D01*
X179714968Y-61066725D01*
X179714966Y-61066724D01*
X179708738Y-61062885D01*
X179548254Y-61009655D01*
X179547389Y-61009368D01*
X179547387Y-61009368D01*
X179540861Y-61007203D01*
X179534025Y-61006503D01*
X179534022Y-61006502D01*
X179490969Y-61002091D01*
X179436400Y-60996500D01*
X178835600Y-60996500D01*
X178832354Y-60996837D01*
X178832350Y-60996837D01*
X178736692Y-61006762D01*
X178736688Y-61006763D01*
X178729834Y-61007474D01*
X178723298Y-61009655D01*
X178723296Y-61009655D01*
X178591194Y-61053728D01*
X178562054Y-61063450D01*
X178411652Y-61156522D01*
X178286695Y-61281697D01*
X178193885Y-61432262D01*
X178166852Y-61513763D01*
X178164728Y-61520168D01*
X178124297Y-61578527D01*
X178058733Y-61605764D01*
X178045135Y-61606500D01*
X175619731Y-61606500D01*
X175551610Y-61586498D01*
X175516518Y-61552770D01*
X175493690Y-61520168D01*
X175442681Y-61447319D01*
X175290681Y-61295319D01*
X175114597Y-61172024D01*
X175109619Y-61169703D01*
X175109616Y-61169701D01*
X174925656Y-61083919D01*
X174872371Y-61037002D01*
X174852910Y-60968724D01*
X174873452Y-60900764D01*
X174925656Y-60855529D01*
X175109359Y-60769868D01*
X175118854Y-60764385D01*
X175153607Y-60740051D01*
X175161983Y-60729572D01*
X175154916Y-60716127D01*
X174510811Y-60072021D01*
X174496868Y-60064408D01*
X174495034Y-60064539D01*
X174488420Y-60068790D01*
X173840360Y-60716851D01*
X173833933Y-60728621D01*
X173843227Y-60740635D01*
X173877146Y-60764385D01*
X173886641Y-60769868D01*
X174070344Y-60855529D01*
X174123629Y-60902446D01*
X174143090Y-60970723D01*
X174122548Y-61038683D01*
X174070344Y-61083919D01*
X173886385Y-61169701D01*
X173886382Y-61169703D01*
X173881404Y-61172024D01*
X173705319Y-61295319D01*
X173553319Y-61447319D01*
X173430024Y-61623404D01*
X173427703Y-61628382D01*
X173427701Y-61628385D01*
X173341501Y-61813241D01*
X173339178Y-61818223D01*
X173283542Y-62025858D01*
X173264807Y-62240000D01*
X173283542Y-62454142D01*
X173339178Y-62661777D01*
X173341500Y-62666757D01*
X173341501Y-62666759D01*
X173384327Y-62758598D01*
X173430024Y-62856596D01*
X173553319Y-63032681D01*
X173705319Y-63184681D01*
X173881403Y-63307976D01*
X173886381Y-63310297D01*
X173886384Y-63310299D01*
X174069753Y-63395805D01*
X174123038Y-63442722D01*
X174142499Y-63511000D01*
X174121957Y-63578959D01*
X174069753Y-63624195D01*
X173886385Y-63709701D01*
X173886382Y-63709703D01*
X173881404Y-63712024D01*
X173705319Y-63835319D01*
X173553319Y-63987319D01*
X173430024Y-64163404D01*
X173427703Y-64168382D01*
X173427701Y-64168385D01*
X173341501Y-64353241D01*
X173339178Y-64358223D01*
X173283542Y-64565858D01*
X173264807Y-64780000D01*
X173283542Y-64994142D01*
X173339178Y-65201777D01*
X173341500Y-65206757D01*
X173341501Y-65206759D01*
X173384327Y-65298598D01*
X173430024Y-65396596D01*
X173553319Y-65572681D01*
X173705319Y-65724681D01*
X173881403Y-65847976D01*
X173886381Y-65850297D01*
X173886384Y-65850299D01*
X174063081Y-65932694D01*
X174076223Y-65938822D01*
X174081531Y-65940244D01*
X174081533Y-65940245D01*
X174278543Y-65993034D01*
X174278545Y-65993034D01*
X174283858Y-65994458D01*
X174498000Y-66013193D01*
X174712142Y-65994458D01*
X174717455Y-65993034D01*
X174717457Y-65993034D01*
X174914467Y-65940245D01*
X174914469Y-65940244D01*
X174919777Y-65938822D01*
X174932919Y-65932694D01*
X175109616Y-65850299D01*
X175109619Y-65850297D01*
X175114597Y-65847976D01*
X175290681Y-65724681D01*
X175442681Y-65572681D01*
X175516518Y-65467230D01*
X175571975Y-65422901D01*
X175619731Y-65413500D01*
X178051798Y-65413500D01*
X178119919Y-65433502D01*
X178166412Y-65487158D01*
X178171321Y-65499623D01*
X178191729Y-65560791D01*
X178194450Y-65568946D01*
X178287522Y-65719348D01*
X178412697Y-65844305D01*
X178418927Y-65848145D01*
X178418928Y-65848146D01*
X178556090Y-65932694D01*
X178563262Y-65937115D01*
X178650819Y-65966156D01*
X178677105Y-65974875D01*
X178735464Y-66015306D01*
X178762701Y-66080870D01*
X178750167Y-66150752D01*
X178726532Y-66183563D01*
X178016500Y-66893595D01*
X177954188Y-66927621D01*
X177927405Y-66930500D01*
X172290767Y-66930500D01*
X172279584Y-66929973D01*
X172272091Y-66928298D01*
X172264165Y-66928547D01*
X172264164Y-66928547D01*
X172204001Y-66930438D01*
X172200043Y-66930500D01*
X172172144Y-66930500D01*
X172168154Y-66931004D01*
X172156320Y-66931936D01*
X172112111Y-66933326D01*
X172104497Y-66935538D01*
X172104492Y-66935539D01*
X172092659Y-66938977D01*
X172073296Y-66942988D01*
X172053203Y-66945526D01*
X172045836Y-66948443D01*
X172045831Y-66948444D01*
X172012092Y-66961802D01*
X172000865Y-66965646D01*
X171958407Y-66977982D01*
X171951581Y-66982019D01*
X171940972Y-66988293D01*
X171923224Y-66996988D01*
X171904383Y-67004448D01*
X171897967Y-67009110D01*
X171897966Y-67009110D01*
X171868613Y-67030436D01*
X171858693Y-67036952D01*
X171827465Y-67055420D01*
X171827462Y-67055422D01*
X171820638Y-67059458D01*
X171806317Y-67073779D01*
X171791284Y-67086619D01*
X171774893Y-67098528D01*
X171769842Y-67104634D01*
X171746702Y-67132605D01*
X171738712Y-67141384D01*
X169787747Y-69092348D01*
X169779461Y-69099888D01*
X169772982Y-69104000D01*
X169767557Y-69109777D01*
X169726357Y-69153651D01*
X169723602Y-69156493D01*
X169703865Y-69176230D01*
X169701385Y-69179427D01*
X169693682Y-69188447D01*
X169663414Y-69220679D01*
X169659595Y-69227625D01*
X169659593Y-69227628D01*
X169653652Y-69238434D01*
X169642801Y-69254953D01*
X169630386Y-69270959D01*
X169627241Y-69278228D01*
X169627238Y-69278232D01*
X169612826Y-69311537D01*
X169607609Y-69322187D01*
X169586305Y-69360940D01*
X169584334Y-69368615D01*
X169584334Y-69368616D01*
X169581267Y-69380562D01*
X169574863Y-69399266D01*
X169566819Y-69417855D01*
X169565580Y-69425678D01*
X169565577Y-69425688D01*
X169559901Y-69461524D01*
X169557495Y-69473144D01*
X169546500Y-69515970D01*
X169546500Y-69536224D01*
X169544949Y-69555934D01*
X169541780Y-69575943D01*
X169542526Y-69583835D01*
X169545941Y-69619961D01*
X169546500Y-69631819D01*
X169546500Y-77137233D01*
X169545973Y-77148416D01*
X169544298Y-77155909D01*
X169544547Y-77163835D01*
X169544547Y-77163836D01*
X169546438Y-77223986D01*
X169546500Y-77227945D01*
X169546500Y-77255856D01*
X169546997Y-77259790D01*
X169546997Y-77259791D01*
X169547005Y-77259856D01*
X169547938Y-77271693D01*
X169549327Y-77315889D01*
X169554978Y-77335339D01*
X169558987Y-77354700D01*
X169561526Y-77374797D01*
X169564445Y-77382168D01*
X169564445Y-77382170D01*
X169577804Y-77415912D01*
X169581649Y-77427142D01*
X169593982Y-77469593D01*
X169598015Y-77476412D01*
X169598017Y-77476417D01*
X169604293Y-77487028D01*
X169612988Y-77504776D01*
X169620448Y-77523617D01*
X169625110Y-77530033D01*
X169625110Y-77530034D01*
X169646436Y-77559387D01*
X169652952Y-77569307D01*
X169675458Y-77607362D01*
X169689779Y-77621683D01*
X169702619Y-77636716D01*
X169714528Y-77653107D01*
X169720634Y-77658158D01*
X169748605Y-77681298D01*
X169757384Y-77689288D01*
X172340595Y-80272500D01*
X172374621Y-80334812D01*
X172377500Y-80361595D01*
X172377500Y-81680134D01*
X172384255Y-81742316D01*
X172435385Y-81878705D01*
X172522739Y-81995261D01*
X172639295Y-82082615D01*
X172647704Y-82085767D01*
X172647705Y-82085768D01*
X172756451Y-82126535D01*
X172813216Y-82169176D01*
X172837916Y-82235738D01*
X172822709Y-82305087D01*
X172803316Y-82331568D01*
X172676629Y-82464138D01*
X172550743Y-82648680D01*
X172503715Y-82749993D01*
X172478531Y-82804249D01*
X172456688Y-82851305D01*
X172396989Y-83066570D01*
X172373251Y-83288695D01*
X172373548Y-83293848D01*
X172373548Y-83293851D01*
X172380466Y-83413829D01*
X172386110Y-83511715D01*
X172387247Y-83516761D01*
X172387248Y-83516767D01*
X172407119Y-83604939D01*
X172435222Y-83729639D01*
X172473461Y-83823811D01*
X172516322Y-83929365D01*
X172519266Y-83936616D01*
X172545297Y-83979095D01*
X172615276Y-84093290D01*
X172635987Y-84127088D01*
X172782250Y-84295938D01*
X172954126Y-84438632D01*
X173013796Y-84473500D01*
X173027445Y-84481476D01*
X173076169Y-84533114D01*
X173089240Y-84602897D01*
X173062509Y-84668669D01*
X173022055Y-84702027D01*
X173009607Y-84708507D01*
X173005474Y-84711610D01*
X173005471Y-84711612D01*
X172934461Y-84764928D01*
X172830965Y-84842635D01*
X172676629Y-85004138D01*
X172673715Y-85008410D01*
X172673714Y-85008411D01*
X172588556Y-85133249D01*
X172550743Y-85188680D01*
X172533596Y-85225621D01*
X172488756Y-85322221D01*
X172456688Y-85391305D01*
X172396989Y-85606570D01*
X172373251Y-85828695D01*
X172373548Y-85833848D01*
X172373548Y-85833851D01*
X172382894Y-85995933D01*
X172386110Y-86051715D01*
X172387247Y-86056761D01*
X172387248Y-86056767D01*
X172392425Y-86079738D01*
X172435222Y-86269639D01*
X172519266Y-86476616D01*
X172549806Y-86526453D01*
X172631832Y-86660307D01*
X172635987Y-86667088D01*
X172782250Y-86835938D01*
X172954126Y-86978632D01*
X173018130Y-87016033D01*
X173027955Y-87021774D01*
X173076679Y-87073412D01*
X173089750Y-87143195D01*
X173063019Y-87208967D01*
X173022562Y-87242327D01*
X173014457Y-87246546D01*
X173005738Y-87252036D01*
X172835433Y-87379905D01*
X172827726Y-87386748D01*
X172680590Y-87540717D01*
X172674104Y-87548727D01*
X172554098Y-87724649D01*
X172549000Y-87733623D01*
X172459338Y-87926783D01*
X172455775Y-87936470D01*
X172400389Y-88136183D01*
X172401912Y-88144607D01*
X172414292Y-88148000D01*
X175054344Y-88148000D01*
X175067875Y-88144027D01*
X175069180Y-88134947D01*
X175027214Y-87967875D01*
X175023894Y-87958124D01*
X174938972Y-87762814D01*
X174934105Y-87753739D01*
X174818426Y-87574926D01*
X174812136Y-87566757D01*
X174668806Y-87409240D01*
X174661273Y-87402215D01*
X174494139Y-87270222D01*
X174485556Y-87264520D01*
X174448602Y-87244120D01*
X174398631Y-87193687D01*
X174383859Y-87124245D01*
X174408975Y-87057839D01*
X174436327Y-87031232D01*
X174459797Y-87014491D01*
X174615860Y-86903173D01*
X174624280Y-86894783D01*
X174770435Y-86749137D01*
X174774096Y-86745489D01*
X174833594Y-86662689D01*
X174901435Y-86568277D01*
X174904453Y-86564077D01*
X174906746Y-86559437D01*
X174908446Y-86556608D01*
X174960674Y-86508518D01*
X175016451Y-86495500D01*
X176548771Y-86495500D01*
X176616892Y-86515502D01*
X176624915Y-86521175D01*
X176630193Y-86526453D01*
X176773399Y-86611145D01*
X176781010Y-86613356D01*
X176781012Y-86613357D01*
X176833231Y-86628528D01*
X176933169Y-86657562D01*
X176939574Y-86658066D01*
X176939579Y-86658067D01*
X176968042Y-86660307D01*
X176968050Y-86660307D01*
X176970498Y-86660500D01*
X178127500Y-86660500D01*
X178195621Y-86680502D01*
X178242114Y-86734158D01*
X178253500Y-86786500D01*
X178253500Y-87018502D01*
X178253693Y-87020950D01*
X178253693Y-87020958D01*
X178253758Y-87021774D01*
X178256438Y-87055831D01*
X178302855Y-87215601D01*
X178312082Y-87231203D01*
X178383509Y-87351980D01*
X178383511Y-87351983D01*
X178387547Y-87358807D01*
X178505193Y-87476453D01*
X178512017Y-87480489D01*
X178512020Y-87480491D01*
X178613857Y-87540717D01*
X178648399Y-87561145D01*
X178656010Y-87563356D01*
X178656012Y-87563357D01*
X178695834Y-87574926D01*
X178808169Y-87607562D01*
X178814574Y-87608066D01*
X178814579Y-87608067D01*
X178843042Y-87610307D01*
X178843050Y-87610307D01*
X178845498Y-87610500D01*
X180153502Y-87610500D01*
X180155950Y-87610307D01*
X180155958Y-87610307D01*
X180184421Y-87608067D01*
X180184426Y-87608066D01*
X180190831Y-87607562D01*
X180303166Y-87574926D01*
X180342988Y-87563357D01*
X180342990Y-87563356D01*
X180350601Y-87561145D01*
X180385143Y-87540717D01*
X180486980Y-87480491D01*
X180486983Y-87480489D01*
X180493807Y-87476453D01*
X180499416Y-87470844D01*
X180505675Y-87465989D01*
X180506844Y-87467496D01*
X180560167Y-87438379D01*
X180586950Y-87435500D01*
X181633906Y-87435500D01*
X181702027Y-87455502D01*
X181723001Y-87472405D01*
X182142595Y-87891999D01*
X182176621Y-87954311D01*
X182179500Y-87981094D01*
X182179500Y-88554400D01*
X182190474Y-88660166D01*
X182192655Y-88666702D01*
X182192655Y-88666704D01*
X182210309Y-88719620D01*
X182246450Y-88827946D01*
X182339522Y-88978348D01*
X182344704Y-88983521D01*
X182426109Y-89064784D01*
X182460188Y-89127066D01*
X182455185Y-89197886D01*
X182426264Y-89242975D01*
X182388340Y-89280965D01*
X182338695Y-89330697D01*
X182334855Y-89336927D01*
X182334854Y-89336928D01*
X182270220Y-89441784D01*
X182245885Y-89481262D01*
X182190203Y-89649139D01*
X182179500Y-89753600D01*
X182179500Y-90379400D01*
X182179837Y-90382646D01*
X182179837Y-90382650D01*
X182186083Y-90442843D01*
X182190474Y-90485166D01*
X182246450Y-90652946D01*
X182339522Y-90803348D01*
X182344704Y-90808521D01*
X182371669Y-90835439D01*
X182464697Y-90928305D01*
X182470927Y-90932145D01*
X182470928Y-90932146D01*
X182608090Y-91016694D01*
X182615262Y-91021115D01*
X182664417Y-91037419D01*
X182688168Y-91045297D01*
X182746528Y-91085728D01*
X182773764Y-91151293D01*
X182774500Y-91164890D01*
X182774500Y-91591692D01*
X182754498Y-91659813D01*
X182706683Y-91703453D01*
X182681607Y-91716507D01*
X182677474Y-91719610D01*
X182677471Y-91719612D01*
X182507100Y-91847530D01*
X182502965Y-91850635D01*
X182348629Y-92012138D01*
X182241201Y-92169621D01*
X182186293Y-92214621D01*
X182115768Y-92222792D01*
X182052021Y-92191538D01*
X182031324Y-92167054D01*
X181950822Y-92042617D01*
X181950820Y-92042614D01*
X181948014Y-92038277D01*
X181797670Y-91873051D01*
X181793619Y-91869852D01*
X181793615Y-91869848D01*
X181626414Y-91737800D01*
X181626410Y-91737798D01*
X181622359Y-91734598D01*
X181617831Y-91732098D01*
X181530762Y-91684034D01*
X181426789Y-91626638D01*
X181421920Y-91624914D01*
X181421916Y-91624912D01*
X181221087Y-91553795D01*
X181221083Y-91553794D01*
X181216212Y-91552069D01*
X181211119Y-91551162D01*
X181211116Y-91551161D01*
X181001373Y-91513800D01*
X181001367Y-91513799D01*
X180996284Y-91512894D01*
X180922452Y-91511992D01*
X180778081Y-91510228D01*
X180778079Y-91510228D01*
X180772911Y-91510165D01*
X180552091Y-91543955D01*
X180339756Y-91613357D01*
X180262853Y-91653390D01*
X180165975Y-91703822D01*
X180141607Y-91716507D01*
X180137474Y-91719610D01*
X180137471Y-91719612D01*
X179967100Y-91847530D01*
X179962965Y-91850635D01*
X179808629Y-92012138D01*
X179701201Y-92169621D01*
X179646293Y-92214621D01*
X179575768Y-92222792D01*
X179512021Y-92191538D01*
X179491324Y-92167054D01*
X179410822Y-92042617D01*
X179410820Y-92042614D01*
X179408014Y-92038277D01*
X179257670Y-91873051D01*
X179253619Y-91869852D01*
X179253615Y-91869848D01*
X179086414Y-91737800D01*
X179086410Y-91737798D01*
X179082359Y-91734598D01*
X179077831Y-91732098D01*
X178990762Y-91684034D01*
X178886789Y-91626638D01*
X178881920Y-91624914D01*
X178881916Y-91624912D01*
X178681087Y-91553795D01*
X178681083Y-91553794D01*
X178676212Y-91552069D01*
X178671119Y-91551162D01*
X178671116Y-91551161D01*
X178461373Y-91513800D01*
X178461367Y-91513799D01*
X178456284Y-91512894D01*
X178382452Y-91511992D01*
X178238081Y-91510228D01*
X178238079Y-91510228D01*
X178232911Y-91510165D01*
X178012091Y-91543955D01*
X177799756Y-91613357D01*
X177722853Y-91653390D01*
X177625975Y-91703822D01*
X177601607Y-91716507D01*
X177597474Y-91719610D01*
X177597471Y-91719612D01*
X177427100Y-91847530D01*
X177422965Y-91850635D01*
X177268629Y-92012138D01*
X177161201Y-92169621D01*
X177106293Y-92214621D01*
X177035768Y-92222792D01*
X176972021Y-92191538D01*
X176951324Y-92167054D01*
X176870822Y-92042617D01*
X176870820Y-92042614D01*
X176868014Y-92038277D01*
X176717670Y-91873051D01*
X176713619Y-91869852D01*
X176713615Y-91869848D01*
X176546414Y-91737800D01*
X176546410Y-91737798D01*
X176542359Y-91734598D01*
X176537831Y-91732098D01*
X176450762Y-91684034D01*
X176346789Y-91626638D01*
X176341920Y-91624914D01*
X176341916Y-91624912D01*
X176141087Y-91553795D01*
X176141083Y-91553794D01*
X176136212Y-91552069D01*
X176131119Y-91551162D01*
X176131116Y-91551161D01*
X175921373Y-91513800D01*
X175921367Y-91513799D01*
X175916284Y-91512894D01*
X175842452Y-91511992D01*
X175698081Y-91510228D01*
X175698079Y-91510228D01*
X175692911Y-91510165D01*
X175472091Y-91543955D01*
X175259756Y-91613357D01*
X175182853Y-91653390D01*
X175085975Y-91703822D01*
X175061607Y-91716507D01*
X175057474Y-91719610D01*
X175057471Y-91719612D01*
X174887100Y-91847530D01*
X174882965Y-91850635D01*
X174728629Y-92012138D01*
X174621201Y-92169621D01*
X174566293Y-92214621D01*
X174495768Y-92222792D01*
X174432021Y-92191538D01*
X174411324Y-92167054D01*
X174330822Y-92042617D01*
X174330820Y-92042614D01*
X174328014Y-92038277D01*
X174177670Y-91873051D01*
X174173619Y-91869852D01*
X174173615Y-91869848D01*
X174006414Y-91737800D01*
X174006410Y-91737798D01*
X174002359Y-91734598D01*
X173997831Y-91732098D01*
X173910762Y-91684034D01*
X173806789Y-91626638D01*
X173801920Y-91624914D01*
X173801916Y-91624912D01*
X173601087Y-91553795D01*
X173601083Y-91553794D01*
X173596212Y-91552069D01*
X173591119Y-91551162D01*
X173591116Y-91551161D01*
X173381373Y-91513800D01*
X173381367Y-91513799D01*
X173376284Y-91512894D01*
X173302452Y-91511992D01*
X173158081Y-91510228D01*
X173158079Y-91510228D01*
X173152911Y-91510165D01*
X172932091Y-91543955D01*
X172719756Y-91613357D01*
X172642853Y-91653390D01*
X172545975Y-91703822D01*
X172521607Y-91716507D01*
X172517474Y-91719610D01*
X172517471Y-91719612D01*
X172347100Y-91847530D01*
X172342965Y-91850635D01*
X172188629Y-92012138D01*
X172081201Y-92169621D01*
X172026293Y-92214621D01*
X171955768Y-92222792D01*
X171892021Y-92191538D01*
X171871324Y-92167054D01*
X171790822Y-92042617D01*
X171790820Y-92042614D01*
X171788014Y-92038277D01*
X171637670Y-91873051D01*
X171633619Y-91869852D01*
X171633615Y-91869848D01*
X171466414Y-91737800D01*
X171466410Y-91737798D01*
X171462359Y-91734598D01*
X171457831Y-91732098D01*
X171370762Y-91684034D01*
X171266789Y-91626638D01*
X171261920Y-91624914D01*
X171261916Y-91624912D01*
X171061087Y-91553795D01*
X171061083Y-91553794D01*
X171056212Y-91552069D01*
X171051119Y-91551162D01*
X171051116Y-91551161D01*
X170841373Y-91513800D01*
X170841367Y-91513799D01*
X170836284Y-91512894D01*
X170762452Y-91511992D01*
X170618081Y-91510228D01*
X170618079Y-91510228D01*
X170612911Y-91510165D01*
X170392091Y-91543955D01*
X170179756Y-91613357D01*
X170102853Y-91653390D01*
X170005975Y-91703822D01*
X169981607Y-91716507D01*
X169977474Y-91719610D01*
X169977471Y-91719612D01*
X169807100Y-91847530D01*
X169802965Y-91850635D01*
X169648629Y-92012138D01*
X169522743Y-92196680D01*
X169507003Y-92230590D01*
X169435133Y-92385421D01*
X169428688Y-92399305D01*
X169368989Y-92614570D01*
X169345251Y-92836695D01*
X169345548Y-92841848D01*
X169345548Y-92841851D01*
X169351011Y-92936590D01*
X169358110Y-93059715D01*
X169359247Y-93064761D01*
X169359248Y-93064767D01*
X169370031Y-93112614D01*
X169407222Y-93277639D01*
X169491266Y-93484616D01*
X169542019Y-93567438D01*
X169605291Y-93670688D01*
X169607987Y-93675088D01*
X169754250Y-93843938D01*
X169758230Y-93847242D01*
X169762981Y-93851187D01*
X169802616Y-93910090D01*
X169804113Y-93981071D01*
X169766997Y-94041593D01*
X169726725Y-94066112D01*
X169657485Y-94092069D01*
X169611295Y-94109385D01*
X169494739Y-94196739D01*
X169407385Y-94313295D01*
X169356255Y-94449684D01*
X169349500Y-94511866D01*
X169349500Y-96175500D01*
X169329498Y-96243621D01*
X169275842Y-96290114D01*
X169223500Y-96301500D01*
X166398826Y-96301500D01*
X166330705Y-96281498D01*
X166284212Y-96227842D01*
X166274108Y-96157568D01*
X166303602Y-96092988D01*
X166335541Y-96066546D01*
X166407729Y-96024616D01*
X166501601Y-95970091D01*
X166762245Y-95773324D01*
X166997363Y-95546670D01*
X167108630Y-95410000D01*
X167201155Y-95296351D01*
X167201158Y-95296347D01*
X167203549Y-95293410D01*
X167377815Y-95017215D01*
X167517638Y-94722084D01*
X167521797Y-94709618D01*
X167619790Y-94415897D01*
X167619792Y-94415891D01*
X167620992Y-94412293D01*
X167686381Y-94092329D01*
X167687063Y-94083955D01*
X167704798Y-93865899D01*
X167712856Y-93766826D01*
X167713451Y-93710000D01*
X167711582Y-93678990D01*
X167694026Y-93387793D01*
X167694026Y-93387789D01*
X167693798Y-93384015D01*
X167691570Y-93371811D01*
X167635805Y-93066473D01*
X167635804Y-93066469D01*
X167635125Y-93062751D01*
X167627722Y-93038907D01*
X167539404Y-92754477D01*
X167538282Y-92750863D01*
X167404670Y-92452869D01*
X167236226Y-92173084D01*
X167233899Y-92170100D01*
X167233894Y-92170093D01*
X167037726Y-91918558D01*
X167037724Y-91918556D01*
X167035390Y-91915563D01*
X166805070Y-91684034D01*
X166548603Y-91481852D01*
X166269705Y-91311945D01*
X166266261Y-91310379D01*
X166266257Y-91310377D01*
X166129026Y-91247982D01*
X165972414Y-91176775D01*
X165661037Y-91078300D01*
X165369190Y-91023418D01*
X165343809Y-91018645D01*
X165343807Y-91018645D01*
X165340086Y-91017945D01*
X165014208Y-90996586D01*
X165010428Y-90996794D01*
X165010427Y-90996794D01*
X164912897Y-91002162D01*
X164688124Y-91014532D01*
X164684397Y-91015193D01*
X164684393Y-91015193D01*
X164539923Y-91040797D01*
X164366557Y-91071522D01*
X164362941Y-91072624D01*
X164362933Y-91072626D01*
X164057789Y-91165627D01*
X164054167Y-91166731D01*
X163755477Y-91298781D01*
X163730041Y-91313914D01*
X163478074Y-91463817D01*
X163478068Y-91463821D01*
X163474814Y-91465757D01*
X163471812Y-91468073D01*
X163231608Y-91653390D01*
X163216244Y-91665243D01*
X162983513Y-91894347D01*
X162981149Y-91897314D01*
X162981146Y-91897317D01*
X162865362Y-92042617D01*
X162779991Y-92149751D01*
X162739729Y-92215069D01*
X162641760Y-92374004D01*
X162588988Y-92421497D01*
X162518916Y-92432921D01*
X162453793Y-92404647D01*
X162414293Y-92345653D01*
X162408500Y-92307888D01*
X162408500Y-88669966D01*
X172404257Y-88669966D01*
X172434565Y-88804446D01*
X172437645Y-88814275D01*
X172517770Y-89011603D01*
X172522413Y-89020794D01*
X172633694Y-89202388D01*
X172639777Y-89210699D01*
X172779213Y-89371667D01*
X172786580Y-89378883D01*
X172950434Y-89514916D01*
X172958881Y-89520831D01*
X173142756Y-89628279D01*
X173152042Y-89632729D01*
X173351001Y-89708703D01*
X173360899Y-89711579D01*
X173464250Y-89732606D01*
X173478299Y-89731410D01*
X173482000Y-89721065D01*
X173482000Y-89720517D01*
X173990000Y-89720517D01*
X173994064Y-89734359D01*
X174007478Y-89736393D01*
X174014184Y-89735534D01*
X174024262Y-89733392D01*
X174228255Y-89672191D01*
X174237842Y-89668433D01*
X174429095Y-89574739D01*
X174437945Y-89569464D01*
X174611328Y-89445792D01*
X174619200Y-89439139D01*
X174770052Y-89288812D01*
X174776730Y-89280965D01*
X174901003Y-89108020D01*
X174906313Y-89099183D01*
X175000670Y-88908267D01*
X175004469Y-88898672D01*
X175066377Y-88694910D01*
X175068555Y-88684837D01*
X175069986Y-88673962D01*
X175067775Y-88659778D01*
X175054617Y-88656000D01*
X174008115Y-88656000D01*
X173992876Y-88660475D01*
X173991671Y-88661865D01*
X173990000Y-88669548D01*
X173990000Y-89720517D01*
X173482000Y-89720517D01*
X173482000Y-88674115D01*
X173477525Y-88658876D01*
X173476135Y-88657671D01*
X173468452Y-88656000D01*
X172419225Y-88656000D01*
X172405694Y-88659973D01*
X172404257Y-88669966D01*
X162408500Y-88669966D01*
X162408500Y-59705475D01*
X173265788Y-59705475D01*
X173283557Y-59908575D01*
X173285460Y-59919368D01*
X173338226Y-60116295D01*
X173341972Y-60126587D01*
X173428135Y-60311364D01*
X173433613Y-60320850D01*
X173457949Y-60355607D01*
X173468428Y-60363983D01*
X173481872Y-60356917D01*
X174125979Y-59712811D01*
X174132356Y-59701132D01*
X174862408Y-59701132D01*
X174862539Y-59702966D01*
X174866790Y-59709580D01*
X175514851Y-60357640D01*
X175526621Y-60364067D01*
X175538635Y-60354772D01*
X175562387Y-60320850D01*
X175567865Y-60311364D01*
X175654028Y-60126587D01*
X175657774Y-60116295D01*
X175710540Y-59919368D01*
X175712443Y-59908575D01*
X175730212Y-59705475D01*
X175730212Y-59694525D01*
X175712443Y-59491425D01*
X175710540Y-59480632D01*
X175657774Y-59283705D01*
X175654028Y-59273413D01*
X175567865Y-59088636D01*
X175562387Y-59079150D01*
X175538051Y-59044393D01*
X175527572Y-59036017D01*
X175514128Y-59043083D01*
X174870021Y-59687189D01*
X174862408Y-59701132D01*
X174132356Y-59701132D01*
X174133592Y-59698868D01*
X174133461Y-59697034D01*
X174129210Y-59690420D01*
X173481149Y-59042360D01*
X173469379Y-59035933D01*
X173457365Y-59045228D01*
X173433613Y-59079150D01*
X173428135Y-59088636D01*
X173341972Y-59273413D01*
X173338226Y-59283705D01*
X173285460Y-59480632D01*
X173283557Y-59491425D01*
X173265788Y-59694525D01*
X173265788Y-59705475D01*
X162408500Y-59705475D01*
X162408500Y-58670428D01*
X173834017Y-58670428D01*
X173841083Y-58683872D01*
X174485189Y-59327979D01*
X174499132Y-59335592D01*
X174500966Y-59335461D01*
X174507580Y-59331210D01*
X175155640Y-58683149D01*
X175162067Y-58671379D01*
X175152773Y-58659365D01*
X175118854Y-58635615D01*
X175109359Y-58630132D01*
X174924587Y-58543972D01*
X174914295Y-58540226D01*
X174717368Y-58487460D01*
X174706575Y-58485557D01*
X174503475Y-58467788D01*
X174492525Y-58467788D01*
X174289425Y-58485557D01*
X174278632Y-58487460D01*
X174081705Y-58540226D01*
X174071413Y-58543972D01*
X173886636Y-58630135D01*
X173877150Y-58635613D01*
X173842393Y-58659949D01*
X173834017Y-58670428D01*
X162408500Y-58670428D01*
X162408500Y-55309201D01*
X162428502Y-55241080D01*
X162482158Y-55194587D01*
X162552432Y-55184483D01*
X162617012Y-55213977D01*
X162643121Y-55245346D01*
X162747802Y-55423414D01*
X162750103Y-55426429D01*
X162943631Y-55680012D01*
X162943636Y-55680017D01*
X162945931Y-55683025D01*
X163007931Y-55746670D01*
X163157847Y-55900562D01*
X163173814Y-55916953D01*
X163246635Y-55975607D01*
X163425196Y-56119431D01*
X163425201Y-56119435D01*
X163428149Y-56121809D01*
X163705253Y-56294627D01*
X164001112Y-56432903D01*
X164311440Y-56534634D01*
X164315154Y-56535373D01*
X164315155Y-56535373D01*
X164340488Y-56540412D01*
X164631742Y-56598346D01*
X164635514Y-56598633D01*
X164635522Y-56598634D01*
X164953602Y-56622829D01*
X164953607Y-56622829D01*
X164957379Y-56623116D01*
X165283633Y-56608586D01*
X165302174Y-56605500D01*
X165602037Y-56555590D01*
X165602042Y-56555589D01*
X165605778Y-56554967D01*
X165919149Y-56463034D01*
X165922616Y-56461544D01*
X165922620Y-56461543D01*
X166215721Y-56335616D01*
X166215723Y-56335615D01*
X166219205Y-56334119D01*
X166501601Y-56170091D01*
X166762245Y-55973324D01*
X166997363Y-55746670D01*
X167095604Y-55626000D01*
X167201155Y-55496351D01*
X167201158Y-55496347D01*
X167203549Y-55493410D01*
X167327844Y-55296414D01*
X167375788Y-55220428D01*
X167375790Y-55220425D01*
X167377815Y-55217215D01*
X167388536Y-55194587D01*
X167461705Y-55040144D01*
X167517638Y-54922084D01*
X167521952Y-54909153D01*
X167619790Y-54615897D01*
X167619792Y-54615891D01*
X167620992Y-54612293D01*
X167686381Y-54292329D01*
X167687604Y-54277299D01*
X167712674Y-53969061D01*
X167712856Y-53966826D01*
X167713451Y-53910000D01*
X167711510Y-53877796D01*
X167694026Y-53587793D01*
X167694026Y-53587789D01*
X167693798Y-53584015D01*
X167691525Y-53571564D01*
X167635805Y-53266473D01*
X167635804Y-53266469D01*
X167635125Y-53262751D01*
X167630399Y-53247529D01*
X167539404Y-52954477D01*
X167538282Y-52950863D01*
X167404670Y-52652869D01*
X167236226Y-52373084D01*
X167233899Y-52370100D01*
X167233894Y-52370093D01*
X167037726Y-52118558D01*
X167037724Y-52118556D01*
X167035390Y-52115563D01*
X166805070Y-51884034D01*
X166548603Y-51681852D01*
X166545378Y-51679887D01*
X166545366Y-51679879D01*
X166335627Y-51552104D01*
X166287858Y-51499582D01*
X166276069Y-51429571D01*
X166304001Y-51364300D01*
X166362787Y-51324492D01*
X166401181Y-51318500D01*
X169403100Y-51318500D01*
X169471221Y-51338502D01*
G37*
G04 #@! TD.AperFunction*
G04 #@! TA.AperFunction,Conductor*
G36*
X182190026Y-52885144D02*
G01*
X182217875Y-52916994D01*
X182277987Y-53015088D01*
X182424250Y-53183938D01*
X182596126Y-53326632D01*
X182600593Y-53329242D01*
X182682070Y-53376853D01*
X182730794Y-53428491D01*
X182744500Y-53485641D01*
X182744500Y-73035405D01*
X182724498Y-73103526D01*
X182707595Y-73124500D01*
X181410500Y-74421595D01*
X181348188Y-74455621D01*
X181321405Y-74458500D01*
X180735600Y-74458500D01*
X180732354Y-74458837D01*
X180732350Y-74458837D01*
X180636692Y-74468762D01*
X180636688Y-74468763D01*
X180629834Y-74469474D01*
X180623298Y-74471655D01*
X180623296Y-74471655D01*
X180540501Y-74499278D01*
X180462054Y-74525450D01*
X180311652Y-74618522D01*
X180186695Y-74743697D01*
X180184094Y-74747916D01*
X180126970Y-74788417D01*
X180056047Y-74791649D01*
X179994635Y-74756024D01*
X179988078Y-74748470D01*
X179984478Y-74742652D01*
X179859303Y-74617695D01*
X179853072Y-74613854D01*
X179714968Y-74528725D01*
X179714966Y-74528724D01*
X179708738Y-74524885D01*
X179548254Y-74471655D01*
X179547389Y-74471368D01*
X179547387Y-74471368D01*
X179540861Y-74469203D01*
X179534025Y-74468503D01*
X179534022Y-74468502D01*
X179490969Y-74464091D01*
X179436400Y-74458500D01*
X178835600Y-74458500D01*
X178832354Y-74458837D01*
X178832350Y-74458837D01*
X178736692Y-74468762D01*
X178736688Y-74468763D01*
X178729834Y-74469474D01*
X178723298Y-74471655D01*
X178723296Y-74471655D01*
X178640501Y-74499278D01*
X178562054Y-74525450D01*
X178411652Y-74618522D01*
X178286695Y-74743697D01*
X178282855Y-74749927D01*
X178282854Y-74749928D01*
X178224179Y-74845117D01*
X178193885Y-74894262D01*
X178169886Y-74966616D01*
X178164728Y-74982168D01*
X178124297Y-75040527D01*
X178058733Y-75067764D01*
X178045135Y-75068500D01*
X175619731Y-75068500D01*
X175551610Y-75048498D01*
X175516518Y-75014770D01*
X175491165Y-74978562D01*
X175442681Y-74909319D01*
X175290681Y-74757319D01*
X175114597Y-74634024D01*
X175109619Y-74631703D01*
X175109616Y-74631701D01*
X174926247Y-74546195D01*
X174872962Y-74499278D01*
X174853501Y-74431000D01*
X174874043Y-74363041D01*
X174926247Y-74317805D01*
X175109616Y-74232299D01*
X175109619Y-74232297D01*
X175114597Y-74229976D01*
X175290681Y-74106681D01*
X175442681Y-73954681D01*
X175565976Y-73778596D01*
X175588124Y-73731101D01*
X175654499Y-73588759D01*
X175654500Y-73588757D01*
X175656822Y-73583777D01*
X175685002Y-73478611D01*
X175711034Y-73381457D01*
X175711034Y-73381455D01*
X175712458Y-73376142D01*
X175731193Y-73162000D01*
X175712458Y-72947858D01*
X175656822Y-72740223D01*
X175565976Y-72545404D01*
X175442681Y-72369319D01*
X175290681Y-72217319D01*
X175114597Y-72094024D01*
X175109619Y-72091703D01*
X175109616Y-72091701D01*
X174925656Y-72005919D01*
X174872371Y-71959002D01*
X174852910Y-71890724D01*
X174873452Y-71822764D01*
X174925656Y-71777529D01*
X175109359Y-71691868D01*
X175118854Y-71686385D01*
X175153607Y-71662051D01*
X175161983Y-71651572D01*
X175154916Y-71638127D01*
X174510811Y-70994021D01*
X174496868Y-70986408D01*
X174495034Y-70986539D01*
X174488420Y-70990790D01*
X173840360Y-71638851D01*
X173833933Y-71650621D01*
X173843227Y-71662635D01*
X173877146Y-71686385D01*
X173886641Y-71691868D01*
X174070344Y-71777529D01*
X174123629Y-71824446D01*
X174143090Y-71892723D01*
X174122548Y-71960683D01*
X174070344Y-72005919D01*
X173886385Y-72091701D01*
X173886382Y-72091703D01*
X173881404Y-72094024D01*
X173705319Y-72217319D01*
X173553319Y-72369319D01*
X173430024Y-72545404D01*
X173339178Y-72740223D01*
X173283542Y-72947858D01*
X173264807Y-73162000D01*
X173283542Y-73376142D01*
X173284966Y-73381457D01*
X173284967Y-73381460D01*
X173286779Y-73388224D01*
X173285089Y-73459200D01*
X173254167Y-73509929D01*
X172073747Y-74690348D01*
X172065461Y-74697888D01*
X172058982Y-74702000D01*
X172053557Y-74707777D01*
X172012357Y-74751651D01*
X172009602Y-74754493D01*
X171989865Y-74774230D01*
X171987385Y-74777427D01*
X171979682Y-74786447D01*
X171949414Y-74818679D01*
X171945595Y-74825625D01*
X171945593Y-74825628D01*
X171939652Y-74836434D01*
X171928801Y-74852953D01*
X171916386Y-74868959D01*
X171913241Y-74876228D01*
X171913238Y-74876232D01*
X171898826Y-74909537D01*
X171893609Y-74920187D01*
X171872305Y-74958940D01*
X171870334Y-74966615D01*
X171870334Y-74966616D01*
X171867267Y-74978562D01*
X171860863Y-74997266D01*
X171852819Y-75015855D01*
X171851580Y-75023678D01*
X171851577Y-75023688D01*
X171845901Y-75059524D01*
X171843495Y-75071144D01*
X171832500Y-75113970D01*
X171832500Y-75134224D01*
X171830949Y-75153934D01*
X171827780Y-75173943D01*
X171828526Y-75181835D01*
X171831941Y-75217961D01*
X171832500Y-75229819D01*
X171832500Y-76883233D01*
X171831973Y-76894416D01*
X171830298Y-76901909D01*
X171830547Y-76909835D01*
X171830547Y-76909836D01*
X171832438Y-76969986D01*
X171832500Y-76973945D01*
X171832500Y-77001856D01*
X171832997Y-77005790D01*
X171832997Y-77005791D01*
X171833005Y-77005856D01*
X171833938Y-77017693D01*
X171835327Y-77061889D01*
X171840978Y-77081339D01*
X171844987Y-77100700D01*
X171847526Y-77120797D01*
X171850445Y-77128168D01*
X171850445Y-77128170D01*
X171863804Y-77161912D01*
X171867649Y-77173142D01*
X171879982Y-77215593D01*
X171884015Y-77222412D01*
X171884017Y-77222417D01*
X171890293Y-77233028D01*
X171898988Y-77250776D01*
X171906448Y-77269617D01*
X171911110Y-77276033D01*
X171911110Y-77276034D01*
X171932436Y-77305387D01*
X171938952Y-77315307D01*
X171961458Y-77353362D01*
X171975779Y-77367683D01*
X171988619Y-77382716D01*
X172000528Y-77399107D01*
X172006634Y-77404158D01*
X172034605Y-77427298D01*
X172043384Y-77435288D01*
X173816501Y-79208405D01*
X173850527Y-79270717D01*
X173845462Y-79341532D01*
X173802915Y-79398368D01*
X173736395Y-79423179D01*
X173727406Y-79423500D01*
X173335594Y-79423500D01*
X173267473Y-79403498D01*
X173246499Y-79386595D01*
X170850405Y-76990500D01*
X170816379Y-76928188D01*
X170813500Y-76901405D01*
X170813500Y-70627475D01*
X173265788Y-70627475D01*
X173283557Y-70830575D01*
X173285460Y-70841368D01*
X173338226Y-71038295D01*
X173341972Y-71048587D01*
X173428135Y-71233364D01*
X173433613Y-71242850D01*
X173457949Y-71277607D01*
X173468428Y-71285983D01*
X173481872Y-71278917D01*
X174125979Y-70634811D01*
X174132356Y-70623132D01*
X174862408Y-70623132D01*
X174862539Y-70624966D01*
X174866790Y-70631580D01*
X175514851Y-71279640D01*
X175526621Y-71286067D01*
X175538635Y-71276772D01*
X175562387Y-71242850D01*
X175567865Y-71233364D01*
X175654028Y-71048587D01*
X175657774Y-71038295D01*
X175710540Y-70841368D01*
X175712443Y-70830575D01*
X175730212Y-70627475D01*
X175730212Y-70616525D01*
X175712443Y-70413425D01*
X175710540Y-70402632D01*
X175657774Y-70205705D01*
X175654028Y-70195413D01*
X175567865Y-70010636D01*
X175562387Y-70001150D01*
X175538051Y-69966393D01*
X175527572Y-69958017D01*
X175514128Y-69965083D01*
X174870021Y-70609189D01*
X174862408Y-70623132D01*
X174132356Y-70623132D01*
X174133592Y-70620868D01*
X174133461Y-70619034D01*
X174129210Y-70612420D01*
X173481149Y-69964360D01*
X173469379Y-69957933D01*
X173457365Y-69967228D01*
X173433613Y-70001150D01*
X173428135Y-70010636D01*
X173341972Y-70195413D01*
X173338226Y-70205705D01*
X173285460Y-70402632D01*
X173283557Y-70413425D01*
X173265788Y-70616525D01*
X173265788Y-70627475D01*
X170813500Y-70627475D01*
X170813500Y-69910594D01*
X170833502Y-69842473D01*
X170850405Y-69821499D01*
X171079476Y-69592428D01*
X173834017Y-69592428D01*
X173841083Y-69605872D01*
X174485189Y-70249979D01*
X174499132Y-70257592D01*
X174500966Y-70257461D01*
X174507580Y-70253210D01*
X175155640Y-69605149D01*
X175162067Y-69593379D01*
X175152773Y-69581365D01*
X175118854Y-69557615D01*
X175109359Y-69552132D01*
X174924587Y-69465972D01*
X174914295Y-69462226D01*
X174717368Y-69409460D01*
X174706575Y-69407557D01*
X174503475Y-69389788D01*
X174492525Y-69389788D01*
X174289425Y-69407557D01*
X174278632Y-69409460D01*
X174081705Y-69462226D01*
X174071413Y-69465972D01*
X173886636Y-69552135D01*
X173877150Y-69557613D01*
X173842393Y-69581949D01*
X173834017Y-69592428D01*
X171079476Y-69592428D01*
X172437500Y-68234405D01*
X172499812Y-68200379D01*
X172526595Y-68197500D01*
X178163233Y-68197500D01*
X178174416Y-68198027D01*
X178181909Y-68199702D01*
X178189835Y-68199453D01*
X178189836Y-68199453D01*
X178249986Y-68197562D01*
X178253945Y-68197500D01*
X178281856Y-68197500D01*
X178285791Y-68197003D01*
X178285856Y-68196995D01*
X178297693Y-68196062D01*
X178329951Y-68195048D01*
X178333970Y-68194922D01*
X178341889Y-68194673D01*
X178361343Y-68189021D01*
X178380700Y-68185013D01*
X178392930Y-68183468D01*
X178392931Y-68183468D01*
X178400797Y-68182474D01*
X178408168Y-68179555D01*
X178408170Y-68179555D01*
X178441912Y-68166196D01*
X178453142Y-68162351D01*
X178487983Y-68152229D01*
X178487984Y-68152229D01*
X178495593Y-68150018D01*
X178502412Y-68145985D01*
X178502417Y-68145983D01*
X178513028Y-68139707D01*
X178530776Y-68131012D01*
X178549617Y-68123552D01*
X178585387Y-68097564D01*
X178595307Y-68091048D01*
X178626535Y-68072580D01*
X178626538Y-68072578D01*
X178633362Y-68068542D01*
X178647683Y-68054221D01*
X178662717Y-68041380D01*
X178672694Y-68034131D01*
X178679107Y-68029472D01*
X178707298Y-67995395D01*
X178715288Y-67986616D01*
X180661499Y-66040405D01*
X180723811Y-66006379D01*
X180750594Y-66003500D01*
X181336400Y-66003500D01*
X181339646Y-66003163D01*
X181339650Y-66003163D01*
X181435308Y-65993238D01*
X181435312Y-65993237D01*
X181442166Y-65992526D01*
X181448702Y-65990345D01*
X181448704Y-65990345D01*
X181598871Y-65940245D01*
X181609946Y-65936550D01*
X181760348Y-65843478D01*
X181885305Y-65718303D01*
X181978115Y-65567738D01*
X182033797Y-65399861D01*
X182044500Y-65295400D01*
X182044500Y-64244600D01*
X182044163Y-64241350D01*
X182034238Y-64145692D01*
X182034237Y-64145688D01*
X182033526Y-64138834D01*
X182029411Y-64126498D01*
X181979868Y-63978002D01*
X181977550Y-63971054D01*
X181884478Y-63820652D01*
X181759303Y-63695695D01*
X181615969Y-63607342D01*
X181568475Y-63554569D01*
X181557052Y-63484498D01*
X181585326Y-63419374D01*
X181615780Y-63392940D01*
X181760348Y-63303478D01*
X181885305Y-63178303D01*
X181978115Y-63027738D01*
X182033797Y-62859861D01*
X182044500Y-62755400D01*
X182044500Y-61704600D01*
X182044163Y-61701350D01*
X182034238Y-61605692D01*
X182034237Y-61605688D01*
X182033526Y-61598834D01*
X182029411Y-61586498D01*
X181979868Y-61438002D01*
X181977550Y-61431054D01*
X181884478Y-61280652D01*
X181759303Y-61155695D01*
X181729382Y-61137251D01*
X181681890Y-61084478D01*
X181669500Y-61029992D01*
X181669500Y-57566767D01*
X181670027Y-57555584D01*
X181671702Y-57548091D01*
X181669562Y-57480014D01*
X181669500Y-57476055D01*
X181669500Y-57448144D01*
X181668995Y-57444144D01*
X181668062Y-57432301D01*
X181667683Y-57420221D01*
X181666673Y-57388110D01*
X181661022Y-57368658D01*
X181657014Y-57349306D01*
X181655467Y-57337063D01*
X181654474Y-57329203D01*
X181651556Y-57321832D01*
X181638200Y-57288097D01*
X181634355Y-57276870D01*
X181624718Y-57243701D01*
X181622018Y-57234407D01*
X181617984Y-57227585D01*
X181617981Y-57227579D01*
X181611706Y-57216968D01*
X181603010Y-57199218D01*
X181598472Y-57187756D01*
X181598469Y-57187751D01*
X181595552Y-57180383D01*
X181577707Y-57155821D01*
X181569573Y-57144625D01*
X181563057Y-57134707D01*
X181544575Y-57103457D01*
X181540542Y-57096637D01*
X181526218Y-57082313D01*
X181513376Y-57067278D01*
X181513345Y-57067235D01*
X181501472Y-57050893D01*
X181467406Y-57022711D01*
X181458627Y-57014722D01*
X178229318Y-53785413D01*
X178195292Y-53723101D01*
X178200357Y-53652286D01*
X178242904Y-53595450D01*
X178309424Y-53570639D01*
X178323024Y-53570403D01*
X178339698Y-53571015D01*
X178354674Y-53571564D01*
X178354678Y-53571564D01*
X178359837Y-53571753D01*
X178364957Y-53571097D01*
X178364959Y-53571097D01*
X178576288Y-53544025D01*
X178576289Y-53544025D01*
X178581416Y-53543368D01*
X178586369Y-53541882D01*
X178790429Y-53480661D01*
X178790434Y-53480659D01*
X178795384Y-53479174D01*
X178995994Y-53380896D01*
X179177860Y-53251173D01*
X179336096Y-53093489D01*
X179395594Y-53010689D01*
X179466453Y-52912077D01*
X179467776Y-52913028D01*
X179514645Y-52869857D01*
X179584580Y-52857625D01*
X179650026Y-52885144D01*
X179677875Y-52916994D01*
X179737987Y-53015088D01*
X179884250Y-53183938D01*
X180056126Y-53326632D01*
X180249000Y-53439338D01*
X180457692Y-53519030D01*
X180462760Y-53520061D01*
X180462763Y-53520062D01*
X180557862Y-53539410D01*
X180676597Y-53563567D01*
X180681772Y-53563757D01*
X180681774Y-53563757D01*
X180894673Y-53571564D01*
X180894677Y-53571564D01*
X180899837Y-53571753D01*
X180904957Y-53571097D01*
X180904959Y-53571097D01*
X181116288Y-53544025D01*
X181116289Y-53544025D01*
X181121416Y-53543368D01*
X181126369Y-53541882D01*
X181330429Y-53480661D01*
X181330434Y-53480659D01*
X181335384Y-53479174D01*
X181535994Y-53380896D01*
X181717860Y-53251173D01*
X181876096Y-53093489D01*
X181935594Y-53010689D01*
X182006453Y-52912077D01*
X182007776Y-52913028D01*
X182054645Y-52869857D01*
X182124580Y-52857625D01*
X182190026Y-52885144D01*
G37*
G04 #@! TD.AperFunction*
G04 #@! TD*
M02*
