G04 #@! TF.GenerationSoftware,KiCad,Pcbnew,6.0.11*
G04 #@! TF.CreationDate,2026-07-21T19:35:13+03:00*
G04 #@! TF.ProjectId,rns-gate,726e732d-6761-4746-952e-6b696361645f,rev?*
G04 #@! TF.SameCoordinates,Original*
G04 #@! TF.FileFunction,Legend,Top*
G04 #@! TF.FilePolarity,Positive*
%FSLAX46Y46*%
G04 Gerber Fmt 4.6, Leading zero omitted, Abs format (unit mm)*
G04 Created by KiCad (PCBNEW 6.0.11) date 2026-07-21 19:35:13*
%MOMM*%
%LPD*%
G01*
G04 APERTURE LIST*
%ADD10C,0.150000*%
%ADD11C,0.120000*%
G04 APERTURE END LIST*
D10*
X164377619Y-70175809D02*
X164377619Y-70366285D01*
X164330000Y-70461523D01*
X164234761Y-70556761D01*
X164044285Y-70604380D01*
X163710952Y-70604380D01*
X163520476Y-70556761D01*
X163425238Y-70461523D01*
X163377619Y-70366285D01*
X163377619Y-70175809D01*
X163425238Y-70080571D01*
X163520476Y-69985333D01*
X163710952Y-69937714D01*
X164044285Y-69937714D01*
X164234761Y-69985333D01*
X164330000Y-70080571D01*
X164377619Y-70175809D01*
X164044285Y-71461523D02*
X163377619Y-71461523D01*
X164044285Y-71032952D02*
X163520476Y-71032952D01*
X163425238Y-71080571D01*
X163377619Y-71175809D01*
X163377619Y-71318666D01*
X163425238Y-71413904D01*
X163472857Y-71461523D01*
X164044285Y-71794857D02*
X164044285Y-72175809D01*
X164377619Y-71937714D02*
X163520476Y-71937714D01*
X163425238Y-71985333D01*
X163377619Y-72080571D01*
X163377619Y-72175809D01*
X163377619Y-73413904D02*
X163425238Y-73318666D01*
X163520476Y-73271047D01*
X164377619Y-73271047D01*
X163425238Y-74175809D02*
X163377619Y-74080571D01*
X163377619Y-73890095D01*
X163425238Y-73794857D01*
X163520476Y-73747238D01*
X163901428Y-73747238D01*
X163996666Y-73794857D01*
X164044285Y-73890095D01*
X164044285Y-74080571D01*
X163996666Y-74175809D01*
X163901428Y-74223428D01*
X163806190Y-74223428D01*
X163710952Y-73747238D01*
X164044285Y-74556761D02*
X163377619Y-74794857D01*
X164044285Y-75032952D01*
X163425238Y-75794857D02*
X163377619Y-75699619D01*
X163377619Y-75509142D01*
X163425238Y-75413904D01*
X163520476Y-75366285D01*
X163901428Y-75366285D01*
X163996666Y-75413904D01*
X164044285Y-75509142D01*
X164044285Y-75699619D01*
X163996666Y-75794857D01*
X163901428Y-75842476D01*
X163806190Y-75842476D01*
X163710952Y-75366285D01*
X163377619Y-76413904D02*
X163425238Y-76318666D01*
X163520476Y-76271047D01*
X164377619Y-76271047D01*
X163377619Y-59380761D02*
X164377619Y-59380761D01*
X164044285Y-59856952D02*
X163377619Y-59856952D01*
X163949047Y-59856952D02*
X163996666Y-59904571D01*
X164044285Y-59999809D01*
X164044285Y-60142666D01*
X163996666Y-60237904D01*
X163901428Y-60285523D01*
X163377619Y-60285523D01*
X163377619Y-61666476D02*
X163425238Y-61571238D01*
X163520476Y-61523619D01*
X164377619Y-61523619D01*
X163425238Y-62428380D02*
X163377619Y-62333142D01*
X163377619Y-62142666D01*
X163425238Y-62047428D01*
X163520476Y-61999809D01*
X163901428Y-61999809D01*
X163996666Y-62047428D01*
X164044285Y-62142666D01*
X164044285Y-62333142D01*
X163996666Y-62428380D01*
X163901428Y-62476000D01*
X163806190Y-62476000D01*
X163710952Y-61999809D01*
X164044285Y-62809333D02*
X163377619Y-63047428D01*
X164044285Y-63285523D01*
X163425238Y-64047428D02*
X163377619Y-63952190D01*
X163377619Y-63761714D01*
X163425238Y-63666476D01*
X163520476Y-63618857D01*
X163901428Y-63618857D01*
X163996666Y-63666476D01*
X164044285Y-63761714D01*
X164044285Y-63952190D01*
X163996666Y-64047428D01*
X163901428Y-64095047D01*
X163806190Y-64095047D01*
X163710952Y-63618857D01*
X163377619Y-64666476D02*
X163425238Y-64571238D01*
X163520476Y-64523619D01*
X164377619Y-64523619D01*
X164084095Y-87892000D02*
X163988857Y-87844380D01*
X163846000Y-87844380D01*
X163703142Y-87892000D01*
X163607904Y-87987238D01*
X163560285Y-88082476D01*
X163512666Y-88272952D01*
X163512666Y-88415809D01*
X163560285Y-88606285D01*
X163607904Y-88701523D01*
X163703142Y-88796761D01*
X163846000Y-88844380D01*
X163941238Y-88844380D01*
X164084095Y-88796761D01*
X164131714Y-88749142D01*
X164131714Y-88415809D01*
X163941238Y-88415809D01*
X164560285Y-88844380D02*
X164560285Y-87844380D01*
X165131714Y-88844380D01*
X165131714Y-87844380D01*
X165607904Y-88844380D02*
X165607904Y-87844380D01*
X165846000Y-87844380D01*
X165988857Y-87892000D01*
X166084095Y-87987238D01*
X166131714Y-88082476D01*
X166179333Y-88272952D01*
X166179333Y-88415809D01*
X166131714Y-88606285D01*
X166084095Y-88701523D01*
X165988857Y-88796761D01*
X165846000Y-88844380D01*
X165607904Y-88844380D01*
X163465238Y-80938666D02*
X163941428Y-80938666D01*
X163370000Y-81224380D02*
X163703333Y-80224380D01*
X164036666Y-81224380D01*
X164798571Y-80557714D02*
X164798571Y-81224380D01*
X164370000Y-80557714D02*
X164370000Y-81081523D01*
X164417619Y-81176761D01*
X164512857Y-81224380D01*
X164655714Y-81224380D01*
X164750952Y-81176761D01*
X164798571Y-81129142D01*
X165703333Y-81224380D02*
X165703333Y-80224380D01*
X165703333Y-81176761D02*
X165608095Y-81224380D01*
X165417619Y-81224380D01*
X165322380Y-81176761D01*
X165274761Y-81129142D01*
X165227142Y-81033904D01*
X165227142Y-80748190D01*
X165274761Y-80652952D01*
X165322380Y-80605333D01*
X165417619Y-80557714D01*
X165608095Y-80557714D01*
X165703333Y-80605333D01*
X166179523Y-81224380D02*
X166179523Y-80557714D01*
X166179523Y-80224380D02*
X166131904Y-80272000D01*
X166179523Y-80319619D01*
X166227142Y-80272000D01*
X166179523Y-80224380D01*
X166179523Y-80319619D01*
X166798571Y-81224380D02*
X166703333Y-81176761D01*
X166655714Y-81129142D01*
X166608095Y-81033904D01*
X166608095Y-80748190D01*
X166655714Y-80652952D01*
X166703333Y-80605333D01*
X166798571Y-80557714D01*
X166941428Y-80557714D01*
X167036666Y-80605333D01*
X167084285Y-80652952D01*
X167131904Y-80748190D01*
X167131904Y-81033904D01*
X167084285Y-81129142D01*
X167036666Y-81176761D01*
X166941428Y-81224380D01*
X166798571Y-81224380D01*
X168322380Y-81224380D02*
X168322380Y-80557714D01*
X168322380Y-80224380D02*
X168274761Y-80272000D01*
X168322380Y-80319619D01*
X168370000Y-80272000D01*
X168322380Y-80224380D01*
X168322380Y-80319619D01*
X168798571Y-80557714D02*
X168798571Y-81224380D01*
X168798571Y-80652952D02*
X168846190Y-80605333D01*
X168941428Y-80557714D01*
X169084285Y-80557714D01*
X169179523Y-80605333D01*
X169227142Y-80700571D01*
X169227142Y-81224380D01*
X190047619Y-66794952D02*
X190523809Y-66461619D01*
X190047619Y-66223523D02*
X191047619Y-66223523D01*
X191047619Y-66604476D01*
X191000000Y-66699714D01*
X190952380Y-66747333D01*
X190857142Y-66794952D01*
X190714285Y-66794952D01*
X190619047Y-66747333D01*
X190571428Y-66699714D01*
X190523809Y-66604476D01*
X190523809Y-66223523D01*
X190047619Y-67223523D02*
X191047619Y-67223523D01*
X190047619Y-67794952D01*
X191047619Y-67794952D01*
X190095238Y-68223523D02*
X190047619Y-68366380D01*
X190047619Y-68604476D01*
X190095238Y-68699714D01*
X190142857Y-68747333D01*
X190238095Y-68794952D01*
X190333333Y-68794952D01*
X190428571Y-68747333D01*
X190476190Y-68699714D01*
X190523809Y-68604476D01*
X190571428Y-68414000D01*
X190619047Y-68318761D01*
X190666666Y-68271142D01*
X190761904Y-68223523D01*
X190857142Y-68223523D01*
X190952380Y-68271142D01*
X191000000Y-68318761D01*
X191047619Y-68414000D01*
X191047619Y-68652095D01*
X191000000Y-68794952D01*
X190428571Y-69223523D02*
X190428571Y-69985428D01*
X191000000Y-70985428D02*
X191047619Y-70890190D01*
X191047619Y-70747333D01*
X191000000Y-70604476D01*
X190904761Y-70509238D01*
X190809523Y-70461619D01*
X190619047Y-70414000D01*
X190476190Y-70414000D01*
X190285714Y-70461619D01*
X190190476Y-70509238D01*
X190095238Y-70604476D01*
X190047619Y-70747333D01*
X190047619Y-70842571D01*
X190095238Y-70985428D01*
X190142857Y-71033047D01*
X190476190Y-71033047D01*
X190476190Y-70842571D01*
X190047619Y-71890190D02*
X190571428Y-71890190D01*
X190666666Y-71842571D01*
X190714285Y-71747333D01*
X190714285Y-71556857D01*
X190666666Y-71461619D01*
X190095238Y-71890190D02*
X190047619Y-71794952D01*
X190047619Y-71556857D01*
X190095238Y-71461619D01*
X190190476Y-71414000D01*
X190285714Y-71414000D01*
X190380952Y-71461619D01*
X190428571Y-71556857D01*
X190428571Y-71794952D01*
X190476190Y-71890190D01*
X190714285Y-72223523D02*
X190714285Y-72604476D01*
X191047619Y-72366380D02*
X190190476Y-72366380D01*
X190095238Y-72414000D01*
X190047619Y-72509238D01*
X190047619Y-72604476D01*
X190095238Y-73318761D02*
X190047619Y-73223523D01*
X190047619Y-73033047D01*
X190095238Y-72937809D01*
X190190476Y-72890190D01*
X190571428Y-72890190D01*
X190666666Y-72937809D01*
X190714285Y-73033047D01*
X190714285Y-73223523D01*
X190666666Y-73318761D01*
X190571428Y-73366380D01*
X190476190Y-73366380D01*
X190380952Y-72890190D01*
X190047619Y-74985428D02*
X191047619Y-74985428D01*
X190095238Y-74985428D02*
X190047619Y-74890190D01*
X190047619Y-74699714D01*
X190095238Y-74604476D01*
X190142857Y-74556857D01*
X190238095Y-74509238D01*
X190523809Y-74509238D01*
X190619047Y-74556857D01*
X190666666Y-74604476D01*
X190714285Y-74699714D01*
X190714285Y-74890190D01*
X190666666Y-74985428D01*
X190095238Y-75842571D02*
X190047619Y-75747333D01*
X190047619Y-75556857D01*
X190095238Y-75461619D01*
X190190476Y-75414000D01*
X190571428Y-75414000D01*
X190666666Y-75461619D01*
X190714285Y-75556857D01*
X190714285Y-75747333D01*
X190666666Y-75842571D01*
X190571428Y-75890190D01*
X190476190Y-75890190D01*
X190380952Y-75414000D01*
X190047619Y-77652095D02*
X190523809Y-77318761D01*
X190047619Y-77080666D02*
X191047619Y-77080666D01*
X191047619Y-77461619D01*
X191000000Y-77556857D01*
X190952380Y-77604476D01*
X190857142Y-77652095D01*
X190714285Y-77652095D01*
X190619047Y-77604476D01*
X190571428Y-77556857D01*
X190523809Y-77461619D01*
X190523809Y-77080666D01*
X190047619Y-78604476D02*
X190047619Y-78033047D01*
X190047619Y-78318761D02*
X191047619Y-78318761D01*
X190904761Y-78223523D01*
X190809523Y-78128285D01*
X190761904Y-78033047D01*
X190142857Y-79604476D02*
X190095238Y-79556857D01*
X190047619Y-79414000D01*
X190047619Y-79318761D01*
X190095238Y-79175904D01*
X190190476Y-79080666D01*
X190285714Y-79033047D01*
X190476190Y-78985428D01*
X190619047Y-78985428D01*
X190809523Y-79033047D01*
X190904761Y-79080666D01*
X191000000Y-79175904D01*
X191047619Y-79318761D01*
X191047619Y-79414000D01*
X191000000Y-79556857D01*
X190952380Y-79604476D01*
X190571428Y-80366380D02*
X190523809Y-80509238D01*
X190476190Y-80556857D01*
X190380952Y-80604476D01*
X190238095Y-80604476D01*
X190142857Y-80556857D01*
X190095238Y-80509238D01*
X190047619Y-80414000D01*
X190047619Y-80033047D01*
X191047619Y-80033047D01*
X191047619Y-80366380D01*
X191000000Y-80461619D01*
X190952380Y-80509238D01*
X190857142Y-80556857D01*
X190761904Y-80556857D01*
X190666666Y-80509238D01*
X190619047Y-80461619D01*
X190571428Y-80366380D01*
X190571428Y-80033047D01*
X191047619Y-81033047D02*
X190238095Y-81033047D01*
X190142857Y-81080666D01*
X190095238Y-81128285D01*
X190047619Y-81223523D01*
X190047619Y-81414000D01*
X190095238Y-81509238D01*
X190142857Y-81556857D01*
X190238095Y-81604476D01*
X191047619Y-81604476D01*
X163520761Y-86304380D02*
X163520761Y-85304380D01*
X163901714Y-85304380D01*
X163996952Y-85352000D01*
X164044571Y-85399619D01*
X164092190Y-85494857D01*
X164092190Y-85637714D01*
X164044571Y-85732952D01*
X163996952Y-85780571D01*
X163901714Y-85828190D01*
X163520761Y-85828190D01*
X164377904Y-85304380D02*
X164949333Y-85304380D01*
X164663619Y-86304380D02*
X164663619Y-85304380D01*
X165139809Y-85304380D02*
X165711238Y-85304380D01*
X165425523Y-86304380D02*
X165425523Y-85304380D01*
X166949333Y-86304380D02*
X166854095Y-86256761D01*
X166806476Y-86209142D01*
X166758857Y-86113904D01*
X166758857Y-85828190D01*
X166806476Y-85732952D01*
X166854095Y-85685333D01*
X166949333Y-85637714D01*
X167092190Y-85637714D01*
X167187428Y-85685333D01*
X167235047Y-85732952D01*
X167282666Y-85828190D01*
X167282666Y-86113904D01*
X167235047Y-86209142D01*
X167187428Y-86256761D01*
X167092190Y-86304380D01*
X166949333Y-86304380D01*
X168139809Y-85637714D02*
X168139809Y-86304380D01*
X167711238Y-85637714D02*
X167711238Y-86161523D01*
X167758857Y-86256761D01*
X167854095Y-86304380D01*
X167996952Y-86304380D01*
X168092190Y-86256761D01*
X168139809Y-86209142D01*
X168473142Y-85637714D02*
X168854095Y-85637714D01*
X168616000Y-85304380D02*
X168616000Y-86161523D01*
X168663619Y-86256761D01*
X168758857Y-86304380D01*
X168854095Y-86304380D01*
X163473238Y-83478666D02*
X163949428Y-83478666D01*
X163378000Y-83764380D02*
X163711333Y-82764380D01*
X164044666Y-83764380D01*
X164806571Y-83097714D02*
X164806571Y-83764380D01*
X164378000Y-83097714D02*
X164378000Y-83621523D01*
X164425619Y-83716761D01*
X164520857Y-83764380D01*
X164663714Y-83764380D01*
X164758952Y-83716761D01*
X164806571Y-83669142D01*
X165711333Y-83764380D02*
X165711333Y-82764380D01*
X165711333Y-83716761D02*
X165616095Y-83764380D01*
X165425619Y-83764380D01*
X165330380Y-83716761D01*
X165282761Y-83669142D01*
X165235142Y-83573904D01*
X165235142Y-83288190D01*
X165282761Y-83192952D01*
X165330380Y-83145333D01*
X165425619Y-83097714D01*
X165616095Y-83097714D01*
X165711333Y-83145333D01*
X166187523Y-83764380D02*
X166187523Y-83097714D01*
X166187523Y-82764380D02*
X166139904Y-82812000D01*
X166187523Y-82859619D01*
X166235142Y-82812000D01*
X166187523Y-82764380D01*
X166187523Y-82859619D01*
X166806571Y-83764380D02*
X166711333Y-83716761D01*
X166663714Y-83669142D01*
X166616095Y-83573904D01*
X166616095Y-83288190D01*
X166663714Y-83192952D01*
X166711333Y-83145333D01*
X166806571Y-83097714D01*
X166949428Y-83097714D01*
X167044666Y-83145333D01*
X167092285Y-83192952D01*
X167139904Y-83288190D01*
X167139904Y-83573904D01*
X167092285Y-83669142D01*
X167044666Y-83716761D01*
X166949428Y-83764380D01*
X166806571Y-83764380D01*
X168473238Y-83764380D02*
X168378000Y-83716761D01*
X168330380Y-83669142D01*
X168282761Y-83573904D01*
X168282761Y-83288190D01*
X168330380Y-83192952D01*
X168378000Y-83145333D01*
X168473238Y-83097714D01*
X168616095Y-83097714D01*
X168711333Y-83145333D01*
X168758952Y-83192952D01*
X168806571Y-83288190D01*
X168806571Y-83573904D01*
X168758952Y-83669142D01*
X168711333Y-83716761D01*
X168616095Y-83764380D01*
X168473238Y-83764380D01*
X169663714Y-83097714D02*
X169663714Y-83764380D01*
X169235142Y-83097714D02*
X169235142Y-83621523D01*
X169282761Y-83716761D01*
X169378000Y-83764380D01*
X169520857Y-83764380D01*
X169616095Y-83716761D01*
X169663714Y-83669142D01*
X169997047Y-83097714D02*
X170378000Y-83097714D01*
X170139904Y-82764380D02*
X170139904Y-83621523D01*
X170187523Y-83716761D01*
X170282761Y-83764380D01*
X170378000Y-83764380D01*
G04 #@! TO.C,REF1*
X163952380Y-49862380D02*
X163619047Y-49386190D01*
X163380952Y-49862380D02*
X163380952Y-48862380D01*
X163761904Y-48862380D01*
X163857142Y-48910000D01*
X163904761Y-48957619D01*
X163952380Y-49052857D01*
X163952380Y-49195714D01*
X163904761Y-49290952D01*
X163857142Y-49338571D01*
X163761904Y-49386190D01*
X163380952Y-49386190D01*
X164380952Y-49338571D02*
X164714285Y-49338571D01*
X164857142Y-49862380D02*
X164380952Y-49862380D01*
X164380952Y-48862380D01*
X164857142Y-48862380D01*
X165619047Y-49338571D02*
X165285714Y-49338571D01*
X165285714Y-49862380D02*
X165285714Y-48862380D01*
X165761904Y-48862380D01*
X166666666Y-49862380D02*
X166095238Y-49862380D01*
X166380952Y-49862380D02*
X166380952Y-48862380D01*
X166285714Y-49005238D01*
X166190476Y-49100476D01*
X166095238Y-49148095D01*
G04 #@! TO.C,REF2*
X205752380Y-49862380D02*
X205419047Y-49386190D01*
X205180952Y-49862380D02*
X205180952Y-48862380D01*
X205561904Y-48862380D01*
X205657142Y-48910000D01*
X205704761Y-48957619D01*
X205752380Y-49052857D01*
X205752380Y-49195714D01*
X205704761Y-49290952D01*
X205657142Y-49338571D01*
X205561904Y-49386190D01*
X205180952Y-49386190D01*
X206180952Y-49338571D02*
X206514285Y-49338571D01*
X206657142Y-49862380D02*
X206180952Y-49862380D01*
X206180952Y-48862380D01*
X206657142Y-48862380D01*
X207419047Y-49338571D02*
X207085714Y-49338571D01*
X207085714Y-49862380D02*
X207085714Y-48862380D01*
X207561904Y-48862380D01*
X207895238Y-48957619D02*
X207942857Y-48910000D01*
X208038095Y-48862380D01*
X208276190Y-48862380D01*
X208371428Y-48910000D01*
X208419047Y-48957619D01*
X208466666Y-49052857D01*
X208466666Y-49148095D01*
X208419047Y-49290952D01*
X207847619Y-49862380D01*
X208466666Y-49862380D01*
G04 #@! TO.C,REF4*
X205752380Y-89662380D02*
X205419047Y-89186190D01*
X205180952Y-89662380D02*
X205180952Y-88662380D01*
X205561904Y-88662380D01*
X205657142Y-88710000D01*
X205704761Y-88757619D01*
X205752380Y-88852857D01*
X205752380Y-88995714D01*
X205704761Y-89090952D01*
X205657142Y-89138571D01*
X205561904Y-89186190D01*
X205180952Y-89186190D01*
X206180952Y-89138571D02*
X206514285Y-89138571D01*
X206657142Y-89662380D02*
X206180952Y-89662380D01*
X206180952Y-88662380D01*
X206657142Y-88662380D01*
X207419047Y-89138571D02*
X207085714Y-89138571D01*
X207085714Y-89662380D02*
X207085714Y-88662380D01*
X207561904Y-88662380D01*
X208371428Y-88995714D02*
X208371428Y-89662380D01*
X208133333Y-88614761D02*
X207895238Y-89329047D01*
X208514285Y-89329047D01*
G04 #@! TO.C,R6*
X170604380Y-59755066D02*
X170128190Y-60088400D01*
X170604380Y-60326495D02*
X169604380Y-60326495D01*
X169604380Y-59945542D01*
X169652000Y-59850304D01*
X169699619Y-59802685D01*
X169794857Y-59755066D01*
X169937714Y-59755066D01*
X170032952Y-59802685D01*
X170080571Y-59850304D01*
X170128190Y-59945542D01*
X170128190Y-60326495D01*
X169604380Y-58897923D02*
X169604380Y-59088400D01*
X169652000Y-59183638D01*
X169699619Y-59231257D01*
X169842476Y-59326495D01*
X170032952Y-59374114D01*
X170413904Y-59374114D01*
X170509142Y-59326495D01*
X170556761Y-59278876D01*
X170604380Y-59183638D01*
X170604380Y-58993161D01*
X170556761Y-58897923D01*
X170509142Y-58850304D01*
X170413904Y-58802685D01*
X170175809Y-58802685D01*
X170080571Y-58850304D01*
X170032952Y-58897923D01*
X169985333Y-58993161D01*
X169985333Y-59183638D01*
X170032952Y-59278876D01*
X170080571Y-59326495D01*
X170175809Y-59374114D01*
G04 #@! TO.C,R5*
X170604380Y-64073066D02*
X170128190Y-64406400D01*
X170604380Y-64644495D02*
X169604380Y-64644495D01*
X169604380Y-64263542D01*
X169652000Y-64168304D01*
X169699619Y-64120685D01*
X169794857Y-64073066D01*
X169937714Y-64073066D01*
X170032952Y-64120685D01*
X170080571Y-64168304D01*
X170128190Y-64263542D01*
X170128190Y-64644495D01*
X169604380Y-63168304D02*
X169604380Y-63644495D01*
X170080571Y-63692114D01*
X170032952Y-63644495D01*
X169985333Y-63549257D01*
X169985333Y-63311161D01*
X170032952Y-63215923D01*
X170080571Y-63168304D01*
X170175809Y-63120685D01*
X170413904Y-63120685D01*
X170509142Y-63168304D01*
X170556761Y-63215923D01*
X170604380Y-63311161D01*
X170604380Y-63549257D01*
X170556761Y-63644495D01*
X170509142Y-63692114D01*
G04 #@! TO.C,R4*
X170604380Y-71439066D02*
X170128190Y-71772400D01*
X170604380Y-72010495D02*
X169604380Y-72010495D01*
X169604380Y-71629542D01*
X169652000Y-71534304D01*
X169699619Y-71486685D01*
X169794857Y-71439066D01*
X169937714Y-71439066D01*
X170032952Y-71486685D01*
X170080571Y-71534304D01*
X170128190Y-71629542D01*
X170128190Y-72010495D01*
X169937714Y-70581923D02*
X170604380Y-70581923D01*
X169556761Y-70820019D02*
X170271047Y-71058114D01*
X170271047Y-70439066D01*
G04 #@! TO.C,R3*
X170858380Y-75757066D02*
X170382190Y-76090400D01*
X170858380Y-76328495D02*
X169858380Y-76328495D01*
X169858380Y-75947542D01*
X169906000Y-75852304D01*
X169953619Y-75804685D01*
X170048857Y-75757066D01*
X170191714Y-75757066D01*
X170286952Y-75804685D01*
X170334571Y-75852304D01*
X170382190Y-75947542D01*
X170382190Y-76328495D01*
X169858380Y-75423733D02*
X169858380Y-74804685D01*
X170239333Y-75138019D01*
X170239333Y-74995161D01*
X170286952Y-74899923D01*
X170334571Y-74852304D01*
X170429809Y-74804685D01*
X170667904Y-74804685D01*
X170763142Y-74852304D01*
X170810761Y-74899923D01*
X170858380Y-74995161D01*
X170858380Y-75280876D01*
X170810761Y-75376114D01*
X170763142Y-75423733D01*
G04 #@! TO.C,R2*
X185253333Y-85034380D02*
X184920000Y-84558190D01*
X184681904Y-85034380D02*
X184681904Y-84034380D01*
X185062857Y-84034380D01*
X185158095Y-84082000D01*
X185205714Y-84129619D01*
X185253333Y-84224857D01*
X185253333Y-84367714D01*
X185205714Y-84462952D01*
X185158095Y-84510571D01*
X185062857Y-84558190D01*
X184681904Y-84558190D01*
X185634285Y-84129619D02*
X185681904Y-84082000D01*
X185777142Y-84034380D01*
X186015238Y-84034380D01*
X186110476Y-84082000D01*
X186158095Y-84129619D01*
X186205714Y-84224857D01*
X186205714Y-84320095D01*
X186158095Y-84462952D01*
X185586666Y-85034380D01*
X186205714Y-85034380D01*
G04 #@! TO.C,C4*
X183475333Y-76049142D02*
X183427714Y-76096761D01*
X183284857Y-76144380D01*
X183189619Y-76144380D01*
X183046761Y-76096761D01*
X182951523Y-76001523D01*
X182903904Y-75906285D01*
X182856285Y-75715809D01*
X182856285Y-75572952D01*
X182903904Y-75382476D01*
X182951523Y-75287238D01*
X183046761Y-75192000D01*
X183189619Y-75144380D01*
X183284857Y-75144380D01*
X183427714Y-75192000D01*
X183475333Y-75239619D01*
X184332476Y-75477714D02*
X184332476Y-76144380D01*
X184094380Y-75096761D02*
X183856285Y-75811047D01*
X184475333Y-75811047D01*
G04 #@! TO.C,C1*
X183475333Y-65127142D02*
X183427714Y-65174761D01*
X183284857Y-65222380D01*
X183189619Y-65222380D01*
X183046761Y-65174761D01*
X182951523Y-65079523D01*
X182903904Y-64984285D01*
X182856285Y-64793809D01*
X182856285Y-64650952D01*
X182903904Y-64460476D01*
X182951523Y-64365238D01*
X183046761Y-64270000D01*
X183189619Y-64222380D01*
X183284857Y-64222380D01*
X183427714Y-64270000D01*
X183475333Y-64317619D01*
X184427714Y-65222380D02*
X183856285Y-65222380D01*
X184142000Y-65222380D02*
X184142000Y-64222380D01*
X184046761Y-64365238D01*
X183951523Y-64460476D01*
X183856285Y-64508095D01*
G04 #@! TO.C,R1*
X185253333Y-89606380D02*
X184920000Y-89130190D01*
X184681904Y-89606380D02*
X184681904Y-88606380D01*
X185062857Y-88606380D01*
X185158095Y-88654000D01*
X185205714Y-88701619D01*
X185253333Y-88796857D01*
X185253333Y-88939714D01*
X185205714Y-89034952D01*
X185158095Y-89082571D01*
X185062857Y-89130190D01*
X184681904Y-89130190D01*
X186205714Y-89606380D02*
X185634285Y-89606380D01*
X185920000Y-89606380D02*
X185920000Y-88606380D01*
X185824761Y-88749238D01*
X185729523Y-88844476D01*
X185634285Y-88892095D01*
G04 #@! TO.C,C3*
X177605333Y-55881542D02*
X177557714Y-55929161D01*
X177414857Y-55976780D01*
X177319619Y-55976780D01*
X177176761Y-55929161D01*
X177081523Y-55833923D01*
X177033904Y-55738685D01*
X176986285Y-55548209D01*
X176986285Y-55405352D01*
X177033904Y-55214876D01*
X177081523Y-55119638D01*
X177176761Y-55024400D01*
X177319619Y-54976780D01*
X177414857Y-54976780D01*
X177557714Y-55024400D01*
X177605333Y-55072019D01*
X177938666Y-54976780D02*
X178557714Y-54976780D01*
X178224380Y-55357733D01*
X178367238Y-55357733D01*
X178462476Y-55405352D01*
X178510095Y-55452971D01*
X178557714Y-55548209D01*
X178557714Y-55786304D01*
X178510095Y-55881542D01*
X178462476Y-55929161D01*
X178367238Y-55976780D01*
X178081523Y-55976780D01*
X177986285Y-55929161D01*
X177938666Y-55881542D01*
G04 #@! TO.C,Q1*
X178466761Y-89447619D02*
X178371523Y-89400000D01*
X178276285Y-89304761D01*
X178133428Y-89161904D01*
X178038190Y-89114285D01*
X177942952Y-89114285D01*
X177990571Y-89352380D02*
X177895333Y-89304761D01*
X177800095Y-89209523D01*
X177752476Y-89019047D01*
X177752476Y-88685714D01*
X177800095Y-88495238D01*
X177895333Y-88400000D01*
X177990571Y-88352380D01*
X178181047Y-88352380D01*
X178276285Y-88400000D01*
X178371523Y-88495238D01*
X178419142Y-88685714D01*
X178419142Y-89019047D01*
X178371523Y-89209523D01*
X178276285Y-89304761D01*
X178181047Y-89352380D01*
X177990571Y-89352380D01*
X179371523Y-89352380D02*
X178800095Y-89352380D01*
X179085809Y-89352380D02*
X179085809Y-88352380D01*
X178990571Y-88495238D01*
X178895333Y-88590476D01*
X178800095Y-88638095D01*
G04 #@! TO.C,C2*
X183475333Y-62587142D02*
X183427714Y-62634761D01*
X183284857Y-62682380D01*
X183189619Y-62682380D01*
X183046761Y-62634761D01*
X182951523Y-62539523D01*
X182903904Y-62444285D01*
X182856285Y-62253809D01*
X182856285Y-62110952D01*
X182903904Y-61920476D01*
X182951523Y-61825238D01*
X183046761Y-61730000D01*
X183189619Y-61682380D01*
X183284857Y-61682380D01*
X183427714Y-61730000D01*
X183475333Y-61777619D01*
X183856285Y-61777619D02*
X183903904Y-61730000D01*
X183999142Y-61682380D01*
X184237238Y-61682380D01*
X184332476Y-61730000D01*
X184380095Y-61777619D01*
X184427714Y-61872857D01*
X184427714Y-61968095D01*
X184380095Y-62110952D01*
X183808666Y-62682380D01*
X184427714Y-62682380D01*
D11*
G04 #@! TO.C,R6*
X168347000Y-59361336D02*
X168347000Y-59815464D01*
X166877000Y-59361336D02*
X166877000Y-59815464D01*
G04 #@! TO.C,R5*
X168347000Y-63679336D02*
X168347000Y-64133464D01*
X166877000Y-63679336D02*
X166877000Y-64133464D01*
G04 #@! TO.C,R4*
X168347000Y-71045336D02*
X168347000Y-71499464D01*
X166877000Y-71045336D02*
X166877000Y-71499464D01*
G04 #@! TO.C,R3*
X168347000Y-75617336D02*
X168347000Y-76071464D01*
X166877000Y-75617336D02*
X166877000Y-76071464D01*
G04 #@! TO.C,J2*
X170708000Y-96740000D02*
X169378000Y-96740000D01*
X202518000Y-96740000D02*
X202518000Y-91540000D01*
X171978000Y-96740000D02*
X171978000Y-94140000D01*
X169378000Y-94140000D02*
X169378000Y-91540000D01*
X169378000Y-91540000D02*
X202518000Y-91540000D01*
X171978000Y-94140000D02*
X169378000Y-94140000D01*
X169378000Y-96740000D02*
X169378000Y-95410000D01*
X171978000Y-96740000D02*
X202518000Y-96740000D01*
G04 #@! TO.C,J1*
X199888000Y-50880000D02*
X169348000Y-50880000D01*
X169348000Y-50880000D02*
X169348000Y-53540000D01*
X199888000Y-50880000D02*
X199888000Y-53540000D01*
X199888000Y-53540000D02*
X169348000Y-53540000D01*
X201158000Y-50880000D02*
X202488000Y-50880000D01*
X202488000Y-50880000D02*
X202488000Y-52210000D01*
G04 #@! TO.C,J3*
X189419000Y-60258000D02*
X189419000Y-58928000D01*
X192019000Y-60258000D02*
X194619000Y-60258000D01*
X192019000Y-60258000D02*
X192019000Y-57598000D01*
X192019000Y-57598000D02*
X194619000Y-57598000D01*
X190749000Y-60258000D02*
X189419000Y-60258000D01*
X194619000Y-60258000D02*
X194619000Y-57598000D01*
G04 #@! TO.C,RV2*
X177028000Y-57355000D02*
X177028000Y-67125000D01*
X177028000Y-57355000D02*
X171958000Y-57355000D01*
X177028000Y-67125000D02*
X171958000Y-67125000D01*
X171958000Y-57355000D02*
X171958000Y-67125000D01*
G04 #@! TO.C,J5*
X172406000Y-82052000D02*
X172406000Y-89732000D01*
X172406000Y-80782000D02*
X172406000Y-79452000D01*
X172406000Y-89732000D02*
X175066000Y-89732000D01*
X172406000Y-82052000D02*
X175066000Y-82052000D01*
X172406000Y-79452000D02*
X173736000Y-79452000D01*
X175066000Y-82052000D02*
X175066000Y-89732000D01*
G04 #@! TO.C,R2*
X182653000Y-84354936D02*
X182653000Y-84809064D01*
X184123000Y-84354936D02*
X184123000Y-84809064D01*
G04 #@! TO.C,C4*
X179824748Y-76427000D02*
X180347252Y-76427000D01*
X179824748Y-74957000D02*
X180347252Y-74957000D01*
G04 #@! TO.C,C1*
X180347252Y-65505000D02*
X179824748Y-65505000D01*
X180347252Y-64035000D02*
X179824748Y-64035000D01*
G04 #@! TO.C,R1*
X182653000Y-88926936D02*
X182653000Y-89381064D01*
X184123000Y-88926936D02*
X184123000Y-89381064D01*
G04 #@! TO.C,RV1*
X177028000Y-68277000D02*
X171958000Y-68277000D01*
X171958000Y-68277000D02*
X171958000Y-78047000D01*
X177028000Y-78047000D02*
X171958000Y-78047000D01*
X177028000Y-68277000D02*
X177028000Y-78047000D01*
G04 #@! TO.C,C3*
X174505252Y-56107000D02*
X173982748Y-56107000D01*
X174505252Y-54637000D02*
X173982748Y-54637000D01*
G04 #@! TO.C,Q1*
X178562000Y-87412000D02*
X180237000Y-87412000D01*
X178562000Y-87412000D02*
X177912000Y-87412000D01*
X178562000Y-84292000D02*
X177912000Y-84292000D01*
X178562000Y-84292000D02*
X179212000Y-84292000D01*
G04 #@! TO.C,C2*
X179824748Y-62965000D02*
X180347252Y-62965000D01*
X179824748Y-61495000D02*
X180347252Y-61495000D01*
G04 #@! TD*
M02*
