M48
; DRILL file {KiCad 6.0.11} date Вт 21 июл 2026 19:35:18
; FORMAT={-:-/ absolute / metric / decimal}
; #@! TF.CreationDate,2026-07-21T19:35:18+03:00
; #@! TF.GenerationSoftware,Kicad,Pcbnew,6.0.11
; #@! TF.FileFunction,Plated,1,2,PTH
FMAT,2
METRIC
; #@! TA.AperFunction,Plated,PTH,ViaDrill
T1C0.400
; #@! TA.AperFunction,Plated,PTH,ComponentDrill
T2C0.800
; #@! TA.AperFunction,Plated,PTH,ComponentDrill
T3C1.000
%
G90
G05
T1
X169.136Y-74.828
X169.136Y-76.86
T2
X174.498Y-59.7
X174.498Y-62.24
X174.498Y-64.78
X174.498Y-70.622
X174.498Y-73.162
X174.498Y-75.702
T3
X170.678Y-52.21
X170.708Y-92.87
X170.708Y-95.41
X173.218Y-52.21
X173.248Y-92.87
X173.248Y-95.41
X173.736Y-80.782
X173.736Y-83.322
X173.736Y-85.862
X173.736Y-88.402
X175.758Y-52.21
X175.788Y-92.87
X175.788Y-95.41
X178.298Y-52.21
X178.328Y-92.87
X178.328Y-95.41
X180.838Y-52.21
X180.868Y-92.87
X180.868Y-95.41
X183.378Y-52.21
X183.408Y-92.87
X183.408Y-95.41
X185.918Y-52.21
X185.948Y-92.87
X185.948Y-95.41
X188.458Y-52.21
X188.488Y-92.87
X188.488Y-95.41
X190.749Y-58.928
X190.998Y-52.21
X191.028Y-92.87
X191.028Y-95.41
X193.289Y-58.928
X193.538Y-52.21
X193.568Y-92.87
X193.568Y-95.41
X196.078Y-52.21
X196.108Y-92.87
X196.108Y-95.41
X198.618Y-52.21
X198.648Y-92.87
X198.648Y-95.41
X201.158Y-52.21
X201.188Y-92.87
X201.188Y-95.41
T0
M30
