G04 #@! TF.GenerationSoftware,KiCad,Pcbnew,6.0.11*
G04 #@! TF.CreationDate,2026-07-21T19:35:13+03:00*
G04 #@! TF.ProjectId,rns-gate,726e732d-6761-4746-952e-6b696361645f,rev?*
G04 #@! TF.SameCoordinates,Original*
G04 #@! TF.FileFunction,Copper,L2,Bot*
G04 #@! TF.FilePolarity,Positive*
%FSLAX46Y46*%
G04 Gerber Fmt 4.6, Leading zero omitted, Abs format (unit mm)*
G04 Created by KiCad (PCBNEW 6.0.11) date 2026-07-21 19:35:13*
%MOMM*%
%LPD*%
G01*
G04 APERTURE LIST*
G04 #@! TA.AperFunction,ComponentPad*
%ADD10R,1.700000X1.700000*%
G04 #@! TD*
G04 #@! TA.AperFunction,ComponentPad*
%ADD11O,1.700000X1.700000*%
G04 #@! TD*
G04 #@! TA.AperFunction,ComponentPad*
%ADD12C,1.440000*%
G04 #@! TD*
G04 #@! TA.AperFunction,ViaPad*
%ADD13C,0.800000*%
G04 #@! TD*
G04 #@! TA.AperFunction,Conductor*
%ADD14C,0.250000*%
G04 #@! TD*
G04 APERTURE END LIST*
D10*
G04 #@! TO.P,J2,1,Pin_1*
G04 #@! TO.N,unconnected-(J2-Pad1)*
X170708000Y-95410000D03*
D11*
G04 #@! TO.P,J2,2,Pin_2*
G04 #@! TO.N,unconnected-(J2-Pad2)*
X170708000Y-92870000D03*
G04 #@! TO.P,J2,3,Pin_3*
G04 #@! TO.N,unconnected-(J2-Pad3)*
X173248000Y-95410000D03*
G04 #@! TO.P,J2,4,Pin_4*
G04 #@! TO.N,unconnected-(J2-Pad4)*
X173248000Y-92870000D03*
G04 #@! TO.P,J2,5,Pin_5*
G04 #@! TO.N,unconnected-(J2-Pad5)*
X175788000Y-95410000D03*
G04 #@! TO.P,J2,6,Pin_6*
G04 #@! TO.N,unconnected-(J2-Pad6)*
X175788000Y-92870000D03*
G04 #@! TO.P,J2,7,Pin_7*
G04 #@! TO.N,unconnected-(J2-Pad7)*
X178328000Y-95410000D03*
G04 #@! TO.P,J2,8,Pin_8*
G04 #@! TO.N,unconnected-(J2-Pad8)*
X178328000Y-92870000D03*
G04 #@! TO.P,J2,9,Pin_9*
G04 #@! TO.N,unconnected-(J2-Pad9)*
X180868000Y-95410000D03*
G04 #@! TO.P,J2,10,Pin_10*
G04 #@! TO.N,unconnected-(J2-Pad10)*
X180868000Y-92870000D03*
G04 #@! TO.P,J2,11,Pin_11*
G04 #@! TO.N,unconnected-(J2-Pad11)*
X183408000Y-95410000D03*
G04 #@! TO.P,J2,12,Pin_12*
G04 #@! TO.N,Net-(J2-Pad12)*
X183408000Y-92870000D03*
G04 #@! TO.P,J2,13,Pin_13*
G04 #@! TO.N,unconnected-(J2-Pad13)*
X185948000Y-95410000D03*
G04 #@! TO.P,J2,14,Pin_14*
G04 #@! TO.N,GND*
X185948000Y-92870000D03*
G04 #@! TO.P,J2,15,Pin_15*
G04 #@! TO.N,unconnected-(J2-Pad15)*
X188488000Y-95410000D03*
G04 #@! TO.P,J2,16,Pin_16*
G04 #@! TO.N,unconnected-(J2-Pad16)*
X188488000Y-92870000D03*
G04 #@! TO.P,J2,17,Pin_17*
G04 #@! TO.N,unconnected-(J2-Pad17)*
X191028000Y-95410000D03*
G04 #@! TO.P,J2,18,Pin_18*
G04 #@! TO.N,unconnected-(J2-Pad18)*
X191028000Y-92870000D03*
G04 #@! TO.P,J2,19,Pin_19*
G04 #@! TO.N,unconnected-(J2-Pad19)*
X193568000Y-95410000D03*
G04 #@! TO.P,J2,20,Pin_20*
G04 #@! TO.N,unconnected-(J2-Pad20)*
X193568000Y-92870000D03*
G04 #@! TO.P,J2,21,Pin_21*
G04 #@! TO.N,unconnected-(J2-Pad21)*
X196108000Y-95410000D03*
G04 #@! TO.P,J2,22,Pin_22*
G04 #@! TO.N,unconnected-(J2-Pad22)*
X196108000Y-92870000D03*
G04 #@! TO.P,J2,23,Pin_23*
G04 #@! TO.N,unconnected-(J2-Pad23)*
X198648000Y-95410000D03*
G04 #@! TO.P,J2,24,Pin_24*
G04 #@! TO.N,unconnected-(J2-Pad24)*
X198648000Y-92870000D03*
G04 #@! TO.P,J2,25,Pin_25*
G04 #@! TO.N,unconnected-(J2-Pad25)*
X201188000Y-95410000D03*
G04 #@! TO.P,J2,26,Pin_26*
G04 #@! TO.N,unconnected-(J2-Pad26)*
X201188000Y-92870000D03*
G04 #@! TD*
D10*
G04 #@! TO.P,J1,1,Pin_1*
G04 #@! TO.N,+5V*
X201158000Y-52210000D03*
D11*
G04 #@! TO.P,J1,2,Pin_2*
G04 #@! TO.N,GND*
X198618000Y-52210000D03*
G04 #@! TO.P,J1,3,Pin_3*
G04 #@! TO.N,unconnected-(J1-Pad3)*
X196078000Y-52210000D03*
G04 #@! TO.P,J1,4,Pin_4*
G04 #@! TO.N,unconnected-(J1-Pad4)*
X193538000Y-52210000D03*
G04 #@! TO.P,J1,5,Pin_5*
G04 #@! TO.N,unconnected-(J1-Pad5)*
X190998000Y-52210000D03*
G04 #@! TO.P,J1,6,Pin_6*
G04 #@! TO.N,unconnected-(J1-Pad6)*
X188458000Y-52210000D03*
G04 #@! TO.P,J1,7,Pin_7*
G04 #@! TO.N,unconnected-(J1-Pad7)*
X185918000Y-52210000D03*
G04 #@! TO.P,J1,8,Pin_8*
G04 #@! TO.N,Net-(C4-Pad2)*
X183378000Y-52210000D03*
G04 #@! TO.P,J1,9,Pin_9*
G04 #@! TO.N,unconnected-(J1-Pad9)*
X180838000Y-52210000D03*
G04 #@! TO.P,J1,10,Pin_10*
G04 #@! TO.N,unconnected-(J1-Pad10)*
X178298000Y-52210000D03*
G04 #@! TO.P,J1,11,Pin_11*
G04 #@! TO.N,Net-(C2-Pad2)*
X175758000Y-52210000D03*
G04 #@! TO.P,J1,12,Pin_12*
G04 #@! TO.N,Net-(C3-Pad2)*
X173218000Y-52210000D03*
G04 #@! TO.P,J1,13,Pin_13*
G04 #@! TO.N,unconnected-(J1-Pad13)*
X170678000Y-52210000D03*
G04 #@! TD*
D10*
G04 #@! TO.P,J3,1,Pin_1*
G04 #@! TO.N,+5V*
X190749000Y-58928000D03*
D11*
G04 #@! TO.P,J3,2,Pin_2*
G04 #@! TO.N,GND*
X193289000Y-58928000D03*
G04 #@! TD*
D12*
G04 #@! TO.P,RV2,1,1*
G04 #@! TO.N,Net-(RV2-Pad1)*
X174498000Y-64780000D03*
G04 #@! TO.P,RV2,2,2*
G04 #@! TO.N,Net-(C2-Pad1)*
X174498000Y-62240000D03*
G04 #@! TO.P,RV2,3,3*
G04 #@! TO.N,GND*
X174498000Y-59700000D03*
G04 #@! TD*
D10*
G04 #@! TO.P,J5,1,Pin_1*
G04 #@! TO.N,Net-(J5-Pad1)*
X173736000Y-80782000D03*
D11*
G04 #@! TO.P,J5,2,Pin_2*
G04 #@! TO.N,Net-(RV1-Pad2)*
X173736000Y-83322000D03*
G04 #@! TO.P,J5,3,Pin_3*
G04 #@! TO.N,Net-(J5-Pad3)*
X173736000Y-85862000D03*
G04 #@! TO.P,J5,4,Pin_4*
G04 #@! TO.N,GND*
X173736000Y-88402000D03*
G04 #@! TD*
D12*
G04 #@! TO.P,RV1,1,1*
G04 #@! TO.N,Net-(C4-Pad1)*
X174498000Y-75702000D03*
G04 #@! TO.P,RV1,2,2*
G04 #@! TO.N,Net-(RV1-Pad2)*
X174498000Y-73162000D03*
G04 #@! TO.P,RV1,3,3*
G04 #@! TO.N,GND*
X174498000Y-70622000D03*
G04 #@! TD*
D13*
G04 #@! TO.N,Net-(C4-Pad1)*
X169136000Y-76860400D03*
G04 #@! TO.N,Net-(RV1-Pad2)*
X169136000Y-74828400D03*
G04 #@! TD*
D14*
G04 #@! TO.N,Net-(C4-Pad1)*
X169136000Y-76860400D02*
X170294400Y-75702000D01*
X170294400Y-75702000D02*
X174498000Y-75702000D01*
G04 #@! TO.N,Net-(RV1-Pad2)*
X169136000Y-74828400D02*
X170802400Y-73162000D01*
X170802400Y-73162000D02*
X174498000Y-73162000D01*
G04 #@! TD*
G04 #@! TA.AperFunction,Conductor*
G04 #@! TO.N,GND*
G36*
X169471221Y-51338502D02*
G01*
X169517714Y-51392158D01*
X169527818Y-51462432D01*
X169507189Y-51515503D01*
X169492743Y-51536680D01*
X169476148Y-51572431D01*
X169405035Y-51725632D01*
X169398688Y-51739305D01*
X169338989Y-51954570D01*
X169315251Y-52176695D01*
X169315548Y-52181848D01*
X169315548Y-52181851D01*
X169324058Y-52329445D01*
X169328110Y-52399715D01*
X169329247Y-52404761D01*
X169329248Y-52404767D01*
X169346828Y-52482774D01*
X169377222Y-52617639D01*
X169461266Y-52824616D01*
X169512942Y-52908944D01*
X169575291Y-53010688D01*
X169577987Y-53015088D01*
X169724250Y-53183938D01*
X169896126Y-53326632D01*
X170089000Y-53439338D01*
X170297692Y-53519030D01*
X170302760Y-53520061D01*
X170302763Y-53520062D01*
X170397862Y-53539410D01*
X170516597Y-53563567D01*
X170521772Y-53563757D01*
X170521774Y-53563757D01*
X170734673Y-53571564D01*
X170734677Y-53571564D01*
X170739837Y-53571753D01*
X170744957Y-53571097D01*
X170744959Y-53571097D01*
X170956288Y-53544025D01*
X170956289Y-53544025D01*
X170961416Y-53543368D01*
X170966366Y-53541883D01*
X171170429Y-53480661D01*
X171170434Y-53480659D01*
X171175384Y-53479174D01*
X171375994Y-53380896D01*
X171557860Y-53251173D01*
X171716096Y-53093489D01*
X171728139Y-53076730D01*
X171846453Y-52912077D01*
X171847776Y-52913028D01*
X171894645Y-52869857D01*
X171964580Y-52857625D01*
X172030026Y-52885144D01*
X172057875Y-52916994D01*
X172117987Y-53015088D01*
X172264250Y-53183938D01*
X172436126Y-53326632D01*
X172629000Y-53439338D01*
X172837692Y-53519030D01*
X172842760Y-53520061D01*
X172842763Y-53520062D01*
X172937862Y-53539410D01*
X173056597Y-53563567D01*
X173061772Y-53563757D01*
X173061774Y-53563757D01*
X173274673Y-53571564D01*
X173274677Y-53571564D01*
X173279837Y-53571753D01*
X173284957Y-53571097D01*
X173284959Y-53571097D01*
X173496288Y-53544025D01*
X173496289Y-53544025D01*
X173501416Y-53543368D01*
X173506366Y-53541883D01*
X173710429Y-53480661D01*
X173710434Y-53480659D01*
X173715384Y-53479174D01*
X173915994Y-53380896D01*
X174097860Y-53251173D01*
X174256096Y-53093489D01*
X174268139Y-53076730D01*
X174386453Y-52912077D01*
X174387776Y-52913028D01*
X174434645Y-52869857D01*
X174504580Y-52857625D01*
X174570026Y-52885144D01*
X174597875Y-52916994D01*
X174657987Y-53015088D01*
X174804250Y-53183938D01*
X174976126Y-53326632D01*
X175169000Y-53439338D01*
X175377692Y-53519030D01*
X175382760Y-53520061D01*
X175382763Y-53520062D01*
X175477862Y-53539410D01*
X175596597Y-53563567D01*
X175601772Y-53563757D01*
X175601774Y-53563757D01*
X175814673Y-53571564D01*
X175814677Y-53571564D01*
X175819837Y-53571753D01*
X175824957Y-53571097D01*
X175824959Y-53571097D01*
X176036288Y-53544025D01*
X176036289Y-53544025D01*
X176041416Y-53543368D01*
X176046366Y-53541883D01*
X176250429Y-53480661D01*
X176250434Y-53480659D01*
X176255384Y-53479174D01*
X176455994Y-53380896D01*
X176637860Y-53251173D01*
X176796096Y-53093489D01*
X176808139Y-53076730D01*
X176926453Y-52912077D01*
X176927776Y-52913028D01*
X176974645Y-52869857D01*
X177044580Y-52857625D01*
X177110026Y-52885144D01*
X177137875Y-52916994D01*
X177197987Y-53015088D01*
X177344250Y-53183938D01*
X177516126Y-53326632D01*
X177709000Y-53439338D01*
X177917692Y-53519030D01*
X177922760Y-53520061D01*
X177922763Y-53520062D01*
X178017862Y-53539410D01*
X178136597Y-53563567D01*
X178141772Y-53563757D01*
X178141774Y-53563757D01*
X178354673Y-53571564D01*
X178354677Y-53571564D01*
X178359837Y-53571753D01*
X178364957Y-53571097D01*
X178364959Y-53571097D01*
X178576288Y-53544025D01*
X178576289Y-53544025D01*
X178581416Y-53543368D01*
X178586366Y-53541883D01*
X178790429Y-53480661D01*
X178790434Y-53480659D01*
X178795384Y-53479174D01*
X178995994Y-53380896D01*
X179177860Y-53251173D01*
X179336096Y-53093489D01*
X179348139Y-53076730D01*
X179466453Y-52912077D01*
X179467776Y-52913028D01*
X179514645Y-52869857D01*
X179584580Y-52857625D01*
X179650026Y-52885144D01*
X179677875Y-52916994D01*
X179737987Y-53015088D01*
X179884250Y-53183938D01*
X180056126Y-53326632D01*
X180249000Y-53439338D01*
X180457692Y-53519030D01*
X180462760Y-53520061D01*
X180462763Y-53520062D01*
X180557862Y-53539410D01*
X180676597Y-53563567D01*
X180681772Y-53563757D01*
X180681774Y-53563757D01*
X180894673Y-53571564D01*
X180894677Y-53571564D01*
X180899837Y-53571753D01*
X180904957Y-53571097D01*
X180904959Y-53571097D01*
X181116288Y-53544025D01*
X181116289Y-53544025D01*
X181121416Y-53543368D01*
X181126366Y-53541883D01*
X181330429Y-53480661D01*
X181330434Y-53480659D01*
X181335384Y-53479174D01*
X181535994Y-53380896D01*
X181717860Y-53251173D01*
X181876096Y-53093489D01*
X181888139Y-53076730D01*
X182006453Y-52912077D01*
X182007776Y-52913028D01*
X182054645Y-52869857D01*
X182124580Y-52857625D01*
X182190026Y-52885144D01*
X182217875Y-52916994D01*
X182277987Y-53015088D01*
X182424250Y-53183938D01*
X182596126Y-53326632D01*
X182789000Y-53439338D01*
X182997692Y-53519030D01*
X183002760Y-53520061D01*
X183002763Y-53520062D01*
X183097862Y-53539410D01*
X183216597Y-53563567D01*
X183221772Y-53563757D01*
X183221774Y-53563757D01*
X183434673Y-53571564D01*
X183434677Y-53571564D01*
X183439837Y-53571753D01*
X183444957Y-53571097D01*
X183444959Y-53571097D01*
X183656288Y-53544025D01*
X183656289Y-53544025D01*
X183661416Y-53543368D01*
X183666366Y-53541883D01*
X183870429Y-53480661D01*
X183870434Y-53480659D01*
X183875384Y-53479174D01*
X184075994Y-53380896D01*
X184257860Y-53251173D01*
X184416096Y-53093489D01*
X184428139Y-53076730D01*
X184546453Y-52912077D01*
X184547776Y-52913028D01*
X184594645Y-52869857D01*
X184664580Y-52857625D01*
X184730026Y-52885144D01*
X184757875Y-52916994D01*
X184817987Y-53015088D01*
X184964250Y-53183938D01*
X185136126Y-53326632D01*
X185329000Y-53439338D01*
X185537692Y-53519030D01*
X185542760Y-53520061D01*
X185542763Y-53520062D01*
X185637862Y-53539410D01*
X185756597Y-53563567D01*
X185761772Y-53563757D01*
X185761774Y-53563757D01*
X185974673Y-53571564D01*
X185974677Y-53571564D01*
X185979837Y-53571753D01*
X185984957Y-53571097D01*
X185984959Y-53571097D01*
X186196288Y-53544025D01*
X186196289Y-53544025D01*
X186201416Y-53543368D01*
X186206366Y-53541883D01*
X186410429Y-53480661D01*
X186410434Y-53480659D01*
X186415384Y-53479174D01*
X186615994Y-53380896D01*
X186797860Y-53251173D01*
X186956096Y-53093489D01*
X186968139Y-53076730D01*
X187086453Y-52912077D01*
X187087776Y-52913028D01*
X187134645Y-52869857D01*
X187204580Y-52857625D01*
X187270026Y-52885144D01*
X187297875Y-52916994D01*
X187357987Y-53015088D01*
X187504250Y-53183938D01*
X187676126Y-53326632D01*
X187869000Y-53439338D01*
X188077692Y-53519030D01*
X188082760Y-53520061D01*
X188082763Y-53520062D01*
X188177862Y-53539410D01*
X188296597Y-53563567D01*
X188301772Y-53563757D01*
X188301774Y-53563757D01*
X188514673Y-53571564D01*
X188514677Y-53571564D01*
X188519837Y-53571753D01*
X188524957Y-53571097D01*
X188524959Y-53571097D01*
X188736288Y-53544025D01*
X188736289Y-53544025D01*
X188741416Y-53543368D01*
X188746366Y-53541883D01*
X188950429Y-53480661D01*
X188950434Y-53480659D01*
X188955384Y-53479174D01*
X189155994Y-53380896D01*
X189337860Y-53251173D01*
X189496096Y-53093489D01*
X189508139Y-53076730D01*
X189626453Y-52912077D01*
X189627776Y-52913028D01*
X189674645Y-52869857D01*
X189744580Y-52857625D01*
X189810026Y-52885144D01*
X189837875Y-52916994D01*
X189897987Y-53015088D01*
X190044250Y-53183938D01*
X190216126Y-53326632D01*
X190409000Y-53439338D01*
X190617692Y-53519030D01*
X190622760Y-53520061D01*
X190622763Y-53520062D01*
X190717862Y-53539410D01*
X190836597Y-53563567D01*
X190841772Y-53563757D01*
X190841774Y-53563757D01*
X191054673Y-53571564D01*
X191054677Y-53571564D01*
X191059837Y-53571753D01*
X191064957Y-53571097D01*
X191064959Y-53571097D01*
X191276288Y-53544025D01*
X191276289Y-53544025D01*
X191281416Y-53543368D01*
X191286366Y-53541883D01*
X191490429Y-53480661D01*
X191490434Y-53480659D01*
X191495384Y-53479174D01*
X191695994Y-53380896D01*
X191877860Y-53251173D01*
X192036096Y-53093489D01*
X192048139Y-53076730D01*
X192166453Y-52912077D01*
X192167776Y-52913028D01*
X192214645Y-52869857D01*
X192284580Y-52857625D01*
X192350026Y-52885144D01*
X192377875Y-52916994D01*
X192437987Y-53015088D01*
X192584250Y-53183938D01*
X192756126Y-53326632D01*
X192949000Y-53439338D01*
X193157692Y-53519030D01*
X193162760Y-53520061D01*
X193162763Y-53520062D01*
X193257862Y-53539410D01*
X193376597Y-53563567D01*
X193381772Y-53563757D01*
X193381774Y-53563757D01*
X193594673Y-53571564D01*
X193594677Y-53571564D01*
X193599837Y-53571753D01*
X193604957Y-53571097D01*
X193604959Y-53571097D01*
X193816288Y-53544025D01*
X193816289Y-53544025D01*
X193821416Y-53543368D01*
X193826366Y-53541883D01*
X194030429Y-53480661D01*
X194030434Y-53480659D01*
X194035384Y-53479174D01*
X194235994Y-53380896D01*
X194417860Y-53251173D01*
X194576096Y-53093489D01*
X194588139Y-53076730D01*
X194706453Y-52912077D01*
X194707776Y-52913028D01*
X194754645Y-52869857D01*
X194824580Y-52857625D01*
X194890026Y-52885144D01*
X194917875Y-52916994D01*
X194977987Y-53015088D01*
X195124250Y-53183938D01*
X195296126Y-53326632D01*
X195489000Y-53439338D01*
X195697692Y-53519030D01*
X195702760Y-53520061D01*
X195702763Y-53520062D01*
X195797862Y-53539410D01*
X195916597Y-53563567D01*
X195921772Y-53563757D01*
X195921774Y-53563757D01*
X196134673Y-53571564D01*
X196134677Y-53571564D01*
X196139837Y-53571753D01*
X196144957Y-53571097D01*
X196144959Y-53571097D01*
X196356288Y-53544025D01*
X196356289Y-53544025D01*
X196361416Y-53543368D01*
X196366366Y-53541883D01*
X196570429Y-53480661D01*
X196570434Y-53480659D01*
X196575384Y-53479174D01*
X196775994Y-53380896D01*
X196957860Y-53251173D01*
X197116096Y-53093489D01*
X197128139Y-53076730D01*
X197246453Y-52912077D01*
X197247640Y-52912930D01*
X197294960Y-52869362D01*
X197364897Y-52857145D01*
X197430338Y-52884678D01*
X197458166Y-52916511D01*
X197515694Y-53010388D01*
X197521777Y-53018699D01*
X197661213Y-53179667D01*
X197668580Y-53186883D01*
X197832434Y-53322916D01*
X197840881Y-53328831D01*
X198024756Y-53436279D01*
X198034042Y-53440729D01*
X198233001Y-53516703D01*
X198242899Y-53519579D01*
X198346250Y-53540606D01*
X198360299Y-53539410D01*
X198364000Y-53529065D01*
X198364000Y-52082000D01*
X198384002Y-52013879D01*
X198437658Y-51967386D01*
X198490000Y-51956000D01*
X198746000Y-51956000D01*
X198814121Y-51976002D01*
X198860614Y-52029658D01*
X198872000Y-52082000D01*
X198872000Y-53528517D01*
X198876064Y-53542359D01*
X198889478Y-53544393D01*
X198896184Y-53543534D01*
X198906262Y-53541392D01*
X199110255Y-53480191D01*
X199119842Y-53476433D01*
X199311095Y-53382739D01*
X199319945Y-53377464D01*
X199493328Y-53253792D01*
X199501193Y-53247145D01*
X199605897Y-53142805D01*
X199668268Y-53108889D01*
X199739075Y-53114077D01*
X199795837Y-53156723D01*
X199812819Y-53187826D01*
X199857385Y-53306705D01*
X199944739Y-53423261D01*
X200061295Y-53510615D01*
X200197684Y-53561745D01*
X200259866Y-53568500D01*
X202056134Y-53568500D01*
X202118316Y-53561745D01*
X202254705Y-53510615D01*
X202371261Y-53423261D01*
X202458615Y-53306705D01*
X202509745Y-53170316D01*
X202516500Y-53108134D01*
X202516500Y-51444500D01*
X202536502Y-51376379D01*
X202590158Y-51329886D01*
X202642500Y-51318500D01*
X206750633Y-51318500D01*
X206770018Y-51320000D01*
X206784851Y-51322310D01*
X206784855Y-51322310D01*
X206793724Y-51323691D01*
X206811720Y-51321338D01*
X206835116Y-51320472D01*
X207083095Y-51334398D01*
X207097127Y-51335979D01*
X207192231Y-51352138D01*
X207369687Y-51382289D01*
X207383462Y-51385433D01*
X207649120Y-51461968D01*
X207662457Y-51466635D01*
X207780436Y-51515503D01*
X207917877Y-51572433D01*
X207930600Y-51578560D01*
X208172573Y-51712294D01*
X208184521Y-51719801D01*
X208410013Y-51879796D01*
X208421045Y-51888594D01*
X208623480Y-52069502D01*
X208627191Y-52072818D01*
X208637181Y-52082808D01*
X208821406Y-52288955D01*
X208830204Y-52299987D01*
X208990199Y-52525479D01*
X208997706Y-52537427D01*
X209131438Y-52779396D01*
X209137567Y-52792123D01*
X209169766Y-52869857D01*
X209243365Y-53047543D01*
X209248032Y-53060880D01*
X209324567Y-53326538D01*
X209327711Y-53340313D01*
X209342719Y-53428642D01*
X209366482Y-53568500D01*
X209374020Y-53612868D01*
X209375602Y-53626905D01*
X209380072Y-53706506D01*
X209389118Y-53867593D01*
X209387817Y-53894038D01*
X209387690Y-53894851D01*
X209387690Y-53894855D01*
X209386309Y-53903724D01*
X209387473Y-53912626D01*
X209387473Y-53912628D01*
X209390436Y-53935283D01*
X209391500Y-53951621D01*
X209391500Y-55218633D01*
X209390000Y-55238018D01*
X209387690Y-55252851D01*
X209387690Y-55252855D01*
X209386309Y-55261724D01*
X209388304Y-55276976D01*
X209389047Y-55302302D01*
X209386087Y-55343689D01*
X209376636Y-55475826D01*
X209374078Y-55493620D01*
X209331702Y-55688420D01*
X209326640Y-55705661D01*
X209256968Y-55892455D01*
X209249507Y-55908790D01*
X209153967Y-56083758D01*
X209144248Y-56098882D01*
X209024782Y-56258469D01*
X209013009Y-56272055D01*
X208872055Y-56413009D01*
X208858469Y-56424782D01*
X208698882Y-56544248D01*
X208683758Y-56553967D01*
X208508790Y-56649507D01*
X208492455Y-56656968D01*
X208305661Y-56726640D01*
X208288420Y-56731702D01*
X208093620Y-56774078D01*
X208075826Y-56776636D01*
X207909399Y-56788539D01*
X207891439Y-56787793D01*
X207883154Y-56787692D01*
X207874276Y-56786309D01*
X207842714Y-56790436D01*
X207826379Y-56791500D01*
X198145250Y-56791500D01*
X198124345Y-56789754D01*
X198109344Y-56787230D01*
X198109341Y-56787230D01*
X198104552Y-56786424D01*
X198098313Y-56786348D01*
X198096860Y-56786330D01*
X198096857Y-56786330D01*
X198092000Y-56786271D01*
X198083296Y-56787517D01*
X198072503Y-56788592D01*
X197807106Y-56803496D01*
X197525795Y-56851293D01*
X197251604Y-56930286D01*
X197248336Y-56931640D01*
X197248335Y-56931640D01*
X196991250Y-57038128D01*
X196991245Y-57038130D01*
X196987982Y-57039482D01*
X196738243Y-57177508D01*
X196505528Y-57342627D01*
X196292765Y-57532765D01*
X196102627Y-57745528D01*
X196035807Y-57839703D01*
X195973005Y-57928215D01*
X195937508Y-57978243D01*
X195799482Y-58227982D01*
X195798130Y-58231245D01*
X195798128Y-58231250D01*
X195691640Y-58488335D01*
X195690286Y-58491604D01*
X195611293Y-58765795D01*
X195563496Y-59047106D01*
X195561164Y-59088636D01*
X195549065Y-59304065D01*
X195547764Y-59316377D01*
X195546309Y-59325724D01*
X195550436Y-59357283D01*
X195551500Y-59373621D01*
X195551500Y-88241033D01*
X195550000Y-88260418D01*
X195546309Y-88284124D01*
X195547473Y-88293028D01*
X195547463Y-88293850D01*
X195548034Y-88299971D01*
X195563496Y-88575294D01*
X195611293Y-88856605D01*
X195690286Y-89130796D01*
X195799482Y-89394418D01*
X195937508Y-89644157D01*
X196102627Y-89876872D01*
X196292765Y-90089635D01*
X196505528Y-90279773D01*
X196738243Y-90444892D01*
X196987982Y-90582918D01*
X196991245Y-90584270D01*
X196991250Y-90584272D01*
X197248335Y-90690760D01*
X197251604Y-90692114D01*
X197525795Y-90771107D01*
X197807106Y-90818904D01*
X198056629Y-90832916D01*
X198070462Y-90834464D01*
X198079448Y-90835976D01*
X198085966Y-90836055D01*
X198087140Y-90836070D01*
X198087143Y-90836070D01*
X198092000Y-90836129D01*
X198111704Y-90833307D01*
X198119700Y-90832162D01*
X198137532Y-90830889D01*
X201370251Y-90830095D01*
X207818687Y-90828512D01*
X207838091Y-90830011D01*
X207861724Y-90833691D01*
X207876981Y-90831696D01*
X207902302Y-90830953D01*
X208050629Y-90841562D01*
X208075826Y-90843364D01*
X208093620Y-90845922D01*
X208288420Y-90888298D01*
X208305661Y-90893360D01*
X208492455Y-90963032D01*
X208508790Y-90970493D01*
X208683758Y-91066033D01*
X208698882Y-91075752D01*
X208858469Y-91195218D01*
X208872055Y-91206991D01*
X209013009Y-91347945D01*
X209024782Y-91361531D01*
X209144248Y-91521118D01*
X209153967Y-91536242D01*
X209249507Y-91711210D01*
X209256968Y-91727545D01*
X209326640Y-91914339D01*
X209331702Y-91931580D01*
X209374078Y-92126380D01*
X209376636Y-92144174D01*
X209388539Y-92310601D01*
X209387793Y-92328561D01*
X209387692Y-92336846D01*
X209386309Y-92345724D01*
X209387474Y-92354630D01*
X209390436Y-92377283D01*
X209391500Y-92393621D01*
X209391500Y-93660633D01*
X209390000Y-93680018D01*
X209387690Y-93694851D01*
X209387690Y-93694855D01*
X209386309Y-93703724D01*
X209388662Y-93721720D01*
X209389528Y-93745116D01*
X209377100Y-93966425D01*
X209375602Y-93993091D01*
X209374021Y-94007127D01*
X209355731Y-94114771D01*
X209327711Y-94279687D01*
X209324567Y-94293462D01*
X209248032Y-94559120D01*
X209243365Y-94572457D01*
X209137569Y-94827873D01*
X209131440Y-94840600D01*
X208997706Y-95082573D01*
X208990199Y-95094521D01*
X208830204Y-95320013D01*
X208821406Y-95331045D01*
X208676043Y-95493706D01*
X208637182Y-95537191D01*
X208627192Y-95547181D01*
X208421045Y-95731406D01*
X208410013Y-95740204D01*
X208184521Y-95900199D01*
X208172573Y-95907706D01*
X207930600Y-96041440D01*
X207917877Y-96047567D01*
X207834476Y-96082113D01*
X207662457Y-96153365D01*
X207649120Y-96158032D01*
X207383462Y-96234567D01*
X207369687Y-96237711D01*
X207233410Y-96260865D01*
X207097127Y-96284021D01*
X207083095Y-96285602D01*
X207003494Y-96290072D01*
X206842407Y-96299118D01*
X206815962Y-96297817D01*
X206815149Y-96297690D01*
X206815145Y-96297690D01*
X206806276Y-96296309D01*
X206797374Y-96297473D01*
X206797372Y-96297473D01*
X206782323Y-96299441D01*
X206774714Y-96300436D01*
X206758379Y-96301500D01*
X202464846Y-96301500D01*
X202396725Y-96281498D01*
X202350232Y-96227842D01*
X202340128Y-96157568D01*
X202356187Y-96112447D01*
X202356453Y-96112077D01*
X202427444Y-95968436D01*
X202453136Y-95916453D01*
X202453137Y-95916451D01*
X202455430Y-95911811D01*
X202516649Y-95710317D01*
X202518865Y-95703023D01*
X202518865Y-95703021D01*
X202520370Y-95698069D01*
X202549529Y-95476590D01*
X202551156Y-95410000D01*
X202532852Y-95187361D01*
X202478431Y-94970702D01*
X202389354Y-94765840D01*
X202268014Y-94578277D01*
X202117670Y-94413051D01*
X202113619Y-94409852D01*
X202113615Y-94409848D01*
X201946414Y-94277800D01*
X201946410Y-94277798D01*
X201942359Y-94274598D01*
X201901053Y-94251796D01*
X201851084Y-94201364D01*
X201836312Y-94131921D01*
X201861428Y-94065516D01*
X201888780Y-94038909D01*
X201943110Y-94000156D01*
X202067860Y-93911173D01*
X202222167Y-93757404D01*
X204536941Y-93757404D01*
X204537304Y-93761552D01*
X204537304Y-93761556D01*
X204550657Y-93914171D01*
X204563091Y-94056292D01*
X204564001Y-94060364D01*
X204564002Y-94060369D01*
X204620538Y-94313295D01*
X204628540Y-94349095D01*
X204732140Y-94630671D01*
X204734084Y-94634359D01*
X204734088Y-94634367D01*
X204870116Y-94892367D01*
X204872069Y-94896071D01*
X205045871Y-95140633D01*
X205250490Y-95360061D01*
X205482333Y-95550498D01*
X205737325Y-95708600D01*
X206010988Y-95831589D01*
X206185368Y-95883574D01*
X206294514Y-95916112D01*
X206294516Y-95916112D01*
X206298513Y-95917304D01*
X206302633Y-95917957D01*
X206302635Y-95917957D01*
X206421509Y-95936785D01*
X206594848Y-95964239D01*
X206637577Y-95966179D01*
X206687262Y-95968436D01*
X206687281Y-95968436D01*
X206688681Y-95968500D01*
X206876107Y-95968500D01*
X207099370Y-95953671D01*
X207103464Y-95952846D01*
X207103468Y-95952845D01*
X207244513Y-95924405D01*
X207393480Y-95894368D01*
X207677163Y-95796688D01*
X207680896Y-95794819D01*
X207680900Y-95794817D01*
X207941691Y-95664222D01*
X207941693Y-95664221D01*
X207945435Y-95662347D01*
X208121834Y-95542467D01*
X208190125Y-95496057D01*
X208190128Y-95496055D01*
X208193584Y-95493706D01*
X208417248Y-95293726D01*
X208419966Y-95290555D01*
X208609779Y-95069097D01*
X208609782Y-95069093D01*
X208612499Y-95065923D01*
X208614773Y-95062421D01*
X208614777Y-95062416D01*
X208773628Y-94817807D01*
X208773631Y-94817802D01*
X208775907Y-94814297D01*
X208904600Y-94543270D01*
X208915124Y-94510494D01*
X208995038Y-94261591D01*
X208995038Y-94261590D01*
X208996318Y-94257604D01*
X209022017Y-94114771D01*
X209048709Y-93966425D01*
X209048710Y-93966420D01*
X209049448Y-93962316D01*
X209051635Y-93914171D01*
X209062870Y-93666766D01*
X209062870Y-93666760D01*
X209063059Y-93662596D01*
X209055140Y-93572077D01*
X209037273Y-93367870D01*
X209036909Y-93363708D01*
X209017671Y-93277639D01*
X208972372Y-93074984D01*
X208972371Y-93074981D01*
X208971460Y-93070905D01*
X208965442Y-93054547D01*
X208869302Y-92793249D01*
X208867860Y-92789329D01*
X208865916Y-92785641D01*
X208865912Y-92785633D01*
X208729884Y-92527633D01*
X208729883Y-92527632D01*
X208727931Y-92523929D01*
X208554129Y-92279367D01*
X208349510Y-92059939D01*
X208117667Y-91869502D01*
X207862675Y-91711400D01*
X207589012Y-91588411D01*
X207375650Y-91524805D01*
X207305486Y-91503888D01*
X207305484Y-91503888D01*
X207301487Y-91502696D01*
X207297367Y-91502043D01*
X207297365Y-91502043D01*
X207178491Y-91483215D01*
X207005152Y-91455761D01*
X206962423Y-91453821D01*
X206912738Y-91451564D01*
X206912719Y-91451564D01*
X206911319Y-91451500D01*
X206723893Y-91451500D01*
X206500630Y-91466329D01*
X206496536Y-91467154D01*
X206496532Y-91467155D01*
X206355487Y-91495595D01*
X206206520Y-91525632D01*
X205922837Y-91623312D01*
X205919104Y-91625181D01*
X205919100Y-91625183D01*
X205658309Y-91755778D01*
X205654565Y-91757653D01*
X205651100Y-91760008D01*
X205411587Y-91922780D01*
X205406416Y-91926294D01*
X205182752Y-92126274D01*
X205180035Y-92129444D01*
X205180034Y-92129445D01*
X205001353Y-92337916D01*
X204987501Y-92354077D01*
X204985227Y-92357579D01*
X204985223Y-92357584D01*
X204874792Y-92527633D01*
X204824093Y-92605703D01*
X204822299Y-92609482D01*
X204822298Y-92609483D01*
X204804312Y-92647361D01*
X204695400Y-92876730D01*
X204694121Y-92880713D01*
X204694120Y-92880716D01*
X204635027Y-93064767D01*
X204603682Y-93162396D01*
X204602941Y-93166515D01*
X204565168Y-93376453D01*
X204550552Y-93457684D01*
X204550363Y-93461851D01*
X204550362Y-93461858D01*
X204537639Y-93742031D01*
X204536941Y-93757404D01*
X202222167Y-93757404D01*
X202226096Y-93753489D01*
X202234330Y-93742031D01*
X202353435Y-93576277D01*
X202356453Y-93572077D01*
X202369995Y-93544678D01*
X202453136Y-93376453D01*
X202453137Y-93376451D01*
X202455430Y-93371811D01*
X202520370Y-93158069D01*
X202549529Y-92936590D01*
X202551156Y-92870000D01*
X202532852Y-92647361D01*
X202478431Y-92430702D01*
X202389354Y-92225840D01*
X202326993Y-92129445D01*
X202270822Y-92042617D01*
X202270820Y-92042614D01*
X202268014Y-92038277D01*
X202117670Y-91873051D01*
X202113619Y-91869852D01*
X202113615Y-91869848D01*
X201946414Y-91737800D01*
X201946410Y-91737798D01*
X201942359Y-91734598D01*
X201929614Y-91727562D01*
X201890136Y-91705769D01*
X201746789Y-91626638D01*
X201741920Y-91624914D01*
X201741916Y-91624912D01*
X201541087Y-91553795D01*
X201541083Y-91553794D01*
X201536212Y-91552069D01*
X201531119Y-91551162D01*
X201531116Y-91551161D01*
X201321373Y-91513800D01*
X201321367Y-91513799D01*
X201316284Y-91512894D01*
X201242452Y-91511992D01*
X201098081Y-91510228D01*
X201098079Y-91510228D01*
X201092911Y-91510165D01*
X200872091Y-91543955D01*
X200659756Y-91613357D01*
X200461607Y-91716507D01*
X200457474Y-91719610D01*
X200457471Y-91719612D01*
X200287100Y-91847530D01*
X200282965Y-91850635D01*
X200279393Y-91854373D01*
X200210664Y-91926294D01*
X200128629Y-92012138D01*
X200021201Y-92169621D01*
X199966293Y-92214621D01*
X199895768Y-92222792D01*
X199832021Y-92191538D01*
X199811324Y-92167054D01*
X199730822Y-92042617D01*
X199730820Y-92042614D01*
X199728014Y-92038277D01*
X199577670Y-91873051D01*
X199573619Y-91869852D01*
X199573615Y-91869848D01*
X199406414Y-91737800D01*
X199406410Y-91737798D01*
X199402359Y-91734598D01*
X199389614Y-91727562D01*
X199350136Y-91705769D01*
X199206789Y-91626638D01*
X199201920Y-91624914D01*
X199201916Y-91624912D01*
X199001087Y-91553795D01*
X199001083Y-91553794D01*
X198996212Y-91552069D01*
X198991119Y-91551162D01*
X198991116Y-91551161D01*
X198781373Y-91513800D01*
X198781367Y-91513799D01*
X198776284Y-91512894D01*
X198702452Y-91511992D01*
X198558081Y-91510228D01*
X198558079Y-91510228D01*
X198552911Y-91510165D01*
X198332091Y-91543955D01*
X198119756Y-91613357D01*
X197921607Y-91716507D01*
X197917474Y-91719610D01*
X197917471Y-91719612D01*
X197747100Y-91847530D01*
X197742965Y-91850635D01*
X197739393Y-91854373D01*
X197670664Y-91926294D01*
X197588629Y-92012138D01*
X197481201Y-92169621D01*
X197426293Y-92214621D01*
X197355768Y-92222792D01*
X197292021Y-92191538D01*
X197271324Y-92167054D01*
X197190822Y-92042617D01*
X197190820Y-92042614D01*
X197188014Y-92038277D01*
X197037670Y-91873051D01*
X197033619Y-91869852D01*
X197033615Y-91869848D01*
X196866414Y-91737800D01*
X196866410Y-91737798D01*
X196862359Y-91734598D01*
X196849614Y-91727562D01*
X196810136Y-91705769D01*
X196666789Y-91626638D01*
X196661920Y-91624914D01*
X196661916Y-91624912D01*
X196461087Y-91553795D01*
X196461083Y-91553794D01*
X196456212Y-91552069D01*
X196451119Y-91551162D01*
X196451116Y-91551161D01*
X196241373Y-91513800D01*
X196241367Y-91513799D01*
X196236284Y-91512894D01*
X196162452Y-91511992D01*
X196018081Y-91510228D01*
X196018079Y-91510228D01*
X196012911Y-91510165D01*
X195792091Y-91543955D01*
X195579756Y-91613357D01*
X195381607Y-91716507D01*
X195377474Y-91719610D01*
X195377471Y-91719612D01*
X195207100Y-91847530D01*
X195202965Y-91850635D01*
X195199393Y-91854373D01*
X195130664Y-91926294D01*
X195048629Y-92012138D01*
X194941201Y-92169621D01*
X194886293Y-92214621D01*
X194815768Y-92222792D01*
X194752021Y-92191538D01*
X194731324Y-92167054D01*
X194650822Y-92042617D01*
X194650820Y-92042614D01*
X194648014Y-92038277D01*
X194497670Y-91873051D01*
X194493619Y-91869852D01*
X194493615Y-91869848D01*
X194326414Y-91737800D01*
X194326410Y-91737798D01*
X194322359Y-91734598D01*
X194309614Y-91727562D01*
X194270136Y-91705769D01*
X194126789Y-91626638D01*
X194121920Y-91624914D01*
X194121916Y-91624912D01*
X193921087Y-91553795D01*
X193921083Y-91553794D01*
X193916212Y-91552069D01*
X193911119Y-91551162D01*
X193911116Y-91551161D01*
X193701373Y-91513800D01*
X193701367Y-91513799D01*
X193696284Y-91512894D01*
X193622452Y-91511992D01*
X193478081Y-91510228D01*
X193478079Y-91510228D01*
X193472911Y-91510165D01*
X193252091Y-91543955D01*
X193039756Y-91613357D01*
X192841607Y-91716507D01*
X192837474Y-91719610D01*
X192837471Y-91719612D01*
X192667100Y-91847530D01*
X192662965Y-91850635D01*
X192659393Y-91854373D01*
X192590664Y-91926294D01*
X192508629Y-92012138D01*
X192401201Y-92169621D01*
X192346293Y-92214621D01*
X192275768Y-92222792D01*
X192212021Y-92191538D01*
X192191324Y-92167054D01*
X192110822Y-92042617D01*
X192110820Y-92042614D01*
X192108014Y-92038277D01*
X191957670Y-91873051D01*
X191953619Y-91869852D01*
X191953615Y-91869848D01*
X191786414Y-91737800D01*
X191786410Y-91737798D01*
X191782359Y-91734598D01*
X191769614Y-91727562D01*
X191730136Y-91705769D01*
X191586789Y-91626638D01*
X191581920Y-91624914D01*
X191581916Y-91624912D01*
X191381087Y-91553795D01*
X191381083Y-91553794D01*
X191376212Y-91552069D01*
X191371119Y-91551162D01*
X191371116Y-91551161D01*
X191161373Y-91513800D01*
X191161367Y-91513799D01*
X191156284Y-91512894D01*
X191082452Y-91511992D01*
X190938081Y-91510228D01*
X190938079Y-91510228D01*
X190932911Y-91510165D01*
X190712091Y-91543955D01*
X190499756Y-91613357D01*
X190301607Y-91716507D01*
X190297474Y-91719610D01*
X190297471Y-91719612D01*
X190127100Y-91847530D01*
X190122965Y-91850635D01*
X190119393Y-91854373D01*
X190050664Y-91926294D01*
X189968629Y-92012138D01*
X189861201Y-92169621D01*
X189806293Y-92214621D01*
X189735768Y-92222792D01*
X189672021Y-92191538D01*
X189651324Y-92167054D01*
X189570822Y-92042617D01*
X189570820Y-92042614D01*
X189568014Y-92038277D01*
X189417670Y-91873051D01*
X189413619Y-91869852D01*
X189413615Y-91869848D01*
X189246414Y-91737800D01*
X189246410Y-91737798D01*
X189242359Y-91734598D01*
X189229614Y-91727562D01*
X189190136Y-91705769D01*
X189046789Y-91626638D01*
X189041920Y-91624914D01*
X189041916Y-91624912D01*
X188841087Y-91553795D01*
X188841083Y-91553794D01*
X188836212Y-91552069D01*
X188831119Y-91551162D01*
X188831116Y-91551161D01*
X188621373Y-91513800D01*
X188621367Y-91513799D01*
X188616284Y-91512894D01*
X188542452Y-91511992D01*
X188398081Y-91510228D01*
X188398079Y-91510228D01*
X188392911Y-91510165D01*
X188172091Y-91543955D01*
X187959756Y-91613357D01*
X187761607Y-91716507D01*
X187757474Y-91719610D01*
X187757471Y-91719612D01*
X187587100Y-91847530D01*
X187582965Y-91850635D01*
X187579393Y-91854373D01*
X187510664Y-91926294D01*
X187428629Y-92012138D01*
X187321204Y-92169618D01*
X187320898Y-92170066D01*
X187265987Y-92215069D01*
X187195462Y-92223240D01*
X187131715Y-92191986D01*
X187111018Y-92167502D01*
X187030426Y-92042926D01*
X187024136Y-92034757D01*
X186880806Y-91877240D01*
X186873273Y-91870215D01*
X186706139Y-91738222D01*
X186697552Y-91732517D01*
X186511117Y-91629599D01*
X186501705Y-91625369D01*
X186300959Y-91554280D01*
X186290988Y-91551646D01*
X186219837Y-91538972D01*
X186206540Y-91540432D01*
X186202000Y-91554989D01*
X186202000Y-92998000D01*
X186181998Y-93066121D01*
X186128342Y-93112614D01*
X186076000Y-93124000D01*
X185820000Y-93124000D01*
X185751879Y-93103998D01*
X185705386Y-93050342D01*
X185694000Y-92998000D01*
X185694000Y-91553102D01*
X185690082Y-91539758D01*
X185675806Y-91537771D01*
X185637324Y-91543660D01*
X185627288Y-91546051D01*
X185424868Y-91612212D01*
X185415359Y-91616209D01*
X185226463Y-91714542D01*
X185217738Y-91720036D01*
X185047433Y-91847905D01*
X185039726Y-91854748D01*
X184892590Y-92008717D01*
X184886109Y-92016722D01*
X184781498Y-92170074D01*
X184726587Y-92215076D01*
X184656062Y-92223247D01*
X184592315Y-92191993D01*
X184571618Y-92167509D01*
X184490822Y-92042617D01*
X184490820Y-92042614D01*
X184488014Y-92038277D01*
X184337670Y-91873051D01*
X184333619Y-91869852D01*
X184333615Y-91869848D01*
X184166414Y-91737800D01*
X184166410Y-91737798D01*
X184162359Y-91734598D01*
X184149614Y-91727562D01*
X184110136Y-91705769D01*
X183966789Y-91626638D01*
X183961920Y-91624914D01*
X183961916Y-91624912D01*
X183761087Y-91553795D01*
X183761083Y-91553794D01*
X183756212Y-91552069D01*
X183751119Y-91551162D01*
X183751116Y-91551161D01*
X183541373Y-91513800D01*
X183541367Y-91513799D01*
X183536284Y-91512894D01*
X183462452Y-91511992D01*
X183318081Y-91510228D01*
X183318079Y-91510228D01*
X183312911Y-91510165D01*
X183092091Y-91543955D01*
X182879756Y-91613357D01*
X182681607Y-91716507D01*
X182677474Y-91719610D01*
X182677471Y-91719612D01*
X182507100Y-91847530D01*
X182502965Y-91850635D01*
X182499393Y-91854373D01*
X182430664Y-91926294D01*
X182348629Y-92012138D01*
X182241201Y-92169621D01*
X182186293Y-92214621D01*
X182115768Y-92222792D01*
X182052021Y-92191538D01*
X182031324Y-92167054D01*
X181950822Y-92042617D01*
X181950820Y-92042614D01*
X181948014Y-92038277D01*
X181797670Y-91873051D01*
X181793619Y-91869852D01*
X181793615Y-91869848D01*
X181626414Y-91737800D01*
X181626410Y-91737798D01*
X181622359Y-91734598D01*
X181609614Y-91727562D01*
X181570136Y-91705769D01*
X181426789Y-91626638D01*
X181421920Y-91624914D01*
X181421916Y-91624912D01*
X181221087Y-91553795D01*
X181221083Y-91553794D01*
X181216212Y-91552069D01*
X181211119Y-91551162D01*
X181211116Y-91551161D01*
X181001373Y-91513800D01*
X181001367Y-91513799D01*
X180996284Y-91512894D01*
X180922452Y-91511992D01*
X180778081Y-91510228D01*
X180778079Y-91510228D01*
X180772911Y-91510165D01*
X180552091Y-91543955D01*
X180339756Y-91613357D01*
X180141607Y-91716507D01*
X180137474Y-91719610D01*
X180137471Y-91719612D01*
X179967100Y-91847530D01*
X179962965Y-91850635D01*
X179959393Y-91854373D01*
X179890664Y-91926294D01*
X179808629Y-92012138D01*
X179701201Y-92169621D01*
X179646293Y-92214621D01*
X179575768Y-92222792D01*
X179512021Y-92191538D01*
X179491324Y-92167054D01*
X179410822Y-92042617D01*
X179410820Y-92042614D01*
X179408014Y-92038277D01*
X179257670Y-91873051D01*
X179253619Y-91869852D01*
X179253615Y-91869848D01*
X179086414Y-91737800D01*
X179086410Y-91737798D01*
X179082359Y-91734598D01*
X179069614Y-91727562D01*
X179030136Y-91705769D01*
X178886789Y-91626638D01*
X178881920Y-91624914D01*
X178881916Y-91624912D01*
X178681087Y-91553795D01*
X178681083Y-91553794D01*
X178676212Y-91552069D01*
X178671119Y-91551162D01*
X178671116Y-91551161D01*
X178461373Y-91513800D01*
X178461367Y-91513799D01*
X178456284Y-91512894D01*
X178382452Y-91511992D01*
X178238081Y-91510228D01*
X178238079Y-91510228D01*
X178232911Y-91510165D01*
X178012091Y-91543955D01*
X177799756Y-91613357D01*
X177601607Y-91716507D01*
X177597474Y-91719610D01*
X177597471Y-91719612D01*
X177427100Y-91847530D01*
X177422965Y-91850635D01*
X177419393Y-91854373D01*
X177350664Y-91926294D01*
X177268629Y-92012138D01*
X177161201Y-92169621D01*
X177106293Y-92214621D01*
X177035768Y-92222792D01*
X176972021Y-92191538D01*
X176951324Y-92167054D01*
X176870822Y-92042617D01*
X176870820Y-92042614D01*
X176868014Y-92038277D01*
X176717670Y-91873051D01*
X176713619Y-91869852D01*
X176713615Y-91869848D01*
X176546414Y-91737800D01*
X176546410Y-91737798D01*
X176542359Y-91734598D01*
X176529614Y-91727562D01*
X176490136Y-91705769D01*
X176346789Y-91626638D01*
X176341920Y-91624914D01*
X176341916Y-91624912D01*
X176141087Y-91553795D01*
X176141083Y-91553794D01*
X176136212Y-91552069D01*
X176131119Y-91551162D01*
X176131116Y-91551161D01*
X175921373Y-91513800D01*
X175921367Y-91513799D01*
X175916284Y-91512894D01*
X175842452Y-91511992D01*
X175698081Y-91510228D01*
X175698079Y-91510228D01*
X175692911Y-91510165D01*
X175472091Y-91543955D01*
X175259756Y-91613357D01*
X175061607Y-91716507D01*
X175057474Y-91719610D01*
X175057471Y-91719612D01*
X174887100Y-91847530D01*
X174882965Y-91850635D01*
X174879393Y-91854373D01*
X174810664Y-91926294D01*
X174728629Y-92012138D01*
X174621201Y-92169621D01*
X174566293Y-92214621D01*
X174495768Y-92222792D01*
X174432021Y-92191538D01*
X174411324Y-92167054D01*
X174330822Y-92042617D01*
X174330820Y-92042614D01*
X174328014Y-92038277D01*
X174177670Y-91873051D01*
X174173619Y-91869852D01*
X174173615Y-91869848D01*
X174006414Y-91737800D01*
X174006410Y-91737798D01*
X174002359Y-91734598D01*
X173989614Y-91727562D01*
X173950136Y-91705769D01*
X173806789Y-91626638D01*
X173801920Y-91624914D01*
X173801916Y-91624912D01*
X173601087Y-91553795D01*
X173601083Y-91553794D01*
X173596212Y-91552069D01*
X173591119Y-91551162D01*
X173591116Y-91551161D01*
X173381373Y-91513800D01*
X173381367Y-91513799D01*
X173376284Y-91512894D01*
X173302452Y-91511992D01*
X173158081Y-91510228D01*
X173158079Y-91510228D01*
X173152911Y-91510165D01*
X172932091Y-91543955D01*
X172719756Y-91613357D01*
X172521607Y-91716507D01*
X172517474Y-91719610D01*
X172517471Y-91719612D01*
X172347100Y-91847530D01*
X172342965Y-91850635D01*
X172339393Y-91854373D01*
X172270664Y-91926294D01*
X172188629Y-92012138D01*
X172081201Y-92169621D01*
X172026293Y-92214621D01*
X171955768Y-92222792D01*
X171892021Y-92191538D01*
X171871324Y-92167054D01*
X171790822Y-92042617D01*
X171790820Y-92042614D01*
X171788014Y-92038277D01*
X171637670Y-91873051D01*
X171633619Y-91869852D01*
X171633615Y-91869848D01*
X171466414Y-91737800D01*
X171466410Y-91737798D01*
X171462359Y-91734598D01*
X171449614Y-91727562D01*
X171410136Y-91705769D01*
X171266789Y-91626638D01*
X171261920Y-91624914D01*
X171261916Y-91624912D01*
X171061087Y-91553795D01*
X171061083Y-91553794D01*
X171056212Y-91552069D01*
X171051119Y-91551162D01*
X171051116Y-91551161D01*
X170841373Y-91513800D01*
X170841367Y-91513799D01*
X170836284Y-91512894D01*
X170762452Y-91511992D01*
X170618081Y-91510228D01*
X170618079Y-91510228D01*
X170612911Y-91510165D01*
X170392091Y-91543955D01*
X170179756Y-91613357D01*
X169981607Y-91716507D01*
X169977474Y-91719610D01*
X169977471Y-91719612D01*
X169807100Y-91847530D01*
X169802965Y-91850635D01*
X169799393Y-91854373D01*
X169730664Y-91926294D01*
X169648629Y-92012138D01*
X169645720Y-92016403D01*
X169645714Y-92016411D01*
X169570771Y-92126274D01*
X169522743Y-92196680D01*
X169507003Y-92230590D01*
X169435133Y-92385421D01*
X169428688Y-92399305D01*
X169368989Y-92614570D01*
X169345251Y-92836695D01*
X169345548Y-92841848D01*
X169345548Y-92841851D01*
X169351011Y-92936590D01*
X169358110Y-93059715D01*
X169359247Y-93064761D01*
X169359248Y-93064767D01*
X169370031Y-93112614D01*
X169407222Y-93277639D01*
X169491266Y-93484616D01*
X169542019Y-93567438D01*
X169605291Y-93670688D01*
X169607987Y-93675088D01*
X169611367Y-93678990D01*
X169614300Y-93682376D01*
X169754250Y-93843938D01*
X169758230Y-93847242D01*
X169762981Y-93851187D01*
X169802616Y-93910090D01*
X169804113Y-93981071D01*
X169766997Y-94041593D01*
X169726725Y-94066112D01*
X169679129Y-94083955D01*
X169611295Y-94109385D01*
X169494739Y-94196739D01*
X169407385Y-94313295D01*
X169356255Y-94449684D01*
X169349500Y-94511866D01*
X169349500Y-96175500D01*
X169329498Y-96243621D01*
X169275842Y-96290114D01*
X169223500Y-96301500D01*
X165049367Y-96301500D01*
X165029982Y-96300000D01*
X165015149Y-96297690D01*
X165015145Y-96297690D01*
X165006276Y-96296309D01*
X164988280Y-96298662D01*
X164964884Y-96299528D01*
X164716905Y-96285602D01*
X164702873Y-96284021D01*
X164566590Y-96260865D01*
X164430313Y-96237711D01*
X164416538Y-96234567D01*
X164150880Y-96158032D01*
X164137543Y-96153365D01*
X163965524Y-96082113D01*
X163882123Y-96047567D01*
X163869400Y-96041440D01*
X163627427Y-95907706D01*
X163615479Y-95900199D01*
X163389987Y-95740204D01*
X163378955Y-95731406D01*
X163172808Y-95547181D01*
X163162818Y-95537191D01*
X163123957Y-95493706D01*
X162978594Y-95331045D01*
X162969796Y-95320013D01*
X162809801Y-95094521D01*
X162802294Y-95082573D01*
X162668560Y-94840600D01*
X162662431Y-94827873D01*
X162556635Y-94572457D01*
X162551968Y-94559120D01*
X162475433Y-94293462D01*
X162472289Y-94279687D01*
X162444269Y-94114771D01*
X162425979Y-94007127D01*
X162424398Y-93993091D01*
X162424036Y-93986632D01*
X162411162Y-93757404D01*
X162736941Y-93757404D01*
X162737304Y-93761552D01*
X162737304Y-93761556D01*
X162750657Y-93914171D01*
X162763091Y-94056292D01*
X162764001Y-94060364D01*
X162764002Y-94060369D01*
X162820538Y-94313295D01*
X162828540Y-94349095D01*
X162932140Y-94630671D01*
X162934084Y-94634359D01*
X162934088Y-94634367D01*
X163070116Y-94892367D01*
X163072069Y-94896071D01*
X163245871Y-95140633D01*
X163450490Y-95360061D01*
X163682333Y-95550498D01*
X163937325Y-95708600D01*
X164210988Y-95831589D01*
X164385368Y-95883574D01*
X164494514Y-95916112D01*
X164494516Y-95916112D01*
X164498513Y-95917304D01*
X164502633Y-95917957D01*
X164502635Y-95917957D01*
X164621509Y-95936785D01*
X164794848Y-95964239D01*
X164837577Y-95966179D01*
X164887262Y-95968436D01*
X164887281Y-95968436D01*
X164888681Y-95968500D01*
X165076107Y-95968500D01*
X165299370Y-95953671D01*
X165303464Y-95952846D01*
X165303468Y-95952845D01*
X165444513Y-95924405D01*
X165593480Y-95894368D01*
X165877163Y-95796688D01*
X165880896Y-95794819D01*
X165880900Y-95794817D01*
X166141691Y-95664222D01*
X166141693Y-95664221D01*
X166145435Y-95662347D01*
X166321834Y-95542467D01*
X166390125Y-95496057D01*
X166390128Y-95496055D01*
X166393584Y-95493706D01*
X166617248Y-95293726D01*
X166619966Y-95290555D01*
X166809779Y-95069097D01*
X166809782Y-95069093D01*
X166812499Y-95065923D01*
X166814773Y-95062421D01*
X166814777Y-95062416D01*
X166973628Y-94817807D01*
X166973631Y-94817802D01*
X166975907Y-94814297D01*
X167104600Y-94543270D01*
X167115124Y-94510494D01*
X167195038Y-94261591D01*
X167195038Y-94261590D01*
X167196318Y-94257604D01*
X167222017Y-94114771D01*
X167248709Y-93966425D01*
X167248710Y-93966420D01*
X167249448Y-93962316D01*
X167251635Y-93914171D01*
X167262870Y-93666766D01*
X167262870Y-93666760D01*
X167263059Y-93662596D01*
X167255140Y-93572077D01*
X167237273Y-93367870D01*
X167236909Y-93363708D01*
X167217671Y-93277639D01*
X167172372Y-93074984D01*
X167172371Y-93074981D01*
X167171460Y-93070905D01*
X167165442Y-93054547D01*
X167069302Y-92793249D01*
X167067860Y-92789329D01*
X167065916Y-92785641D01*
X167065912Y-92785633D01*
X166929884Y-92527633D01*
X166929883Y-92527632D01*
X166927931Y-92523929D01*
X166754129Y-92279367D01*
X166549510Y-92059939D01*
X166317667Y-91869502D01*
X166062675Y-91711400D01*
X165789012Y-91588411D01*
X165575650Y-91524805D01*
X165505486Y-91503888D01*
X165505484Y-91503888D01*
X165501487Y-91502696D01*
X165497367Y-91502043D01*
X165497365Y-91502043D01*
X165378491Y-91483215D01*
X165205152Y-91455761D01*
X165162423Y-91453821D01*
X165112738Y-91451564D01*
X165112719Y-91451564D01*
X165111319Y-91451500D01*
X164923893Y-91451500D01*
X164700630Y-91466329D01*
X164696536Y-91467154D01*
X164696532Y-91467155D01*
X164555487Y-91495595D01*
X164406520Y-91525632D01*
X164122837Y-91623312D01*
X164119104Y-91625181D01*
X164119100Y-91625183D01*
X163858309Y-91755778D01*
X163854565Y-91757653D01*
X163851100Y-91760008D01*
X163611587Y-91922780D01*
X163606416Y-91926294D01*
X163382752Y-92126274D01*
X163380035Y-92129444D01*
X163380034Y-92129445D01*
X163201353Y-92337916D01*
X163187501Y-92354077D01*
X163185227Y-92357579D01*
X163185223Y-92357584D01*
X163074792Y-92527633D01*
X163024093Y-92605703D01*
X163022299Y-92609482D01*
X163022298Y-92609483D01*
X163004312Y-92647361D01*
X162895400Y-92876730D01*
X162894121Y-92880713D01*
X162894120Y-92880716D01*
X162835027Y-93064767D01*
X162803682Y-93162396D01*
X162802941Y-93166515D01*
X162765168Y-93376453D01*
X162750552Y-93457684D01*
X162750363Y-93461851D01*
X162750362Y-93461858D01*
X162737639Y-93742031D01*
X162736941Y-93757404D01*
X162411162Y-93757404D01*
X162411089Y-93756100D01*
X162412412Y-93732208D01*
X162412334Y-93732201D01*
X162412539Y-93729916D01*
X162412638Y-93728127D01*
X162412769Y-93727346D01*
X162413576Y-93722552D01*
X162413729Y-93710000D01*
X162409773Y-93682376D01*
X162408500Y-93664514D01*
X162408500Y-88669966D01*
X172404257Y-88669966D01*
X172434565Y-88804446D01*
X172437645Y-88814275D01*
X172517770Y-89011603D01*
X172522413Y-89020794D01*
X172633694Y-89202388D01*
X172639777Y-89210699D01*
X172779213Y-89371667D01*
X172786580Y-89378883D01*
X172950434Y-89514916D01*
X172958881Y-89520831D01*
X173142756Y-89628279D01*
X173152042Y-89632729D01*
X173351001Y-89708703D01*
X173360899Y-89711579D01*
X173464250Y-89732606D01*
X173478299Y-89731410D01*
X173482000Y-89721065D01*
X173482000Y-89720517D01*
X173990000Y-89720517D01*
X173994064Y-89734359D01*
X174007478Y-89736393D01*
X174014184Y-89735534D01*
X174024262Y-89733392D01*
X174228255Y-89672191D01*
X174237842Y-89668433D01*
X174429095Y-89574739D01*
X174437945Y-89569464D01*
X174611328Y-89445792D01*
X174619200Y-89439139D01*
X174770052Y-89288812D01*
X174776730Y-89280965D01*
X174901003Y-89108020D01*
X174906313Y-89099183D01*
X175000670Y-88908267D01*
X175004469Y-88898672D01*
X175066377Y-88694910D01*
X175068555Y-88684837D01*
X175069986Y-88673962D01*
X175067775Y-88659778D01*
X175054617Y-88656000D01*
X174008115Y-88656000D01*
X173992876Y-88660475D01*
X173991671Y-88661865D01*
X173990000Y-88669548D01*
X173990000Y-89720517D01*
X173482000Y-89720517D01*
X173482000Y-88674115D01*
X173477525Y-88658876D01*
X173476135Y-88657671D01*
X173468452Y-88656000D01*
X172419225Y-88656000D01*
X172405694Y-88659973D01*
X172404257Y-88669966D01*
X162408500Y-88669966D01*
X162408500Y-85828695D01*
X172373251Y-85828695D01*
X172373548Y-85833848D01*
X172373548Y-85833851D01*
X172379011Y-85928590D01*
X172386110Y-86051715D01*
X172387247Y-86056761D01*
X172387248Y-86056767D01*
X172407119Y-86144939D01*
X172435222Y-86269639D01*
X172519266Y-86476616D01*
X172635987Y-86667088D01*
X172782250Y-86835938D01*
X172954126Y-86978632D01*
X173027955Y-87021774D01*
X173076679Y-87073412D01*
X173089750Y-87143195D01*
X173063019Y-87208967D01*
X173022562Y-87242327D01*
X173014457Y-87246546D01*
X173005738Y-87252036D01*
X172835433Y-87379905D01*
X172827726Y-87386748D01*
X172680590Y-87540717D01*
X172674104Y-87548727D01*
X172554098Y-87724649D01*
X172549000Y-87733623D01*
X172459338Y-87926783D01*
X172455775Y-87936470D01*
X172400389Y-88136183D01*
X172401912Y-88144607D01*
X172414292Y-88148000D01*
X175054344Y-88148000D01*
X175067875Y-88144027D01*
X175069180Y-88134947D01*
X175027214Y-87967875D01*
X175023894Y-87958124D01*
X174938972Y-87762814D01*
X174934105Y-87753739D01*
X174818426Y-87574926D01*
X174812136Y-87566757D01*
X174668806Y-87409240D01*
X174661273Y-87402215D01*
X174494139Y-87270222D01*
X174485556Y-87264520D01*
X174448602Y-87244120D01*
X174398631Y-87193687D01*
X174383859Y-87124245D01*
X174408975Y-87057839D01*
X174436327Y-87031232D01*
X174459797Y-87014491D01*
X174615860Y-86903173D01*
X174774096Y-86745489D01*
X174833594Y-86662689D01*
X174901435Y-86568277D01*
X174904453Y-86564077D01*
X175003430Y-86363811D01*
X175068370Y-86150069D01*
X175097529Y-85928590D01*
X175099156Y-85862000D01*
X175080852Y-85639361D01*
X175026431Y-85422702D01*
X174937354Y-85217840D01*
X174816014Y-85030277D01*
X174665670Y-84865051D01*
X174661619Y-84861852D01*
X174661615Y-84861848D01*
X174494414Y-84729800D01*
X174494410Y-84729798D01*
X174490359Y-84726598D01*
X174449053Y-84703796D01*
X174399084Y-84653364D01*
X174384312Y-84583921D01*
X174409428Y-84517516D01*
X174436780Y-84490909D01*
X174480603Y-84459650D01*
X174615860Y-84363173D01*
X174774096Y-84205489D01*
X174833594Y-84122689D01*
X174901435Y-84028277D01*
X174904453Y-84024077D01*
X175003430Y-83823811D01*
X175068370Y-83610069D01*
X175097529Y-83388590D01*
X175099156Y-83322000D01*
X175080852Y-83099361D01*
X175026431Y-82882702D01*
X174937354Y-82677840D01*
X174816014Y-82490277D01*
X174812532Y-82486450D01*
X174668798Y-82328488D01*
X174637746Y-82264642D01*
X174646141Y-82194143D01*
X174691317Y-82139375D01*
X174717761Y-82125706D01*
X174824297Y-82085767D01*
X174832705Y-82082615D01*
X174949261Y-81995261D01*
X175036615Y-81878705D01*
X175087745Y-81742316D01*
X175094500Y-81680134D01*
X175094500Y-79883866D01*
X175087745Y-79821684D01*
X175036615Y-79685295D01*
X174949261Y-79568739D01*
X174832705Y-79481385D01*
X174696316Y-79430255D01*
X174634134Y-79423500D01*
X172837866Y-79423500D01*
X172775684Y-79430255D01*
X172639295Y-79481385D01*
X172522739Y-79568739D01*
X172435385Y-79685295D01*
X172384255Y-79821684D01*
X172377500Y-79883866D01*
X172377500Y-81680134D01*
X172384255Y-81742316D01*
X172435385Y-81878705D01*
X172522739Y-81995261D01*
X172639295Y-82082615D01*
X172647704Y-82085767D01*
X172647705Y-82085768D01*
X172756451Y-82126535D01*
X172813216Y-82169176D01*
X172837916Y-82235738D01*
X172822709Y-82305087D01*
X172803316Y-82331568D01*
X172676629Y-82464138D01*
X172550743Y-82648680D01*
X172456688Y-82851305D01*
X172396989Y-83066570D01*
X172373251Y-83288695D01*
X172373548Y-83293848D01*
X172373548Y-83293851D01*
X172379011Y-83388590D01*
X172386110Y-83511715D01*
X172387247Y-83516761D01*
X172387248Y-83516767D01*
X172407119Y-83604939D01*
X172435222Y-83729639D01*
X172519266Y-83936616D01*
X172635987Y-84127088D01*
X172782250Y-84295938D01*
X172954126Y-84438632D01*
X173024595Y-84479811D01*
X173027445Y-84481476D01*
X173076169Y-84533114D01*
X173089240Y-84602897D01*
X173062509Y-84668669D01*
X173022055Y-84702027D01*
X173009607Y-84708507D01*
X173005474Y-84711610D01*
X173005471Y-84711612D01*
X172981247Y-84729800D01*
X172830965Y-84842635D01*
X172676629Y-85004138D01*
X172550743Y-85188680D01*
X172456688Y-85391305D01*
X172396989Y-85606570D01*
X172373251Y-85828695D01*
X162408500Y-85828695D01*
X162408500Y-76860400D01*
X168222496Y-76860400D01*
X168242458Y-77050328D01*
X168301473Y-77231956D01*
X168396960Y-77397344D01*
X168524747Y-77539266D01*
X168679248Y-77651518D01*
X168685276Y-77654202D01*
X168685278Y-77654203D01*
X168847681Y-77726509D01*
X168853712Y-77729194D01*
X168947112Y-77749047D01*
X169034056Y-77767528D01*
X169034061Y-77767528D01*
X169040513Y-77768900D01*
X169231487Y-77768900D01*
X169237939Y-77767528D01*
X169237944Y-77767528D01*
X169324888Y-77749047D01*
X169418288Y-77729194D01*
X169424319Y-77726509D01*
X169586722Y-77654203D01*
X169586724Y-77654202D01*
X169592752Y-77651518D01*
X169747253Y-77539266D01*
X169875040Y-77397344D01*
X169970527Y-77231956D01*
X170029542Y-77050328D01*
X170046907Y-76885108D01*
X170073920Y-76819451D01*
X170083122Y-76809182D01*
X170519901Y-76372404D01*
X170582213Y-76338379D01*
X170608996Y-76335500D01*
X173376269Y-76335500D01*
X173444390Y-76355502D01*
X173479482Y-76389230D01*
X173553319Y-76494681D01*
X173705319Y-76646681D01*
X173881403Y-76769976D01*
X173886381Y-76772297D01*
X173886384Y-76772299D01*
X174061239Y-76853835D01*
X174076223Y-76860822D01*
X174081531Y-76862244D01*
X174081533Y-76862245D01*
X174278543Y-76915034D01*
X174278545Y-76915034D01*
X174283858Y-76916458D01*
X174498000Y-76935193D01*
X174712142Y-76916458D01*
X174717455Y-76915034D01*
X174717457Y-76915034D01*
X174914467Y-76862245D01*
X174914469Y-76862244D01*
X174919777Y-76860822D01*
X174934761Y-76853835D01*
X175109616Y-76772299D01*
X175109619Y-76772297D01*
X175114597Y-76769976D01*
X175290681Y-76646681D01*
X175442681Y-76494681D01*
X175565976Y-76318596D01*
X175627600Y-76186445D01*
X175654499Y-76128759D01*
X175654500Y-76128757D01*
X175656822Y-76123777D01*
X175672144Y-76066597D01*
X175711034Y-75921457D01*
X175711034Y-75921455D01*
X175712458Y-75916142D01*
X175731193Y-75702000D01*
X175712458Y-75487858D01*
X175711034Y-75482543D01*
X175658245Y-75285533D01*
X175658244Y-75285531D01*
X175656822Y-75280223D01*
X175654499Y-75275241D01*
X175568299Y-75090385D01*
X175568297Y-75090382D01*
X175565976Y-75085404D01*
X175442681Y-74909319D01*
X175290681Y-74757319D01*
X175114597Y-74634024D01*
X175109619Y-74631703D01*
X175109616Y-74631701D01*
X174926247Y-74546195D01*
X174872962Y-74499278D01*
X174853501Y-74431000D01*
X174874043Y-74363041D01*
X174926247Y-74317805D01*
X175109616Y-74232299D01*
X175109619Y-74232297D01*
X175114597Y-74229976D01*
X175290681Y-74106681D01*
X175442681Y-73954681D01*
X175565976Y-73778596D01*
X175656822Y-73583777D01*
X175712458Y-73376142D01*
X175731193Y-73162000D01*
X175712458Y-72947858D01*
X175656822Y-72740223D01*
X175654464Y-72735167D01*
X175568299Y-72550385D01*
X175568297Y-72550382D01*
X175565976Y-72545404D01*
X175442681Y-72369319D01*
X175290681Y-72217319D01*
X175114597Y-72094024D01*
X175109619Y-72091703D01*
X175109616Y-72091701D01*
X174925656Y-72005919D01*
X174872371Y-71959002D01*
X174852910Y-71890724D01*
X174873452Y-71822764D01*
X174925656Y-71777529D01*
X175109359Y-71691868D01*
X175118854Y-71686385D01*
X175153607Y-71662051D01*
X175161983Y-71651572D01*
X175154916Y-71638127D01*
X174510811Y-70994021D01*
X174496868Y-70986408D01*
X174495034Y-70986539D01*
X174488420Y-70990790D01*
X173840360Y-71638851D01*
X173833933Y-71650621D01*
X173843227Y-71662635D01*
X173877146Y-71686385D01*
X173886641Y-71691868D01*
X174070344Y-71777529D01*
X174123629Y-71824446D01*
X174143090Y-71892723D01*
X174122548Y-71960683D01*
X174070344Y-72005919D01*
X173886385Y-72091701D01*
X173886382Y-72091703D01*
X173881404Y-72094024D01*
X173705319Y-72217319D01*
X173553319Y-72369319D01*
X173550160Y-72373831D01*
X173479482Y-72474770D01*
X173424025Y-72519099D01*
X173376269Y-72528500D01*
X170881163Y-72528500D01*
X170869979Y-72527973D01*
X170862491Y-72526299D01*
X170854568Y-72526548D01*
X170794433Y-72528438D01*
X170790475Y-72528500D01*
X170762544Y-72528500D01*
X170758629Y-72528995D01*
X170758625Y-72528995D01*
X170758567Y-72529003D01*
X170758538Y-72529006D01*
X170746696Y-72529939D01*
X170702510Y-72531327D01*
X170685144Y-72536372D01*
X170683058Y-72536978D01*
X170663706Y-72540986D01*
X170651468Y-72542532D01*
X170651466Y-72542533D01*
X170643603Y-72543526D01*
X170602486Y-72559806D01*
X170591285Y-72563641D01*
X170548806Y-72575982D01*
X170541987Y-72580015D01*
X170541982Y-72580017D01*
X170531371Y-72586293D01*
X170513621Y-72594990D01*
X170494783Y-72602448D01*
X170488367Y-72607109D01*
X170488366Y-72607110D01*
X170459025Y-72628428D01*
X170449101Y-72634947D01*
X170417860Y-72653422D01*
X170417855Y-72653426D01*
X170411037Y-72657458D01*
X170396713Y-72671782D01*
X170381681Y-72684621D01*
X170365293Y-72696528D01*
X170337112Y-72730593D01*
X170329122Y-72739373D01*
X169185500Y-73882995D01*
X169123188Y-73917021D01*
X169096405Y-73919900D01*
X169040513Y-73919900D01*
X169034061Y-73921272D01*
X169034056Y-73921272D01*
X168947112Y-73939753D01*
X168853712Y-73959606D01*
X168847682Y-73962291D01*
X168847681Y-73962291D01*
X168685278Y-74034597D01*
X168685276Y-74034598D01*
X168679248Y-74037282D01*
X168524747Y-74149534D01*
X168520326Y-74154444D01*
X168520325Y-74154445D01*
X168455158Y-74226821D01*
X168396960Y-74291456D01*
X168301473Y-74456844D01*
X168242458Y-74638472D01*
X168222496Y-74828400D01*
X168242458Y-75018328D01*
X168301473Y-75199956D01*
X168396960Y-75365344D01*
X168524747Y-75507266D01*
X168679248Y-75619518D01*
X168685276Y-75622202D01*
X168685278Y-75622203D01*
X168847681Y-75694509D01*
X168853712Y-75697194D01*
X168966430Y-75721153D01*
X169028903Y-75754882D01*
X169063225Y-75817031D01*
X169058497Y-75887870D01*
X169016221Y-75944908D01*
X168966430Y-75967647D01*
X168853712Y-75991606D01*
X168847682Y-75994291D01*
X168847681Y-75994291D01*
X168685278Y-76066597D01*
X168685276Y-76066598D01*
X168679248Y-76069282D01*
X168524747Y-76181534D01*
X168396960Y-76323456D01*
X168301473Y-76488844D01*
X168242458Y-76670472D01*
X168222496Y-76860400D01*
X162408500Y-76860400D01*
X162408500Y-70627475D01*
X173265788Y-70627475D01*
X173283557Y-70830575D01*
X173285460Y-70841368D01*
X173338226Y-71038295D01*
X173341972Y-71048587D01*
X173428135Y-71233364D01*
X173433613Y-71242850D01*
X173457949Y-71277607D01*
X173468428Y-71285983D01*
X173481872Y-71278917D01*
X174125979Y-70634811D01*
X174132356Y-70623132D01*
X174862408Y-70623132D01*
X174862539Y-70624966D01*
X174866790Y-70631580D01*
X175514851Y-71279640D01*
X175526621Y-71286067D01*
X175538635Y-71276772D01*
X175562387Y-71242850D01*
X175567865Y-71233364D01*
X175654028Y-71048587D01*
X175657774Y-71038295D01*
X175710540Y-70841368D01*
X175712443Y-70830575D01*
X175730212Y-70627475D01*
X175730212Y-70616525D01*
X175712443Y-70413425D01*
X175710540Y-70402632D01*
X175657774Y-70205705D01*
X175654028Y-70195413D01*
X175567865Y-70010636D01*
X175562387Y-70001150D01*
X175538051Y-69966393D01*
X175527572Y-69958017D01*
X175514128Y-69965083D01*
X174870021Y-70609189D01*
X174862408Y-70623132D01*
X174132356Y-70623132D01*
X174133592Y-70620868D01*
X174133461Y-70619034D01*
X174129210Y-70612420D01*
X173481149Y-69964360D01*
X173469379Y-69957933D01*
X173457365Y-69967228D01*
X173433613Y-70001150D01*
X173428135Y-70010636D01*
X173341972Y-70195413D01*
X173338226Y-70205705D01*
X173285460Y-70402632D01*
X173283557Y-70413425D01*
X173265788Y-70616525D01*
X173265788Y-70627475D01*
X162408500Y-70627475D01*
X162408500Y-69592428D01*
X173834017Y-69592428D01*
X173841083Y-69605872D01*
X174485189Y-70249979D01*
X174499132Y-70257592D01*
X174500966Y-70257461D01*
X174507580Y-70253210D01*
X175155640Y-69605149D01*
X175162067Y-69593379D01*
X175152773Y-69581365D01*
X175118854Y-69557615D01*
X175109359Y-69552132D01*
X174924587Y-69465972D01*
X174914295Y-69462226D01*
X174717368Y-69409460D01*
X174706575Y-69407557D01*
X174503475Y-69389788D01*
X174492525Y-69389788D01*
X174289425Y-69407557D01*
X174278632Y-69409460D01*
X174081705Y-69462226D01*
X174071413Y-69465972D01*
X173886636Y-69552135D01*
X173877150Y-69557613D01*
X173842393Y-69581949D01*
X173834017Y-69592428D01*
X162408500Y-69592428D01*
X162408500Y-64780000D01*
X173264807Y-64780000D01*
X173283542Y-64994142D01*
X173339178Y-65201777D01*
X173430024Y-65396596D01*
X173553319Y-65572681D01*
X173705319Y-65724681D01*
X173881403Y-65847976D01*
X173886381Y-65850297D01*
X173886384Y-65850299D01*
X174071241Y-65936499D01*
X174076223Y-65938822D01*
X174081531Y-65940244D01*
X174081533Y-65940245D01*
X174278543Y-65993034D01*
X174278545Y-65993034D01*
X174283858Y-65994458D01*
X174498000Y-66013193D01*
X174712142Y-65994458D01*
X174717455Y-65993034D01*
X174717457Y-65993034D01*
X174914467Y-65940245D01*
X174914469Y-65940244D01*
X174919777Y-65938822D01*
X174924759Y-65936499D01*
X175109616Y-65850299D01*
X175109619Y-65850297D01*
X175114597Y-65847976D01*
X175290681Y-65724681D01*
X175442681Y-65572681D01*
X175565976Y-65396596D01*
X175656822Y-65201777D01*
X175712458Y-64994142D01*
X175731193Y-64780000D01*
X175712458Y-64565858D01*
X175656822Y-64358223D01*
X175565976Y-64163404D01*
X175442681Y-63987319D01*
X175290681Y-63835319D01*
X175114597Y-63712024D01*
X175109619Y-63709703D01*
X175109616Y-63709701D01*
X174926247Y-63624195D01*
X174872962Y-63577278D01*
X174853501Y-63509000D01*
X174874043Y-63441041D01*
X174926247Y-63395805D01*
X175109616Y-63310299D01*
X175109619Y-63310297D01*
X175114597Y-63307976D01*
X175290681Y-63184681D01*
X175442681Y-63032681D01*
X175565976Y-62856596D01*
X175656822Y-62661777D01*
X175712458Y-62454142D01*
X175731193Y-62240000D01*
X175712458Y-62025858D01*
X175656822Y-61818223D01*
X175565976Y-61623404D01*
X175442681Y-61447319D01*
X175290681Y-61295319D01*
X175114597Y-61172024D01*
X175109619Y-61169703D01*
X175109616Y-61169701D01*
X174925656Y-61083919D01*
X174872371Y-61037002D01*
X174852910Y-60968724D01*
X174873452Y-60900764D01*
X174925656Y-60855529D01*
X175109359Y-60769868D01*
X175118854Y-60764385D01*
X175153607Y-60740051D01*
X175161983Y-60729572D01*
X175154916Y-60716127D01*
X174510811Y-60072021D01*
X174496868Y-60064408D01*
X174495034Y-60064539D01*
X174488420Y-60068790D01*
X173840360Y-60716851D01*
X173833933Y-60728621D01*
X173843227Y-60740635D01*
X173877146Y-60764385D01*
X173886641Y-60769868D01*
X174070344Y-60855529D01*
X174123629Y-60902446D01*
X174143090Y-60970723D01*
X174122548Y-61038683D01*
X174070344Y-61083919D01*
X173886385Y-61169701D01*
X173886382Y-61169703D01*
X173881404Y-61172024D01*
X173705319Y-61295319D01*
X173553319Y-61447319D01*
X173430024Y-61623404D01*
X173339178Y-61818223D01*
X173283542Y-62025858D01*
X173264807Y-62240000D01*
X173283542Y-62454142D01*
X173339178Y-62661777D01*
X173430024Y-62856596D01*
X173553319Y-63032681D01*
X173705319Y-63184681D01*
X173881403Y-63307976D01*
X173886381Y-63310297D01*
X173886384Y-63310299D01*
X174069753Y-63395805D01*
X174123038Y-63442722D01*
X174142499Y-63511000D01*
X174121957Y-63578959D01*
X174069753Y-63624195D01*
X173886385Y-63709701D01*
X173886382Y-63709703D01*
X173881404Y-63712024D01*
X173705319Y-63835319D01*
X173553319Y-63987319D01*
X173430024Y-64163404D01*
X173339178Y-64358223D01*
X173283542Y-64565858D01*
X173264807Y-64780000D01*
X162408500Y-64780000D01*
X162408500Y-59705475D01*
X173265788Y-59705475D01*
X173283557Y-59908575D01*
X173285460Y-59919368D01*
X173338226Y-60116295D01*
X173341972Y-60126587D01*
X173428135Y-60311364D01*
X173433613Y-60320850D01*
X173457949Y-60355607D01*
X173468428Y-60363983D01*
X173481872Y-60356917D01*
X174125979Y-59712811D01*
X174132356Y-59701132D01*
X174862408Y-59701132D01*
X174862539Y-59702966D01*
X174866790Y-59709580D01*
X175514851Y-60357640D01*
X175526621Y-60364067D01*
X175538635Y-60354772D01*
X175562387Y-60320850D01*
X175567865Y-60311364D01*
X175654028Y-60126587D01*
X175657774Y-60116295D01*
X175710540Y-59919368D01*
X175712443Y-59908575D01*
X175719656Y-59826134D01*
X189390500Y-59826134D01*
X189397255Y-59888316D01*
X189448385Y-60024705D01*
X189535739Y-60141261D01*
X189652295Y-60228615D01*
X189788684Y-60279745D01*
X189850866Y-60286500D01*
X191647134Y-60286500D01*
X191709316Y-60279745D01*
X191845705Y-60228615D01*
X191962261Y-60141261D01*
X192049615Y-60024705D01*
X192089104Y-59919368D01*
X192093798Y-59906848D01*
X192136440Y-59850084D01*
X192203001Y-59825384D01*
X192272350Y-59840592D01*
X192307017Y-59868580D01*
X192332218Y-59897673D01*
X192339580Y-59904883D01*
X192503434Y-60040916D01*
X192511881Y-60046831D01*
X192695756Y-60154279D01*
X192705042Y-60158729D01*
X192904001Y-60234703D01*
X192913899Y-60237579D01*
X193017250Y-60258606D01*
X193031299Y-60257410D01*
X193035000Y-60247065D01*
X193035000Y-60246517D01*
X193543000Y-60246517D01*
X193547064Y-60260359D01*
X193560478Y-60262393D01*
X193567184Y-60261534D01*
X193577262Y-60259392D01*
X193781255Y-60198191D01*
X193790842Y-60194433D01*
X193982095Y-60100739D01*
X193990945Y-60095464D01*
X194164328Y-59971792D01*
X194172200Y-59965139D01*
X194323052Y-59814812D01*
X194329730Y-59806965D01*
X194454003Y-59634020D01*
X194459313Y-59625183D01*
X194553670Y-59434267D01*
X194557469Y-59424672D01*
X194619377Y-59220910D01*
X194621555Y-59210837D01*
X194622986Y-59199962D01*
X194620775Y-59185778D01*
X194607617Y-59182000D01*
X193561115Y-59182000D01*
X193545876Y-59186475D01*
X193544671Y-59187865D01*
X193543000Y-59195548D01*
X193543000Y-60246517D01*
X193035000Y-60246517D01*
X193035000Y-58655885D01*
X193543000Y-58655885D01*
X193547475Y-58671124D01*
X193548865Y-58672329D01*
X193556548Y-58674000D01*
X194607344Y-58674000D01*
X194620875Y-58670027D01*
X194622180Y-58660947D01*
X194580214Y-58493875D01*
X194576894Y-58484124D01*
X194491972Y-58288814D01*
X194487105Y-58279739D01*
X194371426Y-58100926D01*
X194365136Y-58092757D01*
X194221806Y-57935240D01*
X194214273Y-57928215D01*
X194047139Y-57796222D01*
X194038552Y-57790517D01*
X193852117Y-57687599D01*
X193842705Y-57683369D01*
X193641959Y-57612280D01*
X193631988Y-57609646D01*
X193560837Y-57596972D01*
X193547540Y-57598432D01*
X193543000Y-57612989D01*
X193543000Y-58655885D01*
X193035000Y-58655885D01*
X193035000Y-57611102D01*
X193031082Y-57597758D01*
X193016806Y-57595771D01*
X192978324Y-57601660D01*
X192968288Y-57604051D01*
X192765868Y-57670212D01*
X192756359Y-57674209D01*
X192567463Y-57772542D01*
X192558738Y-57778036D01*
X192388433Y-57905905D01*
X192380726Y-57912748D01*
X192303478Y-57993584D01*
X192241954Y-58029014D01*
X192171042Y-58025557D01*
X192113255Y-57984311D01*
X192094402Y-57950763D01*
X192052767Y-57839703D01*
X192049615Y-57831295D01*
X191962261Y-57714739D01*
X191845705Y-57627385D01*
X191709316Y-57576255D01*
X191647134Y-57569500D01*
X189850866Y-57569500D01*
X189788684Y-57576255D01*
X189652295Y-57627385D01*
X189535739Y-57714739D01*
X189448385Y-57831295D01*
X189397255Y-57967684D01*
X189390500Y-58029866D01*
X189390500Y-59826134D01*
X175719656Y-59826134D01*
X175730212Y-59705475D01*
X175730212Y-59694525D01*
X175712443Y-59491425D01*
X175710540Y-59480632D01*
X175657774Y-59283705D01*
X175654028Y-59273413D01*
X175567865Y-59088636D01*
X175562387Y-59079150D01*
X175538051Y-59044393D01*
X175527572Y-59036017D01*
X175514128Y-59043083D01*
X174870021Y-59687189D01*
X174862408Y-59701132D01*
X174132356Y-59701132D01*
X174133592Y-59698868D01*
X174133461Y-59697034D01*
X174129210Y-59690420D01*
X173481149Y-59042360D01*
X173469379Y-59035933D01*
X173457365Y-59045228D01*
X173433613Y-59079150D01*
X173428135Y-59088636D01*
X173341972Y-59273413D01*
X173338226Y-59283705D01*
X173285460Y-59480632D01*
X173283557Y-59491425D01*
X173265788Y-59694525D01*
X173265788Y-59705475D01*
X162408500Y-59705475D01*
X162408500Y-58670428D01*
X173834017Y-58670428D01*
X173841083Y-58683872D01*
X174485189Y-59327979D01*
X174499132Y-59335592D01*
X174500966Y-59335461D01*
X174507580Y-59331210D01*
X175155640Y-58683149D01*
X175162067Y-58671379D01*
X175152773Y-58659365D01*
X175118854Y-58635615D01*
X175109359Y-58630132D01*
X174924587Y-58543972D01*
X174914295Y-58540226D01*
X174717368Y-58487460D01*
X174706575Y-58485557D01*
X174503475Y-58467788D01*
X174492525Y-58467788D01*
X174289425Y-58485557D01*
X174278632Y-58487460D01*
X174081705Y-58540226D01*
X174071413Y-58543972D01*
X173886636Y-58630135D01*
X173877150Y-58635613D01*
X173842393Y-58659949D01*
X173834017Y-58670428D01*
X162408500Y-58670428D01*
X162408500Y-53963250D01*
X162408988Y-53957404D01*
X162736941Y-53957404D01*
X162763091Y-54256292D01*
X162764001Y-54260364D01*
X162764002Y-54260369D01*
X162827628Y-54545016D01*
X162828540Y-54549095D01*
X162932140Y-54830671D01*
X162934084Y-54834359D01*
X162934088Y-54834367D01*
X163030805Y-55017807D01*
X163072069Y-55096071D01*
X163245871Y-55340633D01*
X163450490Y-55560061D01*
X163682333Y-55750498D01*
X163937325Y-55908600D01*
X164210988Y-56031589D01*
X164385368Y-56083574D01*
X164494514Y-56116112D01*
X164494516Y-56116112D01*
X164498513Y-56117304D01*
X164502633Y-56117957D01*
X164502635Y-56117957D01*
X164621509Y-56136785D01*
X164794848Y-56164239D01*
X164837577Y-56166179D01*
X164887262Y-56168436D01*
X164887281Y-56168436D01*
X164888681Y-56168500D01*
X165076107Y-56168500D01*
X165299370Y-56153671D01*
X165303464Y-56152846D01*
X165303468Y-56152845D01*
X165444513Y-56124405D01*
X165593480Y-56094368D01*
X165877163Y-55996688D01*
X165880896Y-55994819D01*
X165880900Y-55994817D01*
X166141691Y-55864222D01*
X166141693Y-55864221D01*
X166145435Y-55862347D01*
X166313915Y-55747849D01*
X166390125Y-55696057D01*
X166390128Y-55696055D01*
X166393584Y-55693706D01*
X166617248Y-55493726D01*
X166632590Y-55475826D01*
X166809779Y-55269097D01*
X166809782Y-55269093D01*
X166812499Y-55265923D01*
X166814773Y-55262421D01*
X166814777Y-55262416D01*
X166973628Y-55017807D01*
X166973631Y-55017802D01*
X166975907Y-55014297D01*
X167104600Y-54743270D01*
X167196318Y-54457604D01*
X167249448Y-54162316D01*
X167258754Y-53957404D01*
X204536941Y-53957404D01*
X204563091Y-54256292D01*
X204564001Y-54260364D01*
X204564002Y-54260369D01*
X204627628Y-54545016D01*
X204628540Y-54549095D01*
X204732140Y-54830671D01*
X204734084Y-54834359D01*
X204734088Y-54834367D01*
X204830805Y-55017807D01*
X204872069Y-55096071D01*
X205045871Y-55340633D01*
X205250490Y-55560061D01*
X205482333Y-55750498D01*
X205737325Y-55908600D01*
X206010988Y-56031589D01*
X206185368Y-56083574D01*
X206294514Y-56116112D01*
X206294516Y-56116112D01*
X206298513Y-56117304D01*
X206302633Y-56117957D01*
X206302635Y-56117957D01*
X206421509Y-56136785D01*
X206594848Y-56164239D01*
X206637577Y-56166179D01*
X206687262Y-56168436D01*
X206687281Y-56168436D01*
X206688681Y-56168500D01*
X206876107Y-56168500D01*
X207099370Y-56153671D01*
X207103464Y-56152846D01*
X207103468Y-56152845D01*
X207244513Y-56124405D01*
X207393480Y-56094368D01*
X207677163Y-55996688D01*
X207680896Y-55994819D01*
X207680900Y-55994817D01*
X207941691Y-55864222D01*
X207941693Y-55864221D01*
X207945435Y-55862347D01*
X208113915Y-55747849D01*
X208190125Y-55696057D01*
X208190128Y-55696055D01*
X208193584Y-55693706D01*
X208417248Y-55493726D01*
X208432590Y-55475826D01*
X208609779Y-55269097D01*
X208609782Y-55269093D01*
X208612499Y-55265923D01*
X208614773Y-55262421D01*
X208614777Y-55262416D01*
X208773628Y-55017807D01*
X208773631Y-55017802D01*
X208775907Y-55014297D01*
X208904600Y-54743270D01*
X208996318Y-54457604D01*
X209049448Y-54162316D01*
X209058967Y-53952723D01*
X209062870Y-53866766D01*
X209062870Y-53866760D01*
X209063059Y-53862596D01*
X209036909Y-53563708D01*
X209032510Y-53544025D01*
X208972372Y-53274984D01*
X208972371Y-53274981D01*
X208971460Y-53270905D01*
X208867860Y-52989329D01*
X208865916Y-52985641D01*
X208865912Y-52985633D01*
X208729884Y-52727633D01*
X208729883Y-52727632D01*
X208727931Y-52723929D01*
X208554129Y-52479367D01*
X208349510Y-52259939D01*
X208117667Y-52069502D01*
X207862675Y-51911400D01*
X207589012Y-51788411D01*
X207375650Y-51724805D01*
X207305486Y-51703888D01*
X207305484Y-51703888D01*
X207301487Y-51702696D01*
X207297367Y-51702043D01*
X207297365Y-51702043D01*
X207178491Y-51683215D01*
X207005152Y-51655761D01*
X206962423Y-51653821D01*
X206912738Y-51651564D01*
X206912719Y-51651564D01*
X206911319Y-51651500D01*
X206723893Y-51651500D01*
X206500630Y-51666329D01*
X206496536Y-51667154D01*
X206496532Y-51667155D01*
X206355487Y-51695595D01*
X206206520Y-51725632D01*
X205922837Y-51823312D01*
X205919104Y-51825181D01*
X205919100Y-51825183D01*
X205658309Y-51955778D01*
X205654565Y-51957653D01*
X205627565Y-51976002D01*
X205470403Y-52082809D01*
X205406416Y-52126294D01*
X205182752Y-52326274D01*
X205180035Y-52329444D01*
X205180034Y-52329445D01*
X205007076Y-52531239D01*
X204987501Y-52554077D01*
X204985227Y-52557579D01*
X204985223Y-52557584D01*
X204832909Y-52792127D01*
X204824093Y-52805703D01*
X204822299Y-52809482D01*
X204822298Y-52809483D01*
X204793630Y-52869857D01*
X204695400Y-53076730D01*
X204694121Y-53080713D01*
X204694120Y-53080716D01*
X204619255Y-53313891D01*
X204603682Y-53362396D01*
X204602941Y-53366515D01*
X204558616Y-53612868D01*
X204550552Y-53657684D01*
X204550363Y-53661851D01*
X204550362Y-53661858D01*
X204537130Y-53953234D01*
X204536941Y-53957404D01*
X167258754Y-53957404D01*
X167258967Y-53952723D01*
X167262870Y-53866766D01*
X167262870Y-53866760D01*
X167263059Y-53862596D01*
X167236909Y-53563708D01*
X167232510Y-53544025D01*
X167172372Y-53274984D01*
X167172371Y-53274981D01*
X167171460Y-53270905D01*
X167067860Y-52989329D01*
X167065916Y-52985641D01*
X167065912Y-52985633D01*
X166929884Y-52727633D01*
X166929883Y-52727632D01*
X166927931Y-52723929D01*
X166754129Y-52479367D01*
X166549510Y-52259939D01*
X166317667Y-52069502D01*
X166062675Y-51911400D01*
X165789012Y-51788411D01*
X165575650Y-51724805D01*
X165505486Y-51703888D01*
X165505484Y-51703888D01*
X165501487Y-51702696D01*
X165497367Y-51702043D01*
X165497365Y-51702043D01*
X165378491Y-51683215D01*
X165205152Y-51655761D01*
X165162423Y-51653821D01*
X165112738Y-51651564D01*
X165112719Y-51651564D01*
X165111319Y-51651500D01*
X164923893Y-51651500D01*
X164700630Y-51666329D01*
X164696536Y-51667154D01*
X164696532Y-51667155D01*
X164555487Y-51695595D01*
X164406520Y-51725632D01*
X164122837Y-51823312D01*
X164119104Y-51825181D01*
X164119100Y-51825183D01*
X163858309Y-51955778D01*
X163854565Y-51957653D01*
X163827565Y-51976002D01*
X163670403Y-52082809D01*
X163606416Y-52126294D01*
X163382752Y-52326274D01*
X163380035Y-52329444D01*
X163380034Y-52329445D01*
X163207076Y-52531239D01*
X163187501Y-52554077D01*
X163185227Y-52557579D01*
X163185223Y-52557584D01*
X163032909Y-52792127D01*
X163024093Y-52805703D01*
X163022299Y-52809482D01*
X163022298Y-52809483D01*
X162993630Y-52869857D01*
X162895400Y-53076730D01*
X162894121Y-53080713D01*
X162894120Y-53080716D01*
X162819255Y-53313891D01*
X162803682Y-53362396D01*
X162802941Y-53366515D01*
X162758616Y-53612868D01*
X162750552Y-53657684D01*
X162750363Y-53661851D01*
X162750362Y-53661858D01*
X162737130Y-53953234D01*
X162736941Y-53957404D01*
X162408988Y-53957404D01*
X162410246Y-53942345D01*
X162412770Y-53927344D01*
X162412770Y-53927341D01*
X162413576Y-53922552D01*
X162413729Y-53910000D01*
X162413040Y-53905190D01*
X162413039Y-53905172D01*
X162411751Y-53896181D01*
X162410676Y-53871254D01*
X162411395Y-53858444D01*
X162424398Y-53626905D01*
X162425980Y-53612868D01*
X162433519Y-53568500D01*
X162457281Y-53428642D01*
X162472289Y-53340313D01*
X162475433Y-53326538D01*
X162551968Y-53060880D01*
X162556635Y-53047543D01*
X162630234Y-52869857D01*
X162662433Y-52792123D01*
X162668562Y-52779396D01*
X162802294Y-52537427D01*
X162809801Y-52525479D01*
X162969796Y-52299987D01*
X162978594Y-52288955D01*
X163162819Y-52082808D01*
X163172809Y-52072818D01*
X163176520Y-52069502D01*
X163378955Y-51888594D01*
X163389987Y-51879796D01*
X163615479Y-51719801D01*
X163627427Y-51712294D01*
X163869400Y-51578560D01*
X163882123Y-51572433D01*
X164019564Y-51515503D01*
X164137543Y-51466635D01*
X164150880Y-51461968D01*
X164416538Y-51385433D01*
X164430313Y-51382289D01*
X164607769Y-51352138D01*
X164702873Y-51335979D01*
X164716905Y-51334398D01*
X164797256Y-51329886D01*
X164957593Y-51320882D01*
X164984038Y-51322183D01*
X164984851Y-51322310D01*
X164984855Y-51322310D01*
X164993724Y-51323691D01*
X165002626Y-51322527D01*
X165002628Y-51322527D01*
X165017677Y-51320559D01*
X165025286Y-51319564D01*
X165041621Y-51318500D01*
X169403100Y-51318500D01*
X169471221Y-51338502D01*
G37*
G04 #@! TD.AperFunction*
G04 #@! TD*
M02*
