M48
; DRILL file {KiCad 6.0.11} date Вт 14 окт 2025 23:20:25
; FORMAT={-:-/ absolute / metric / decimal}
; #@! TF.CreationDate,2025-10-14T23:20:25+03:00
; #@! TF.GenerationSoftware,Kicad,Pcbnew,6.0.11
; #@! TF.FileFunction,Plated,1,2,PTH
FMAT,2
METRIC
; #@! TA.AperFunction,Plated,PTH,ComponentDrill
T1C0.400
; #@! TA.AperFunction,Plated,PTH,ComponentDrill
T2C0.800
; #@! TA.AperFunction,Plated,PTH,ComponentDrill
T3C1.000
; #@! TA.AperFunction,Plated,PTH,ComponentDrill
T4C2.200
%
G90
G05
T1
X163.35Y-53.91
X163.35Y-93.71
X163.833Y-52.743
X163.833Y-55.077
X163.833Y-92.543
X163.833Y-94.877
X165.0Y-52.26
X165.0Y-55.56
X165.0Y-92.06
X165.0Y-95.36
X166.167Y-52.743
X166.167Y-55.077
X166.167Y-92.543
X166.167Y-94.877
X166.65Y-53.91
X166.65Y-93.71
X205.15Y-53.91
X205.15Y-93.71
X205.633Y-52.743
X205.633Y-55.077
X205.633Y-92.543
X205.633Y-94.877
X206.8Y-52.26
X206.8Y-55.56
X206.8Y-92.06
X206.8Y-95.36
X207.967Y-52.743
X207.967Y-55.077
X207.967Y-92.543
X207.967Y-94.877
X208.45Y-53.91
X208.45Y-93.71
T2
X174.498Y-59.7
X174.498Y-62.24
X174.498Y-64.78
X174.498Y-70.622
X174.498Y-73.162
X174.498Y-75.702
T3
X170.678Y-52.21
X170.708Y-92.87
X170.708Y-95.41
X173.218Y-52.21
X173.248Y-92.87
X173.248Y-95.41
X173.736Y-80.782
X173.736Y-83.322
X173.736Y-85.862
X173.736Y-88.402
X175.758Y-52.21
X175.788Y-92.87
X175.788Y-95.41
X178.298Y-52.21
X178.328Y-92.87
X178.328Y-95.41
X180.838Y-52.21
X180.868Y-92.87
X180.868Y-95.41
X183.378Y-52.21
X183.408Y-92.87
X183.408Y-95.41
X185.918Y-52.21
X185.948Y-92.87
X185.948Y-95.41
X188.458Y-52.21
X188.488Y-92.87
X188.488Y-95.41
X190.749Y-58.928
X190.998Y-52.21
X191.028Y-92.87
X191.028Y-95.41
X193.289Y-58.928
X193.538Y-52.21
X193.568Y-92.87
X193.568Y-95.41
X196.078Y-52.21
X196.108Y-92.87
X196.108Y-95.41
X198.618Y-52.21
X198.648Y-92.87
X198.648Y-95.41
X201.158Y-52.21
X201.188Y-92.87
X201.188Y-95.41
T4
X165.0Y-53.91
X165.0Y-93.71
X206.8Y-53.91
X206.8Y-93.71
T0
M30
