G04 #@! TF.GenerationSoftware,KiCad,Pcbnew,6.0.11*
G04 #@! TF.CreationDate,2026-01-28T19:54:40+03:00*
G04 #@! TF.ProjectId,rns-gate,726e732d-6761-4746-952e-6b696361645f,rev?*
G04 #@! TF.SameCoordinates,Original*
G04 #@! TF.FileFunction,Legend,Top*
G04 #@! TF.FilePolarity,Positive*
%FSLAX46Y46*%
G04 Gerber Fmt 4.6, Leading zero omitted, Abs format (unit mm)*
G04 Created by KiCad (PCBNEW 6.0.11) date 2026-01-28 19:54:40*
%MOMM*%
%LPD*%
G01*
G04 APERTURE LIST*
%ADD10C,0.150000*%
%ADD11C,0.120000*%
G04 APERTURE END LIST*
D10*
X187670952Y-55425780D02*
X187337619Y-54949590D01*
X187099523Y-55425780D02*
X187099523Y-54425780D01*
X187480476Y-54425780D01*
X187575714Y-54473400D01*
X187623333Y-54521019D01*
X187670952Y-54616257D01*
X187670952Y-54759114D01*
X187623333Y-54854352D01*
X187575714Y-54901971D01*
X187480476Y-54949590D01*
X187099523Y-54949590D01*
X188099523Y-55425780D02*
X188099523Y-54425780D01*
X188670952Y-55425780D01*
X188670952Y-54425780D01*
X189099523Y-55378161D02*
X189242380Y-55425780D01*
X189480476Y-55425780D01*
X189575714Y-55378161D01*
X189623333Y-55330542D01*
X189670952Y-55235304D01*
X189670952Y-55140066D01*
X189623333Y-55044828D01*
X189575714Y-54997209D01*
X189480476Y-54949590D01*
X189290000Y-54901971D01*
X189194761Y-54854352D01*
X189147142Y-54806733D01*
X189099523Y-54711495D01*
X189099523Y-54616257D01*
X189147142Y-54521019D01*
X189194761Y-54473400D01*
X189290000Y-54425780D01*
X189528095Y-54425780D01*
X189670952Y-54473400D01*
X190099523Y-55044828D02*
X190861428Y-55044828D01*
X191861428Y-54473400D02*
X191766190Y-54425780D01*
X191623333Y-54425780D01*
X191480476Y-54473400D01*
X191385238Y-54568638D01*
X191337619Y-54663876D01*
X191290000Y-54854352D01*
X191290000Y-54997209D01*
X191337619Y-55187685D01*
X191385238Y-55282923D01*
X191480476Y-55378161D01*
X191623333Y-55425780D01*
X191718571Y-55425780D01*
X191861428Y-55378161D01*
X191909047Y-55330542D01*
X191909047Y-54997209D01*
X191718571Y-54997209D01*
X192766190Y-55425780D02*
X192766190Y-54901971D01*
X192718571Y-54806733D01*
X192623333Y-54759114D01*
X192432857Y-54759114D01*
X192337619Y-54806733D01*
X192766190Y-55378161D02*
X192670952Y-55425780D01*
X192432857Y-55425780D01*
X192337619Y-55378161D01*
X192290000Y-55282923D01*
X192290000Y-55187685D01*
X192337619Y-55092447D01*
X192432857Y-55044828D01*
X192670952Y-55044828D01*
X192766190Y-54997209D01*
X193099523Y-54759114D02*
X193480476Y-54759114D01*
X193242380Y-54425780D02*
X193242380Y-55282923D01*
X193290000Y-55378161D01*
X193385238Y-55425780D01*
X193480476Y-55425780D01*
X194194761Y-55378161D02*
X194099523Y-55425780D01*
X193909047Y-55425780D01*
X193813809Y-55378161D01*
X193766190Y-55282923D01*
X193766190Y-54901971D01*
X193813809Y-54806733D01*
X193909047Y-54759114D01*
X194099523Y-54759114D01*
X194194761Y-54806733D01*
X194242380Y-54901971D01*
X194242380Y-54997209D01*
X193766190Y-55092447D01*
X195861428Y-55425780D02*
X195861428Y-54425780D01*
X195861428Y-55378161D02*
X195766190Y-55425780D01*
X195575714Y-55425780D01*
X195480476Y-55378161D01*
X195432857Y-55330542D01*
X195385238Y-55235304D01*
X195385238Y-54949590D01*
X195432857Y-54854352D01*
X195480476Y-54806733D01*
X195575714Y-54759114D01*
X195766190Y-54759114D01*
X195861428Y-54806733D01*
X196718571Y-55378161D02*
X196623333Y-55425780D01*
X196432857Y-55425780D01*
X196337619Y-55378161D01*
X196290000Y-55282923D01*
X196290000Y-54901971D01*
X196337619Y-54806733D01*
X196432857Y-54759114D01*
X196623333Y-54759114D01*
X196718571Y-54806733D01*
X196766190Y-54901971D01*
X196766190Y-54997209D01*
X196290000Y-55092447D01*
X198528095Y-55425780D02*
X198194761Y-54949590D01*
X197956666Y-55425780D02*
X197956666Y-54425780D01*
X198337619Y-54425780D01*
X198432857Y-54473400D01*
X198480476Y-54521019D01*
X198528095Y-54616257D01*
X198528095Y-54759114D01*
X198480476Y-54854352D01*
X198432857Y-54901971D01*
X198337619Y-54949590D01*
X197956666Y-54949590D01*
X199480476Y-55425780D02*
X198909047Y-55425780D01*
X199194761Y-55425780D02*
X199194761Y-54425780D01*
X199099523Y-54568638D01*
X199004285Y-54663876D01*
X198909047Y-54711495D01*
X200480476Y-55330542D02*
X200432857Y-55378161D01*
X200290000Y-55425780D01*
X200194761Y-55425780D01*
X200051904Y-55378161D01*
X199956666Y-55282923D01*
X199909047Y-55187685D01*
X199861428Y-54997209D01*
X199861428Y-54854352D01*
X199909047Y-54663876D01*
X199956666Y-54568638D01*
X200051904Y-54473400D01*
X200194761Y-54425780D01*
X200290000Y-54425780D01*
X200432857Y-54473400D01*
X200480476Y-54521019D01*
X201242380Y-54901971D02*
X201385238Y-54949590D01*
X201432857Y-54997209D01*
X201480476Y-55092447D01*
X201480476Y-55235304D01*
X201432857Y-55330542D01*
X201385238Y-55378161D01*
X201290000Y-55425780D01*
X200909047Y-55425780D01*
X200909047Y-54425780D01*
X201242380Y-54425780D01*
X201337619Y-54473400D01*
X201385238Y-54521019D01*
X201432857Y-54616257D01*
X201432857Y-54711495D01*
X201385238Y-54806733D01*
X201337619Y-54854352D01*
X201242380Y-54901971D01*
X200909047Y-54901971D01*
X201909047Y-54425780D02*
X201909047Y-55235304D01*
X201956666Y-55330542D01*
X202004285Y-55378161D01*
X202099523Y-55425780D01*
X202290000Y-55425780D01*
X202385238Y-55378161D01*
X202432857Y-55330542D01*
X202480476Y-55235304D01*
X202480476Y-54425780D01*
X190790000Y-57035780D02*
X190313809Y-57035780D01*
X190313809Y-56035780D01*
X191266190Y-57035780D02*
X191170952Y-56988161D01*
X191123333Y-56940542D01*
X191075714Y-56845304D01*
X191075714Y-56559590D01*
X191123333Y-56464352D01*
X191170952Y-56416733D01*
X191266190Y-56369114D01*
X191409047Y-56369114D01*
X191504285Y-56416733D01*
X191551904Y-56464352D01*
X191599523Y-56559590D01*
X191599523Y-56845304D01*
X191551904Y-56940542D01*
X191504285Y-56988161D01*
X191409047Y-57035780D01*
X191266190Y-57035780D01*
X192028095Y-57035780D02*
X192028095Y-56369114D01*
X192028095Y-56559590D02*
X192075714Y-56464352D01*
X192123333Y-56416733D01*
X192218571Y-56369114D01*
X192313809Y-56369114D01*
X193075714Y-57035780D02*
X193075714Y-56511971D01*
X193028095Y-56416733D01*
X192932857Y-56369114D01*
X192742380Y-56369114D01*
X192647142Y-56416733D01*
X193075714Y-56988161D02*
X192980476Y-57035780D01*
X192742380Y-57035780D01*
X192647142Y-56988161D01*
X192599523Y-56892923D01*
X192599523Y-56797685D01*
X192647142Y-56702447D01*
X192742380Y-56654828D01*
X192980476Y-56654828D01*
X193075714Y-56607209D01*
X194313809Y-57035780D02*
X194313809Y-56369114D01*
X194313809Y-56464352D02*
X194361428Y-56416733D01*
X194456666Y-56369114D01*
X194599523Y-56369114D01*
X194694761Y-56416733D01*
X194742380Y-56511971D01*
X194742380Y-57035780D01*
X194742380Y-56511971D02*
X194790000Y-56416733D01*
X194885238Y-56369114D01*
X195028095Y-56369114D01*
X195123333Y-56416733D01*
X195170952Y-56511971D01*
X195170952Y-57035780D01*
X195790000Y-57035780D02*
X195694761Y-56988161D01*
X195647142Y-56940542D01*
X195599523Y-56845304D01*
X195599523Y-56559590D01*
X195647142Y-56464352D01*
X195694761Y-56416733D01*
X195790000Y-56369114D01*
X195932857Y-56369114D01*
X196028095Y-56416733D01*
X196075714Y-56464352D01*
X196123333Y-56559590D01*
X196123333Y-56845304D01*
X196075714Y-56940542D01*
X196028095Y-56988161D01*
X195932857Y-57035780D01*
X195790000Y-57035780D01*
X196980476Y-57035780D02*
X196980476Y-56035780D01*
X196980476Y-56988161D02*
X196885238Y-57035780D01*
X196694761Y-57035780D01*
X196599523Y-56988161D01*
X196551904Y-56940542D01*
X196504285Y-56845304D01*
X196504285Y-56559590D01*
X196551904Y-56464352D01*
X196599523Y-56416733D01*
X196694761Y-56369114D01*
X196885238Y-56369114D01*
X196980476Y-56416733D01*
X197885238Y-56369114D02*
X197885238Y-57035780D01*
X197456666Y-56369114D02*
X197456666Y-56892923D01*
X197504285Y-56988161D01*
X197599523Y-57035780D01*
X197742380Y-57035780D01*
X197837619Y-56988161D01*
X197885238Y-56940542D01*
X198504285Y-57035780D02*
X198409047Y-56988161D01*
X198361428Y-56892923D01*
X198361428Y-56035780D01*
X199266190Y-56988161D02*
X199170952Y-57035780D01*
X198980476Y-57035780D01*
X198885238Y-56988161D01*
X198837619Y-56892923D01*
X198837619Y-56511971D01*
X198885238Y-56416733D01*
X198980476Y-56369114D01*
X199170952Y-56369114D01*
X199266190Y-56416733D01*
X199313809Y-56511971D01*
X199313809Y-56607209D01*
X198837619Y-56702447D01*
G04 #@! TO.C,C3*
X173541333Y-53849542D02*
X173493714Y-53897161D01*
X173350857Y-53944780D01*
X173255619Y-53944780D01*
X173112761Y-53897161D01*
X173017523Y-53801923D01*
X172969904Y-53706685D01*
X172922285Y-53516209D01*
X172922285Y-53373352D01*
X172969904Y-53182876D01*
X173017523Y-53087638D01*
X173112761Y-52992400D01*
X173255619Y-52944780D01*
X173350857Y-52944780D01*
X173493714Y-52992400D01*
X173541333Y-53040019D01*
X173874666Y-52944780D02*
X174493714Y-52944780D01*
X174160380Y-53325733D01*
X174303238Y-53325733D01*
X174398476Y-53373352D01*
X174446095Y-53420971D01*
X174493714Y-53516209D01*
X174493714Y-53754304D01*
X174446095Y-53849542D01*
X174398476Y-53897161D01*
X174303238Y-53944780D01*
X174017523Y-53944780D01*
X173922285Y-53897161D01*
X173874666Y-53849542D01*
G04 #@! TO.C,C2*
X171001333Y-53849542D02*
X170953714Y-53897161D01*
X170810857Y-53944780D01*
X170715619Y-53944780D01*
X170572761Y-53897161D01*
X170477523Y-53801923D01*
X170429904Y-53706685D01*
X170382285Y-53516209D01*
X170382285Y-53373352D01*
X170429904Y-53182876D01*
X170477523Y-53087638D01*
X170572761Y-52992400D01*
X170715619Y-52944780D01*
X170810857Y-52944780D01*
X170953714Y-52992400D01*
X171001333Y-53040019D01*
X171382285Y-53040019D02*
X171429904Y-52992400D01*
X171525142Y-52944780D01*
X171763238Y-52944780D01*
X171858476Y-52992400D01*
X171906095Y-53040019D01*
X171953714Y-53135257D01*
X171953714Y-53230495D01*
X171906095Y-53373352D01*
X171334666Y-53944780D01*
X171953714Y-53944780D01*
G04 #@! TO.C,C1*
X180653333Y-53543542D02*
X180605714Y-53591161D01*
X180462857Y-53638780D01*
X180367619Y-53638780D01*
X180224761Y-53591161D01*
X180129523Y-53495923D01*
X180081904Y-53400685D01*
X180034285Y-53210209D01*
X180034285Y-53067352D01*
X180081904Y-52876876D01*
X180129523Y-52781638D01*
X180224761Y-52686400D01*
X180367619Y-52638780D01*
X180462857Y-52638780D01*
X180605714Y-52686400D01*
X180653333Y-52734019D01*
X181605714Y-53638780D02*
X181034285Y-53638780D01*
X181320000Y-53638780D02*
X181320000Y-52638780D01*
X181224761Y-52781638D01*
X181129523Y-52876876D01*
X181034285Y-52924495D01*
G04 #@! TO.C,U1*
X185230380Y-74574304D02*
X186039904Y-74574304D01*
X186135142Y-74526685D01*
X186182761Y-74479066D01*
X186230380Y-74383828D01*
X186230380Y-74193352D01*
X186182761Y-74098114D01*
X186135142Y-74050495D01*
X186039904Y-74002876D01*
X185230380Y-74002876D01*
X186230380Y-73002876D02*
X186230380Y-73574304D01*
X186230380Y-73288590D02*
X185230380Y-73288590D01*
X185373238Y-73383828D01*
X185468476Y-73479066D01*
X185516095Y-73574304D01*
D11*
G04 #@! TO.C,C3*
X172973000Y-56801652D02*
X172973000Y-56279148D01*
X174443000Y-56801652D02*
X174443000Y-56279148D01*
G04 #@! TO.C,C2*
X170433000Y-56801652D02*
X170433000Y-56279148D01*
X171903000Y-56801652D02*
X171903000Y-56279148D01*
G04 #@! TO.C,C1*
X176235000Y-54026400D02*
X176235000Y-58546400D01*
X176235000Y-58546400D02*
X184470000Y-58546400D01*
X184470000Y-54026400D02*
X176235000Y-54026400D01*
G04 #@! TO.C,J2*
X170708000Y-96740000D02*
X169378000Y-96740000D01*
X202518000Y-96740000D02*
X202518000Y-91540000D01*
X171978000Y-96740000D02*
X171978000Y-94140000D01*
X169378000Y-94140000D02*
X169378000Y-91540000D01*
X169378000Y-91540000D02*
X202518000Y-91540000D01*
X171978000Y-94140000D02*
X169378000Y-94140000D01*
X169378000Y-96740000D02*
X169378000Y-95410000D01*
X171978000Y-96740000D02*
X202518000Y-96740000D01*
G04 #@! TO.C,U1*
X164958000Y-59842400D02*
X164958000Y-87782400D01*
X205598000Y-59842400D02*
X164958000Y-59842400D01*
X185278000Y-87782400D02*
X205598000Y-87782400D01*
X164958000Y-87782400D02*
X185278000Y-87782400D01*
X205598000Y-87782400D02*
X205598000Y-59842400D01*
G04 #@! TD*
M02*
