G04 #@! TF.GenerationSoftware,KiCad,Pcbnew,6.0.11*
G04 #@! TF.CreationDate,2026-01-28T19:54:40+03:00*
G04 #@! TF.ProjectId,rns-gate,726e732d-6761-4746-952e-6b696361645f,rev?*
G04 #@! TF.SameCoordinates,Original*
G04 #@! TF.FileFunction,Copper,L2,Bot*
G04 #@! TF.FilePolarity,Positive*
%FSLAX46Y46*%
G04 Gerber Fmt 4.6, Leading zero omitted, Abs format (unit mm)*
G04 Created by KiCad (PCBNEW 6.0.11) date 2026-01-28 19:54:40*
%MOMM*%
%LPD*%
G01*
G04 APERTURE LIST*
G04 #@! TA.AperFunction,ComponentPad*
%ADD10R,1.700000X1.700000*%
G04 #@! TD*
G04 #@! TA.AperFunction,ComponentPad*
%ADD11O,1.700000X1.700000*%
G04 #@! TD*
G04 #@! TA.AperFunction,ComponentPad*
%ADD12C,0.700000*%
G04 #@! TD*
G04 #@! TA.AperFunction,ComponentPad*
%ADD13C,4.400000*%
G04 #@! TD*
G04 #@! TA.AperFunction,ViaPad*
%ADD14C,0.800000*%
G04 #@! TD*
G04 #@! TA.AperFunction,Conductor*
%ADD15C,1.000000*%
G04 #@! TD*
G04 #@! TA.AperFunction,Conductor*
%ADD16C,0.250000*%
G04 #@! TD*
G04 APERTURE END LIST*
D10*
G04 #@! TO.P,J2,1,Pin_1*
G04 #@! TO.N,unconnected-(J2-Pad1)*
X170708000Y-95410000D03*
D11*
G04 #@! TO.P,J2,2,Pin_2*
G04 #@! TO.N,+5V*
X170708000Y-92870000D03*
G04 #@! TO.P,J2,3,Pin_3*
G04 #@! TO.N,/DIO1*
X173248000Y-95410000D03*
G04 #@! TO.P,J2,4,Pin_4*
G04 #@! TO.N,+5V*
X173248000Y-92870000D03*
G04 #@! TO.P,J2,5,Pin_5*
G04 #@! TO.N,/BUSY*
X175788000Y-95410000D03*
G04 #@! TO.P,J2,6,Pin_6*
G04 #@! TO.N,GND*
X175788000Y-92870000D03*
G04 #@! TO.P,J2,7,Pin_7*
G04 #@! TO.N,/NRST*
X178328000Y-95410000D03*
G04 #@! TO.P,J2,8,Pin_8*
G04 #@! TO.N,unconnected-(J2-Pad8)*
X178328000Y-92870000D03*
G04 #@! TO.P,J2,9,Pin_9*
G04 #@! TO.N,unconnected-(J2-Pad9)*
X180868000Y-95410000D03*
G04 #@! TO.P,J2,10,Pin_10*
G04 #@! TO.N,unconnected-(J2-Pad10)*
X180868000Y-92870000D03*
G04 #@! TO.P,J2,11,Pin_11*
G04 #@! TO.N,unconnected-(J2-Pad11)*
X183408000Y-95410000D03*
G04 #@! TO.P,J2,12,Pin_12*
G04 #@! TO.N,unconnected-(J2-Pad12)*
X183408000Y-92870000D03*
G04 #@! TO.P,J2,13,Pin_13*
G04 #@! TO.N,unconnected-(J2-Pad13)*
X185948000Y-95410000D03*
G04 #@! TO.P,J2,14,Pin_14*
G04 #@! TO.N,unconnected-(J2-Pad14)*
X185948000Y-92870000D03*
G04 #@! TO.P,J2,15,Pin_15*
G04 #@! TO.N,unconnected-(J2-Pad15)*
X188488000Y-95410000D03*
G04 #@! TO.P,J2,16,Pin_16*
G04 #@! TO.N,/DIO2*
X188488000Y-92870000D03*
G04 #@! TO.P,J2,17,Pin_17*
G04 #@! TO.N,unconnected-(J2-Pad17)*
X191028000Y-95410000D03*
G04 #@! TO.P,J2,18,Pin_18*
G04 #@! TO.N,/TXEN*
X191028000Y-92870000D03*
G04 #@! TO.P,J2,19,Pin_19*
G04 #@! TO.N,/MOSI*
X193568000Y-95410000D03*
G04 #@! TO.P,J2,20,Pin_20*
G04 #@! TO.N,unconnected-(J2-Pad20)*
X193568000Y-92870000D03*
G04 #@! TO.P,J2,21,Pin_21*
G04 #@! TO.N,/MISO*
X196108000Y-95410000D03*
G04 #@! TO.P,J2,22,Pin_22*
G04 #@! TO.N,/RXEN*
X196108000Y-92870000D03*
G04 #@! TO.P,J2,23,Pin_23*
G04 #@! TO.N,/SCK*
X198648000Y-95410000D03*
G04 #@! TO.P,J2,24,Pin_24*
G04 #@! TO.N,/NSS*
X198648000Y-92870000D03*
G04 #@! TO.P,J2,25,Pin_25*
G04 #@! TO.N,GND*
X201188000Y-95410000D03*
G04 #@! TO.P,J2,26,Pin_26*
G04 #@! TO.N,unconnected-(J2-Pad26)*
X201188000Y-92870000D03*
G04 #@! TD*
D12*
G04 #@! TO.P,REF1,1*
G04 #@! TO.N,N/C*
X166166726Y-52743274D03*
X165000000Y-55560000D03*
D13*
X165000000Y-53910000D03*
D12*
X163833274Y-55076726D03*
X166650000Y-53910000D03*
X163350000Y-53910000D03*
X163833274Y-52743274D03*
X165000000Y-52260000D03*
X166166726Y-55076726D03*
G04 #@! TD*
G04 #@! TO.P,REF3,1*
G04 #@! TO.N,N/C*
X166166726Y-92543274D03*
X165000000Y-95360000D03*
X163350000Y-93710000D03*
X166166726Y-94876726D03*
X165000000Y-92060000D03*
X163833274Y-92543274D03*
X166650000Y-93710000D03*
X163833274Y-94876726D03*
D13*
X165000000Y-93710000D03*
G04 #@! TD*
D12*
G04 #@! TO.P,REF2,1*
G04 #@! TO.N,N/C*
X208450000Y-53910000D03*
X206800000Y-55560000D03*
X207966726Y-52743274D03*
X206800000Y-52260000D03*
D13*
X206800000Y-53910000D03*
D12*
X205150000Y-53910000D03*
X205633274Y-52743274D03*
X207966726Y-55076726D03*
X205633274Y-55076726D03*
G04 #@! TD*
G04 #@! TO.P,REF4,1*
G04 #@! TO.N,N/C*
X205633274Y-94876726D03*
X207966726Y-92543274D03*
X206800000Y-92060000D03*
X208450000Y-93710000D03*
X205150000Y-93710000D03*
X205633274Y-92543274D03*
X206800000Y-95360000D03*
D13*
X206800000Y-93710000D03*
D12*
X207966726Y-94876726D03*
G04 #@! TD*
D14*
G04 #@! TO.N,+5V*
X172692000Y-66700400D03*
G04 #@! TO.N,/MOSI*
X181836000Y-88544400D03*
X183868000Y-90576400D03*
G04 #@! TO.N,/RXEN*
X191234000Y-78892400D03*
G04 #@! TO.N,/TXEN*
X189710000Y-78892400D03*
G04 #@! TO.N,/DIO2*
X188440000Y-78892400D03*
G04 #@! TD*
D15*
G04 #@! TO.N,+5V*
X172692000Y-66700400D02*
X173248000Y-67256400D01*
X170708000Y-92870000D02*
X173248000Y-92870000D01*
X173248000Y-67256400D02*
X173248000Y-92870000D01*
D16*
G04 #@! TO.N,/MOSI*
X183868000Y-90576400D02*
X181836000Y-88544400D01*
G04 #@! TO.N,/RXEN*
X191234000Y-87996000D02*
X196108000Y-92870000D01*
X191234000Y-78892400D02*
X191234000Y-87996000D01*
G04 #@! TO.N,/TXEN*
X191028000Y-92870000D02*
X189710000Y-91552000D01*
X189710000Y-91552000D02*
X189710000Y-78892400D01*
G04 #@! TO.N,/DIO2*
X188488000Y-92870000D02*
X188488000Y-78940400D01*
X188488000Y-78940400D02*
X188440000Y-78892400D01*
G04 #@! TD*
G04 #@! TA.AperFunction,Conductor*
G04 #@! TO.N,GND*
G36*
X205468402Y-51338502D02*
G01*
X205514895Y-51392158D01*
X205524999Y-51462432D01*
X205495505Y-51527012D01*
X205464704Y-51552785D01*
X205278074Y-51663817D01*
X205278068Y-51663821D01*
X205274814Y-51665757D01*
X205016244Y-51865243D01*
X204783513Y-52094347D01*
X204781149Y-52097314D01*
X204781146Y-52097317D01*
X204764220Y-52118558D01*
X204579991Y-52349751D01*
X204408626Y-52627757D01*
X204271902Y-52924336D01*
X204270741Y-52927940D01*
X204270741Y-52927941D01*
X204262196Y-52954477D01*
X204171797Y-53235192D01*
X204171079Y-53238903D01*
X204171078Y-53238907D01*
X204110482Y-53552105D01*
X204110481Y-53552114D01*
X204109763Y-53555824D01*
X204086698Y-53881585D01*
X204102936Y-54207759D01*
X204103577Y-54211490D01*
X204103578Y-54211498D01*
X204118109Y-54296060D01*
X204158241Y-54529619D01*
X204251814Y-54842504D01*
X204382297Y-55141881D01*
X204384220Y-55145152D01*
X204384222Y-55145156D01*
X204424680Y-55213977D01*
X204547802Y-55423414D01*
X204550103Y-55426429D01*
X204743631Y-55680012D01*
X204743636Y-55680017D01*
X204745931Y-55683025D01*
X204973814Y-55916953D01*
X205046635Y-55975607D01*
X205225196Y-56119431D01*
X205225201Y-56119435D01*
X205228149Y-56121809D01*
X205505253Y-56294627D01*
X205801112Y-56432903D01*
X206111440Y-56534634D01*
X206431742Y-56598346D01*
X206435514Y-56598633D01*
X206435522Y-56598634D01*
X206753602Y-56622829D01*
X206753607Y-56622829D01*
X206757379Y-56623116D01*
X207083633Y-56608586D01*
X207143425Y-56598634D01*
X207402037Y-56555590D01*
X207402042Y-56555589D01*
X207405778Y-56554967D01*
X207719149Y-56463034D01*
X207722616Y-56461544D01*
X207722620Y-56461543D01*
X208015721Y-56335616D01*
X208015723Y-56335615D01*
X208019205Y-56334119D01*
X208301601Y-56170091D01*
X208562245Y-55973324D01*
X208797363Y-55746670D01*
X209003549Y-55493410D01*
X209158938Y-55247133D01*
X209212205Y-55200194D01*
X209282392Y-55189505D01*
X209347216Y-55218459D01*
X209386096Y-55277864D01*
X209391500Y-55314368D01*
X209391500Y-92309620D01*
X209371498Y-92377741D01*
X209317842Y-92424234D01*
X209247568Y-92434338D01*
X209182988Y-92404844D01*
X209157554Y-92374609D01*
X209070847Y-92230590D01*
X209036226Y-92173084D01*
X209033899Y-92170100D01*
X209033894Y-92170093D01*
X208837726Y-91918558D01*
X208837724Y-91918556D01*
X208835390Y-91915563D01*
X208605070Y-91684034D01*
X208348603Y-91481852D01*
X208069705Y-91311945D01*
X208066261Y-91310379D01*
X208066257Y-91310377D01*
X207934245Y-91250355D01*
X207772414Y-91176775D01*
X207461037Y-91078300D01*
X207243492Y-91037390D01*
X207143809Y-91018645D01*
X207143807Y-91018645D01*
X207140086Y-91017945D01*
X206814208Y-90996586D01*
X206810428Y-90996794D01*
X206810427Y-90996794D01*
X206712897Y-91002162D01*
X206488124Y-91014532D01*
X206484397Y-91015193D01*
X206484393Y-91015193D01*
X206327341Y-91043027D01*
X206166557Y-91071522D01*
X206162941Y-91072624D01*
X206162933Y-91072626D01*
X205857789Y-91165627D01*
X205854167Y-91166731D01*
X205555477Y-91298781D01*
X205471051Y-91349009D01*
X205278074Y-91463817D01*
X205278068Y-91463821D01*
X205274814Y-91465757D01*
X205271812Y-91468073D01*
X205080400Y-91615747D01*
X205016244Y-91665243D01*
X204783513Y-91894347D01*
X204781149Y-91897314D01*
X204781146Y-91897317D01*
X204665362Y-92042617D01*
X204579991Y-92149751D01*
X204408626Y-92427757D01*
X204407037Y-92431204D01*
X204305009Y-92652522D01*
X204271902Y-92724336D01*
X204270741Y-92727940D01*
X204270741Y-92727941D01*
X204262196Y-92754477D01*
X204171797Y-93035192D01*
X204171079Y-93038903D01*
X204171078Y-93038907D01*
X204110482Y-93352105D01*
X204110481Y-93352114D01*
X204109763Y-93355824D01*
X204109496Y-93359600D01*
X204109495Y-93359605D01*
X204087469Y-93670689D01*
X204086698Y-93681585D01*
X204090069Y-93749292D01*
X204101994Y-93988831D01*
X204102936Y-94007759D01*
X204103577Y-94011490D01*
X204103578Y-94011498D01*
X204156881Y-94321703D01*
X204158241Y-94329619D01*
X204159329Y-94333258D01*
X204159330Y-94333261D01*
X204231464Y-94574457D01*
X204251814Y-94642504D01*
X204253327Y-94645975D01*
X204253329Y-94645981D01*
X204305570Y-94765840D01*
X204382297Y-94941881D01*
X204384220Y-94945152D01*
X204384222Y-94945156D01*
X204426584Y-95017215D01*
X204547802Y-95223414D01*
X204550103Y-95226429D01*
X204743631Y-95480012D01*
X204743636Y-95480017D01*
X204745931Y-95483025D01*
X204973814Y-95716953D01*
X205046635Y-95775607D01*
X205225196Y-95919431D01*
X205225201Y-95919435D01*
X205228149Y-95921809D01*
X205308623Y-95971997D01*
X205463501Y-96068588D01*
X205510717Y-96121608D01*
X205521773Y-96191738D01*
X205493159Y-96256713D01*
X205433959Y-96295903D01*
X205396824Y-96301500D01*
X202464260Y-96301500D01*
X202396139Y-96281498D01*
X202349646Y-96227842D01*
X202339542Y-96157568D01*
X202356256Y-96110607D01*
X202358313Y-96107183D01*
X202452670Y-95916267D01*
X202456469Y-95906672D01*
X202518377Y-95702910D01*
X202520555Y-95692837D01*
X202521986Y-95681962D01*
X202519775Y-95667778D01*
X202506617Y-95664000D01*
X201060000Y-95664000D01*
X200991879Y-95643998D01*
X200945386Y-95590342D01*
X200934000Y-95538000D01*
X200934000Y-95282000D01*
X200954002Y-95213879D01*
X201007658Y-95167386D01*
X201060000Y-95156000D01*
X202506344Y-95156000D01*
X202519875Y-95152027D01*
X202521180Y-95142947D01*
X202479214Y-94975875D01*
X202475894Y-94966124D01*
X202390972Y-94770814D01*
X202386105Y-94761739D01*
X202270426Y-94582926D01*
X202264136Y-94574757D01*
X202120806Y-94417240D01*
X202113273Y-94410215D01*
X201946139Y-94278222D01*
X201937556Y-94272520D01*
X201900602Y-94252120D01*
X201850631Y-94201687D01*
X201835859Y-94132245D01*
X201860975Y-94065839D01*
X201888327Y-94039232D01*
X201937764Y-94003969D01*
X202067860Y-93911173D01*
X202080576Y-93898502D01*
X202222435Y-93757137D01*
X202226096Y-93753489D01*
X202248327Y-93722552D01*
X202353435Y-93576277D01*
X202356453Y-93572077D01*
X202369995Y-93544678D01*
X202453136Y-93376453D01*
X202453137Y-93376451D01*
X202455430Y-93371811D01*
X202520370Y-93158069D01*
X202549529Y-92936590D01*
X202551156Y-92870000D01*
X202532852Y-92647361D01*
X202478431Y-92430702D01*
X202389354Y-92225840D01*
X202271022Y-92042926D01*
X202270822Y-92042617D01*
X202270820Y-92042614D01*
X202268014Y-92038277D01*
X202117670Y-91873051D01*
X202113619Y-91869852D01*
X202113615Y-91869848D01*
X201946414Y-91737800D01*
X201946410Y-91737798D01*
X201942359Y-91734598D01*
X201906028Y-91714542D01*
X201850762Y-91684034D01*
X201746789Y-91626638D01*
X201741920Y-91624914D01*
X201741916Y-91624912D01*
X201541087Y-91553795D01*
X201541083Y-91553794D01*
X201536212Y-91552069D01*
X201531119Y-91551162D01*
X201531116Y-91551161D01*
X201321373Y-91513800D01*
X201321367Y-91513799D01*
X201316284Y-91512894D01*
X201242452Y-91511992D01*
X201098081Y-91510228D01*
X201098079Y-91510228D01*
X201092911Y-91510165D01*
X200872091Y-91543955D01*
X200659756Y-91613357D01*
X200461607Y-91716507D01*
X200457474Y-91719610D01*
X200457471Y-91719612D01*
X200304612Y-91834382D01*
X200282965Y-91850635D01*
X200128629Y-92012138D01*
X200021201Y-92169621D01*
X199966293Y-92214621D01*
X199895768Y-92222792D01*
X199832021Y-92191538D01*
X199811324Y-92167054D01*
X199730822Y-92042617D01*
X199730820Y-92042614D01*
X199728014Y-92038277D01*
X199577670Y-91873051D01*
X199573619Y-91869852D01*
X199573615Y-91869848D01*
X199406414Y-91737800D01*
X199406410Y-91737798D01*
X199402359Y-91734598D01*
X199366028Y-91714542D01*
X199310762Y-91684034D01*
X199206789Y-91626638D01*
X199201920Y-91624914D01*
X199201916Y-91624912D01*
X199001087Y-91553795D01*
X199001083Y-91553794D01*
X198996212Y-91552069D01*
X198991119Y-91551162D01*
X198991116Y-91551161D01*
X198781373Y-91513800D01*
X198781367Y-91513799D01*
X198776284Y-91512894D01*
X198702452Y-91511992D01*
X198558081Y-91510228D01*
X198558079Y-91510228D01*
X198552911Y-91510165D01*
X198332091Y-91543955D01*
X198119756Y-91613357D01*
X197921607Y-91716507D01*
X197917474Y-91719610D01*
X197917471Y-91719612D01*
X197764612Y-91834382D01*
X197742965Y-91850635D01*
X197588629Y-92012138D01*
X197481201Y-92169621D01*
X197426293Y-92214621D01*
X197355768Y-92222792D01*
X197292021Y-92191538D01*
X197271324Y-92167054D01*
X197190822Y-92042617D01*
X197190820Y-92042614D01*
X197188014Y-92038277D01*
X197037670Y-91873051D01*
X197033619Y-91869852D01*
X197033615Y-91869848D01*
X196866414Y-91737800D01*
X196866410Y-91737798D01*
X196862359Y-91734598D01*
X196826028Y-91714542D01*
X196770762Y-91684034D01*
X196666789Y-91626638D01*
X196661920Y-91624914D01*
X196661916Y-91624912D01*
X196461087Y-91553795D01*
X196461083Y-91553794D01*
X196456212Y-91552069D01*
X196451119Y-91551162D01*
X196451116Y-91551161D01*
X196241373Y-91513800D01*
X196241367Y-91513799D01*
X196236284Y-91512894D01*
X196162452Y-91511992D01*
X196018081Y-91510228D01*
X196018079Y-91510228D01*
X196012911Y-91510165D01*
X195792091Y-91543955D01*
X195779532Y-91548060D01*
X195708568Y-91550210D01*
X195651294Y-91517389D01*
X191904405Y-87770500D01*
X191870379Y-87708188D01*
X191867500Y-87681405D01*
X191867500Y-79594924D01*
X191887502Y-79526803D01*
X191899858Y-79510621D01*
X191973040Y-79429344D01*
X192068527Y-79263956D01*
X192127542Y-79082328D01*
X192147504Y-78892400D01*
X192127542Y-78702472D01*
X192068527Y-78520844D01*
X191973040Y-78355456D01*
X191934678Y-78312850D01*
X191849675Y-78218445D01*
X191849671Y-78218441D01*
X191845253Y-78213534D01*
X191690752Y-78101282D01*
X191684724Y-78098598D01*
X191684722Y-78098597D01*
X191522319Y-78026291D01*
X191522318Y-78026291D01*
X191516288Y-78023606D01*
X191422887Y-78003753D01*
X191335944Y-77985272D01*
X191335939Y-77985272D01*
X191329487Y-77983900D01*
X191138513Y-77983900D01*
X191132061Y-77985272D01*
X191132056Y-77985272D01*
X191045113Y-78003753D01*
X190951712Y-78023606D01*
X190945682Y-78026291D01*
X190945681Y-78026291D01*
X190783278Y-78098597D01*
X190783276Y-78098598D01*
X190777248Y-78101282D01*
X190622747Y-78213534D01*
X190565635Y-78276964D01*
X190505190Y-78314202D01*
X190434206Y-78312850D01*
X190378366Y-78276964D01*
X190321253Y-78213534D01*
X190166752Y-78101282D01*
X190160724Y-78098598D01*
X190160722Y-78098597D01*
X189998319Y-78026291D01*
X189998318Y-78026291D01*
X189992288Y-78023606D01*
X189898887Y-78003753D01*
X189811944Y-77985272D01*
X189811939Y-77985272D01*
X189805487Y-77983900D01*
X189614513Y-77983900D01*
X189608061Y-77985272D01*
X189608056Y-77985272D01*
X189521113Y-78003753D01*
X189427712Y-78023606D01*
X189421682Y-78026291D01*
X189421681Y-78026291D01*
X189259278Y-78098597D01*
X189259276Y-78098598D01*
X189253248Y-78101282D01*
X189149060Y-78176979D01*
X189082194Y-78200837D01*
X189013042Y-78184757D01*
X189000944Y-78176982D01*
X188896752Y-78101282D01*
X188890724Y-78098598D01*
X188890722Y-78098597D01*
X188728319Y-78026291D01*
X188728318Y-78026291D01*
X188722288Y-78023606D01*
X188628887Y-78003753D01*
X188541944Y-77985272D01*
X188541939Y-77985272D01*
X188535487Y-77983900D01*
X188344513Y-77983900D01*
X188338061Y-77985272D01*
X188338056Y-77985272D01*
X188251113Y-78003753D01*
X188157712Y-78023606D01*
X188151682Y-78026291D01*
X188151681Y-78026291D01*
X187989278Y-78098597D01*
X187989276Y-78098598D01*
X187983248Y-78101282D01*
X187828747Y-78213534D01*
X187824329Y-78218441D01*
X187824325Y-78218445D01*
X187739323Y-78312850D01*
X187700960Y-78355456D01*
X187605473Y-78520844D01*
X187546458Y-78702472D01*
X187526496Y-78892400D01*
X187546458Y-79082328D01*
X187605473Y-79263956D01*
X187700960Y-79429344D01*
X187705375Y-79434247D01*
X187705379Y-79434252D01*
X187822136Y-79563924D01*
X187852854Y-79627931D01*
X187854500Y-79648234D01*
X187854500Y-91591692D01*
X187834498Y-91659813D01*
X187786683Y-91703453D01*
X187761607Y-91716507D01*
X187757474Y-91719610D01*
X187757471Y-91719612D01*
X187604612Y-91834382D01*
X187582965Y-91850635D01*
X187428629Y-92012138D01*
X187321201Y-92169621D01*
X187266293Y-92214621D01*
X187195768Y-92222792D01*
X187132021Y-92191538D01*
X187111324Y-92167054D01*
X187030822Y-92042617D01*
X187030820Y-92042614D01*
X187028014Y-92038277D01*
X186877670Y-91873051D01*
X186873619Y-91869852D01*
X186873615Y-91869848D01*
X186706414Y-91737800D01*
X186706410Y-91737798D01*
X186702359Y-91734598D01*
X186666028Y-91714542D01*
X186610762Y-91684034D01*
X186506789Y-91626638D01*
X186501920Y-91624914D01*
X186501916Y-91624912D01*
X186301087Y-91553795D01*
X186301083Y-91553794D01*
X186296212Y-91552069D01*
X186291119Y-91551162D01*
X186291116Y-91551161D01*
X186081373Y-91513800D01*
X186081367Y-91513799D01*
X186076284Y-91512894D01*
X186002452Y-91511992D01*
X185858081Y-91510228D01*
X185858079Y-91510228D01*
X185852911Y-91510165D01*
X185632091Y-91543955D01*
X185419756Y-91613357D01*
X185221607Y-91716507D01*
X185217474Y-91719610D01*
X185217471Y-91719612D01*
X185064612Y-91834382D01*
X185042965Y-91850635D01*
X184888629Y-92012138D01*
X184781201Y-92169621D01*
X184726293Y-92214621D01*
X184655768Y-92222792D01*
X184592021Y-92191538D01*
X184571324Y-92167054D01*
X184490822Y-92042617D01*
X184490820Y-92042614D01*
X184488014Y-92038277D01*
X184337670Y-91873051D01*
X184333619Y-91869852D01*
X184333615Y-91869848D01*
X184166414Y-91737800D01*
X184166410Y-91737798D01*
X184162359Y-91734598D01*
X184126028Y-91714542D01*
X184076314Y-91687099D01*
X184026343Y-91636666D01*
X184011571Y-91567224D01*
X184036687Y-91500818D01*
X184093718Y-91458533D01*
X184111010Y-91453544D01*
X184143822Y-91446569D01*
X184143827Y-91446567D01*
X184150288Y-91445194D01*
X184156319Y-91442509D01*
X184318722Y-91370203D01*
X184318724Y-91370202D01*
X184324752Y-91367518D01*
X184350228Y-91349009D01*
X184401241Y-91311945D01*
X184479253Y-91255266D01*
X184607040Y-91113344D01*
X184702527Y-90947956D01*
X184761542Y-90766328D01*
X184781504Y-90576400D01*
X184761542Y-90386472D01*
X184702527Y-90204844D01*
X184607040Y-90039456D01*
X184479253Y-89897534D01*
X184324752Y-89785282D01*
X184318724Y-89782598D01*
X184318722Y-89782597D01*
X184156319Y-89710291D01*
X184156318Y-89710291D01*
X184150288Y-89707606D01*
X184056887Y-89687753D01*
X183969944Y-89669272D01*
X183969939Y-89669272D01*
X183963487Y-89667900D01*
X183907594Y-89667900D01*
X183839473Y-89647898D01*
X183818499Y-89630995D01*
X182783122Y-88595617D01*
X182749096Y-88533305D01*
X182746907Y-88519692D01*
X182741610Y-88469288D01*
X182729542Y-88354472D01*
X182670527Y-88172844D01*
X182664365Y-88162170D01*
X182593746Y-88039856D01*
X182575040Y-88007456D01*
X182517757Y-87943836D01*
X182451675Y-87870445D01*
X182451674Y-87870444D01*
X182447253Y-87865534D01*
X182348157Y-87793536D01*
X182298094Y-87757163D01*
X182298093Y-87757162D01*
X182292752Y-87753282D01*
X182286724Y-87750598D01*
X182286722Y-87750597D01*
X182124319Y-87678291D01*
X182124318Y-87678291D01*
X182118288Y-87675606D01*
X182024888Y-87655753D01*
X181937944Y-87637272D01*
X181937939Y-87637272D01*
X181931487Y-87635900D01*
X181740513Y-87635900D01*
X181734061Y-87637272D01*
X181734056Y-87637272D01*
X181647112Y-87655753D01*
X181553712Y-87675606D01*
X181547682Y-87678291D01*
X181547681Y-87678291D01*
X181385278Y-87750597D01*
X181385276Y-87750598D01*
X181379248Y-87753282D01*
X181373907Y-87757162D01*
X181373906Y-87757163D01*
X181323843Y-87793536D01*
X181224747Y-87865534D01*
X181220326Y-87870444D01*
X181220325Y-87870445D01*
X181154244Y-87943836D01*
X181096960Y-88007456D01*
X181078254Y-88039856D01*
X181007636Y-88162170D01*
X181001473Y-88172844D01*
X180942458Y-88354472D01*
X180922496Y-88544400D01*
X180942458Y-88734328D01*
X181001473Y-88915956D01*
X181096960Y-89081344D01*
X181224747Y-89223266D01*
X181379248Y-89335518D01*
X181385276Y-89338202D01*
X181385278Y-89338203D01*
X181547681Y-89410509D01*
X181553712Y-89413194D01*
X181647113Y-89433047D01*
X181734056Y-89451528D01*
X181734061Y-89451528D01*
X181740513Y-89452900D01*
X181796406Y-89452900D01*
X181864527Y-89472902D01*
X181885501Y-89489805D01*
X182920878Y-90525183D01*
X182954904Y-90587495D01*
X182957093Y-90601106D01*
X182974458Y-90766328D01*
X183033473Y-90947956D01*
X183128960Y-91113344D01*
X183256747Y-91255266D01*
X183269027Y-91264188D01*
X183308390Y-91292787D01*
X183351744Y-91349009D01*
X183357819Y-91419746D01*
X183324687Y-91482537D01*
X183262867Y-91517449D01*
X183253388Y-91519273D01*
X183193853Y-91528383D01*
X183092091Y-91543955D01*
X182879756Y-91613357D01*
X182681607Y-91716507D01*
X182677474Y-91719610D01*
X182677471Y-91719612D01*
X182524612Y-91834382D01*
X182502965Y-91850635D01*
X182348629Y-92012138D01*
X182241201Y-92169621D01*
X182186293Y-92214621D01*
X182115768Y-92222792D01*
X182052021Y-92191538D01*
X182031324Y-92167054D01*
X181950822Y-92042617D01*
X181950820Y-92042614D01*
X181948014Y-92038277D01*
X181797670Y-91873051D01*
X181793619Y-91869852D01*
X181793615Y-91869848D01*
X181626414Y-91737800D01*
X181626410Y-91737798D01*
X181622359Y-91734598D01*
X181586028Y-91714542D01*
X181530762Y-91684034D01*
X181426789Y-91626638D01*
X181421920Y-91624914D01*
X181421916Y-91624912D01*
X181221087Y-91553795D01*
X181221083Y-91553794D01*
X181216212Y-91552069D01*
X181211119Y-91551162D01*
X181211116Y-91551161D01*
X181001373Y-91513800D01*
X181001367Y-91513799D01*
X180996284Y-91512894D01*
X180922452Y-91511992D01*
X180778081Y-91510228D01*
X180778079Y-91510228D01*
X180772911Y-91510165D01*
X180552091Y-91543955D01*
X180339756Y-91613357D01*
X180141607Y-91716507D01*
X180137474Y-91719610D01*
X180137471Y-91719612D01*
X179984612Y-91834382D01*
X179962965Y-91850635D01*
X179808629Y-92012138D01*
X179701201Y-92169621D01*
X179646293Y-92214621D01*
X179575768Y-92222792D01*
X179512021Y-92191538D01*
X179491324Y-92167054D01*
X179410822Y-92042617D01*
X179410820Y-92042614D01*
X179408014Y-92038277D01*
X179257670Y-91873051D01*
X179253619Y-91869852D01*
X179253615Y-91869848D01*
X179086414Y-91737800D01*
X179086410Y-91737798D01*
X179082359Y-91734598D01*
X179046028Y-91714542D01*
X178990762Y-91684034D01*
X178886789Y-91626638D01*
X178881920Y-91624914D01*
X178881916Y-91624912D01*
X178681087Y-91553795D01*
X178681083Y-91553794D01*
X178676212Y-91552069D01*
X178671119Y-91551162D01*
X178671116Y-91551161D01*
X178461373Y-91513800D01*
X178461367Y-91513799D01*
X178456284Y-91512894D01*
X178382452Y-91511992D01*
X178238081Y-91510228D01*
X178238079Y-91510228D01*
X178232911Y-91510165D01*
X178012091Y-91543955D01*
X177799756Y-91613357D01*
X177601607Y-91716507D01*
X177597474Y-91719610D01*
X177597471Y-91719612D01*
X177444612Y-91834382D01*
X177422965Y-91850635D01*
X177268629Y-92012138D01*
X177161204Y-92169618D01*
X177160898Y-92170066D01*
X177105987Y-92215069D01*
X177035462Y-92223240D01*
X176971715Y-92191986D01*
X176951018Y-92167502D01*
X176870426Y-92042926D01*
X176864136Y-92034757D01*
X176720806Y-91877240D01*
X176713273Y-91870215D01*
X176546139Y-91738222D01*
X176537552Y-91732517D01*
X176351117Y-91629599D01*
X176341705Y-91625369D01*
X176140959Y-91554280D01*
X176130988Y-91551646D01*
X176059837Y-91538972D01*
X176046540Y-91540432D01*
X176042000Y-91554989D01*
X176042000Y-92998000D01*
X176021998Y-93066121D01*
X175968342Y-93112614D01*
X175916000Y-93124000D01*
X175660000Y-93124000D01*
X175591879Y-93103998D01*
X175545386Y-93050342D01*
X175534000Y-92998000D01*
X175534000Y-91553102D01*
X175530082Y-91539758D01*
X175515806Y-91537771D01*
X175477324Y-91543660D01*
X175467288Y-91546051D01*
X175264868Y-91612212D01*
X175255359Y-91616209D01*
X175066463Y-91714542D01*
X175057738Y-91720036D01*
X174887433Y-91847905D01*
X174879726Y-91854748D01*
X174732590Y-92008717D01*
X174726109Y-92016722D01*
X174621498Y-92170074D01*
X174566587Y-92215076D01*
X174496062Y-92223247D01*
X174432315Y-92191993D01*
X174411618Y-92167509D01*
X174398210Y-92146783D01*
X174328014Y-92038277D01*
X174324532Y-92034450D01*
X174289306Y-91995737D01*
X174258254Y-91931891D01*
X174256500Y-91910938D01*
X174256500Y-67318250D01*
X174257237Y-67304642D01*
X174260659Y-67273139D01*
X174261325Y-67267012D01*
X174256947Y-67216970D01*
X174256621Y-67212188D01*
X174256500Y-67209710D01*
X174256500Y-67206631D01*
X174256201Y-67203577D01*
X174256200Y-67203566D01*
X174252313Y-67163929D01*
X174252191Y-67162615D01*
X174249083Y-67127088D01*
X174244087Y-67069987D01*
X174242600Y-67064868D01*
X174242080Y-67059567D01*
X174215209Y-66970566D01*
X174214874Y-66969433D01*
X174190630Y-66885986D01*
X174190628Y-66885982D01*
X174188909Y-66880064D01*
X174186456Y-66875332D01*
X174184916Y-66870231D01*
X174141269Y-66788140D01*
X174140657Y-66786974D01*
X174100729Y-66709947D01*
X174097892Y-66704474D01*
X174094569Y-66700311D01*
X174092066Y-66695604D01*
X174033261Y-66623502D01*
X174032433Y-66622475D01*
X174003469Y-66586192D01*
X174003464Y-66586187D01*
X174001262Y-66583428D01*
X173998761Y-66580927D01*
X173998119Y-66580209D01*
X173994406Y-66575861D01*
X173986642Y-66566341D01*
X173967065Y-66542338D01*
X173962323Y-66538415D01*
X173962321Y-66538413D01*
X173931727Y-66513103D01*
X173922947Y-66505113D01*
X173369925Y-65952091D01*
X173255739Y-65858297D01*
X173081437Y-65764838D01*
X172972781Y-65731618D01*
X172898200Y-65708816D01*
X172898198Y-65708816D01*
X172892302Y-65707013D01*
X172834449Y-65701136D01*
X172701666Y-65687648D01*
X172701661Y-65687648D01*
X172695538Y-65687026D01*
X172571475Y-65698754D01*
X172504771Y-65705059D01*
X172504769Y-65705059D01*
X172498638Y-65705639D01*
X172403871Y-65733890D01*
X172315007Y-65760381D01*
X172315005Y-65760382D01*
X172309104Y-65762141D01*
X172134154Y-65854382D01*
X171980453Y-65978847D01*
X171853854Y-66130796D01*
X171759178Y-66304441D01*
X171700035Y-66493168D01*
X171699370Y-66499291D01*
X171699369Y-66499295D01*
X171679341Y-66683663D01*
X171678676Y-66689788D01*
X171695913Y-66886813D01*
X171697632Y-66892730D01*
X171697633Y-66892735D01*
X171720283Y-66970696D01*
X171751091Y-67076736D01*
X171842108Y-67252326D01*
X171845948Y-67257136D01*
X171936542Y-67370623D01*
X171936549Y-67370630D01*
X171938738Y-67373373D01*
X172202595Y-67637230D01*
X172236621Y-67699542D01*
X172239500Y-67726325D01*
X172239500Y-91735500D01*
X172219498Y-91803621D01*
X172165842Y-91850114D01*
X172113500Y-91861500D01*
X171666799Y-91861500D01*
X171598678Y-91841498D01*
X171588707Y-91834382D01*
X171466414Y-91737800D01*
X171466410Y-91737798D01*
X171462359Y-91734598D01*
X171426028Y-91714542D01*
X171370762Y-91684034D01*
X171266789Y-91626638D01*
X171261920Y-91624914D01*
X171261916Y-91624912D01*
X171061087Y-91553795D01*
X171061083Y-91553794D01*
X171056212Y-91552069D01*
X171051119Y-91551162D01*
X171051116Y-91551161D01*
X170841373Y-91513800D01*
X170841367Y-91513799D01*
X170836284Y-91512894D01*
X170762452Y-91511992D01*
X170618081Y-91510228D01*
X170618079Y-91510228D01*
X170612911Y-91510165D01*
X170392091Y-91543955D01*
X170179756Y-91613357D01*
X169981607Y-91716507D01*
X169977474Y-91719610D01*
X169977471Y-91719612D01*
X169824612Y-91834382D01*
X169802965Y-91850635D01*
X169648629Y-92012138D01*
X169522743Y-92196680D01*
X169507003Y-92230590D01*
X169438698Y-92377741D01*
X169428688Y-92399305D01*
X169368989Y-92614570D01*
X169345251Y-92836695D01*
X169345548Y-92841848D01*
X169345548Y-92841851D01*
X169351011Y-92936590D01*
X169358110Y-93059715D01*
X169359247Y-93064761D01*
X169359248Y-93064767D01*
X169370031Y-93112614D01*
X169407222Y-93277639D01*
X169491266Y-93484616D01*
X169542019Y-93567438D01*
X169605291Y-93670688D01*
X169607987Y-93675088D01*
X169754250Y-93843938D01*
X169758230Y-93847242D01*
X169762981Y-93851187D01*
X169802616Y-93910090D01*
X169804113Y-93981071D01*
X169766997Y-94041593D01*
X169726725Y-94066112D01*
X169657485Y-94092069D01*
X169611295Y-94109385D01*
X169494739Y-94196739D01*
X169407385Y-94313295D01*
X169356255Y-94449684D01*
X169349500Y-94511866D01*
X169349500Y-96175500D01*
X169329498Y-96243621D01*
X169275842Y-96290114D01*
X169223500Y-96301500D01*
X166398826Y-96301500D01*
X166330705Y-96281498D01*
X166284212Y-96227842D01*
X166274108Y-96157568D01*
X166303602Y-96092988D01*
X166335541Y-96066546D01*
X166407729Y-96024616D01*
X166501601Y-95970091D01*
X166762245Y-95773324D01*
X166879804Y-95659997D01*
X166994632Y-95549303D01*
X166994635Y-95549300D01*
X166997363Y-95546670D01*
X167203549Y-95293410D01*
X167377815Y-95017215D01*
X167397401Y-94975875D01*
X167500264Y-94758756D01*
X167517638Y-94722084D01*
X167522501Y-94707509D01*
X167619790Y-94415897D01*
X167619792Y-94415891D01*
X167620992Y-94412293D01*
X167686381Y-94092329D01*
X167687063Y-94083955D01*
X167706315Y-93847240D01*
X167712856Y-93766826D01*
X167713451Y-93710000D01*
X167711582Y-93678990D01*
X167694026Y-93387793D01*
X167694026Y-93387789D01*
X167693798Y-93384015D01*
X167691570Y-93371811D01*
X167635805Y-93066473D01*
X167635804Y-93066469D01*
X167635125Y-93062751D01*
X167627722Y-93038907D01*
X167539404Y-92754477D01*
X167538282Y-92750863D01*
X167404670Y-92452869D01*
X167236226Y-92173084D01*
X167233899Y-92170100D01*
X167233894Y-92170093D01*
X167037726Y-91918558D01*
X167037724Y-91918556D01*
X167035390Y-91915563D01*
X166805070Y-91684034D01*
X166548603Y-91481852D01*
X166269705Y-91311945D01*
X166266261Y-91310379D01*
X166266257Y-91310377D01*
X166134245Y-91250355D01*
X165972414Y-91176775D01*
X165661037Y-91078300D01*
X165443492Y-91037390D01*
X165343809Y-91018645D01*
X165343807Y-91018645D01*
X165340086Y-91017945D01*
X165014208Y-90996586D01*
X165010428Y-90996794D01*
X165010427Y-90996794D01*
X164912897Y-91002162D01*
X164688124Y-91014532D01*
X164684397Y-91015193D01*
X164684393Y-91015193D01*
X164527341Y-91043027D01*
X164366557Y-91071522D01*
X164362941Y-91072624D01*
X164362933Y-91072626D01*
X164057789Y-91165627D01*
X164054167Y-91166731D01*
X163755477Y-91298781D01*
X163671051Y-91349009D01*
X163478074Y-91463817D01*
X163478068Y-91463821D01*
X163474814Y-91465757D01*
X163471812Y-91468073D01*
X163280400Y-91615747D01*
X163216244Y-91665243D01*
X162983513Y-91894347D01*
X162981149Y-91897314D01*
X162981146Y-91897317D01*
X162865362Y-92042617D01*
X162779991Y-92149751D01*
X162739729Y-92215069D01*
X162641760Y-92374004D01*
X162588988Y-92421497D01*
X162518916Y-92432921D01*
X162453793Y-92404647D01*
X162414293Y-92345653D01*
X162408500Y-92307888D01*
X162408500Y-55309201D01*
X162428502Y-55241080D01*
X162482158Y-55194587D01*
X162552432Y-55184483D01*
X162617012Y-55213977D01*
X162643121Y-55245346D01*
X162747802Y-55423414D01*
X162750103Y-55426429D01*
X162943631Y-55680012D01*
X162943636Y-55680017D01*
X162945931Y-55683025D01*
X163173814Y-55916953D01*
X163246635Y-55975607D01*
X163425196Y-56119431D01*
X163425201Y-56119435D01*
X163428149Y-56121809D01*
X163705253Y-56294627D01*
X164001112Y-56432903D01*
X164311440Y-56534634D01*
X164631742Y-56598346D01*
X164635514Y-56598633D01*
X164635522Y-56598634D01*
X164953602Y-56622829D01*
X164953607Y-56622829D01*
X164957379Y-56623116D01*
X165283633Y-56608586D01*
X165343425Y-56598634D01*
X165602037Y-56555590D01*
X165602042Y-56555589D01*
X165605778Y-56554967D01*
X165919149Y-56463034D01*
X165922616Y-56461544D01*
X165922620Y-56461543D01*
X166215721Y-56335616D01*
X166215723Y-56335615D01*
X166219205Y-56334119D01*
X166501601Y-56170091D01*
X166762245Y-55973324D01*
X166997363Y-55746670D01*
X167203549Y-55493410D01*
X167319776Y-55309201D01*
X167375788Y-55220428D01*
X167375790Y-55220425D01*
X167377815Y-55217215D01*
X167388536Y-55194587D01*
X167516009Y-54925522D01*
X167517638Y-54922084D01*
X167544188Y-54842504D01*
X167619790Y-54615897D01*
X167619792Y-54615891D01*
X167620992Y-54612293D01*
X167686381Y-54292329D01*
X167692956Y-54211498D01*
X167712674Y-53969061D01*
X167712856Y-53966826D01*
X167713451Y-53910000D01*
X167711510Y-53877796D01*
X167694026Y-53587793D01*
X167694026Y-53587789D01*
X167693798Y-53584015D01*
X167688660Y-53555879D01*
X167635805Y-53266473D01*
X167635804Y-53266469D01*
X167635125Y-53262751D01*
X167627722Y-53238907D01*
X167539404Y-52954477D01*
X167538282Y-52950863D01*
X167404670Y-52652869D01*
X167236226Y-52373084D01*
X167233899Y-52370100D01*
X167233894Y-52370093D01*
X167037726Y-52118558D01*
X167037724Y-52118556D01*
X167035390Y-52115563D01*
X166805070Y-51884034D01*
X166548603Y-51681852D01*
X166545378Y-51679887D01*
X166545366Y-51679879D01*
X166335627Y-51552104D01*
X166287858Y-51499582D01*
X166276069Y-51429571D01*
X166304001Y-51364300D01*
X166362787Y-51324492D01*
X166401181Y-51318500D01*
X205400281Y-51318500D01*
X205468402Y-51338502D01*
G37*
G04 #@! TD.AperFunction*
G04 #@! TD*
M02*
