G04 #@! TF.GenerationSoftware,KiCad,Pcbnew,6.0.11*
G04 #@! TF.CreationDate,2025-10-20T22:47:59+03:00*
G04 #@! TF.ProjectId,rns-gate,726e732d-6761-4746-952e-6b696361645f,rev?*
G04 #@! TF.SameCoordinates,Original*
G04 #@! TF.FileFunction,Legend,Top*
G04 #@! TF.FilePolarity,Positive*
%FSLAX46Y46*%
G04 Gerber Fmt 4.6, Leading zero omitted, Abs format (unit mm)*
G04 Created by KiCad (PCBNEW 6.0.11) date 2025-10-20 22:47:59*
%MOMM*%
%LPD*%
G01*
G04 APERTURE LIST*
%ADD10C,0.150000*%
%ADD11C,0.120000*%
G04 APERTURE END LIST*
D10*
X178526952Y-54663780D02*
X178193619Y-54187590D01*
X177955523Y-54663780D02*
X177955523Y-53663780D01*
X178336476Y-53663780D01*
X178431714Y-53711400D01*
X178479333Y-53759019D01*
X178526952Y-53854257D01*
X178526952Y-53997114D01*
X178479333Y-54092352D01*
X178431714Y-54139971D01*
X178336476Y-54187590D01*
X177955523Y-54187590D01*
X178955523Y-54663780D02*
X178955523Y-53663780D01*
X179526952Y-54663780D01*
X179526952Y-53663780D01*
X179955523Y-54616161D02*
X180098380Y-54663780D01*
X180336476Y-54663780D01*
X180431714Y-54616161D01*
X180479333Y-54568542D01*
X180526952Y-54473304D01*
X180526952Y-54378066D01*
X180479333Y-54282828D01*
X180431714Y-54235209D01*
X180336476Y-54187590D01*
X180146000Y-54139971D01*
X180050761Y-54092352D01*
X180003142Y-54044733D01*
X179955523Y-53949495D01*
X179955523Y-53854257D01*
X180003142Y-53759019D01*
X180050761Y-53711400D01*
X180146000Y-53663780D01*
X180384095Y-53663780D01*
X180526952Y-53711400D01*
X180955523Y-54282828D02*
X181717428Y-54282828D01*
X182717428Y-53711400D02*
X182622190Y-53663780D01*
X182479333Y-53663780D01*
X182336476Y-53711400D01*
X182241238Y-53806638D01*
X182193619Y-53901876D01*
X182146000Y-54092352D01*
X182146000Y-54235209D01*
X182193619Y-54425685D01*
X182241238Y-54520923D01*
X182336476Y-54616161D01*
X182479333Y-54663780D01*
X182574571Y-54663780D01*
X182717428Y-54616161D01*
X182765047Y-54568542D01*
X182765047Y-54235209D01*
X182574571Y-54235209D01*
X183622190Y-54663780D02*
X183622190Y-54139971D01*
X183574571Y-54044733D01*
X183479333Y-53997114D01*
X183288857Y-53997114D01*
X183193619Y-54044733D01*
X183622190Y-54616161D02*
X183526952Y-54663780D01*
X183288857Y-54663780D01*
X183193619Y-54616161D01*
X183146000Y-54520923D01*
X183146000Y-54425685D01*
X183193619Y-54330447D01*
X183288857Y-54282828D01*
X183526952Y-54282828D01*
X183622190Y-54235209D01*
X183955523Y-53997114D02*
X184336476Y-53997114D01*
X184098380Y-53663780D02*
X184098380Y-54520923D01*
X184146000Y-54616161D01*
X184241238Y-54663780D01*
X184336476Y-54663780D01*
X185050761Y-54616161D02*
X184955523Y-54663780D01*
X184765047Y-54663780D01*
X184669809Y-54616161D01*
X184622190Y-54520923D01*
X184622190Y-54139971D01*
X184669809Y-54044733D01*
X184765047Y-53997114D01*
X184955523Y-53997114D01*
X185050761Y-54044733D01*
X185098380Y-54139971D01*
X185098380Y-54235209D01*
X184622190Y-54330447D01*
X186717428Y-54663780D02*
X186717428Y-53663780D01*
X186717428Y-54616161D02*
X186622190Y-54663780D01*
X186431714Y-54663780D01*
X186336476Y-54616161D01*
X186288857Y-54568542D01*
X186241238Y-54473304D01*
X186241238Y-54187590D01*
X186288857Y-54092352D01*
X186336476Y-54044733D01*
X186431714Y-53997114D01*
X186622190Y-53997114D01*
X186717428Y-54044733D01*
X187574571Y-54616161D02*
X187479333Y-54663780D01*
X187288857Y-54663780D01*
X187193619Y-54616161D01*
X187146000Y-54520923D01*
X187146000Y-54139971D01*
X187193619Y-54044733D01*
X187288857Y-53997114D01*
X187479333Y-53997114D01*
X187574571Y-54044733D01*
X187622190Y-54139971D01*
X187622190Y-54235209D01*
X187146000Y-54330447D01*
X189384095Y-54663780D02*
X189050761Y-54187590D01*
X188812666Y-54663780D02*
X188812666Y-53663780D01*
X189193619Y-53663780D01*
X189288857Y-53711400D01*
X189336476Y-53759019D01*
X189384095Y-53854257D01*
X189384095Y-53997114D01*
X189336476Y-54092352D01*
X189288857Y-54139971D01*
X189193619Y-54187590D01*
X188812666Y-54187590D01*
X190336476Y-54663780D02*
X189765047Y-54663780D01*
X190050761Y-54663780D02*
X190050761Y-53663780D01*
X189955523Y-53806638D01*
X189860285Y-53901876D01*
X189765047Y-53949495D01*
X191336476Y-54568542D02*
X191288857Y-54616161D01*
X191146000Y-54663780D01*
X191050761Y-54663780D01*
X190907904Y-54616161D01*
X190812666Y-54520923D01*
X190765047Y-54425685D01*
X190717428Y-54235209D01*
X190717428Y-54092352D01*
X190765047Y-53901876D01*
X190812666Y-53806638D01*
X190907904Y-53711400D01*
X191050761Y-53663780D01*
X191146000Y-53663780D01*
X191288857Y-53711400D01*
X191336476Y-53759019D01*
X192098380Y-54139971D02*
X192241238Y-54187590D01*
X192288857Y-54235209D01*
X192336476Y-54330447D01*
X192336476Y-54473304D01*
X192288857Y-54568542D01*
X192241238Y-54616161D01*
X192146000Y-54663780D01*
X191765047Y-54663780D01*
X191765047Y-53663780D01*
X192098380Y-53663780D01*
X192193619Y-53711400D01*
X192241238Y-53759019D01*
X192288857Y-53854257D01*
X192288857Y-53949495D01*
X192241238Y-54044733D01*
X192193619Y-54092352D01*
X192098380Y-54139971D01*
X191765047Y-54139971D01*
X192765047Y-53663780D02*
X192765047Y-54473304D01*
X192812666Y-54568542D01*
X192860285Y-54616161D01*
X192955523Y-54663780D01*
X193146000Y-54663780D01*
X193241238Y-54616161D01*
X193288857Y-54568542D01*
X193336476Y-54473304D01*
X193336476Y-53663780D01*
X181646000Y-56273780D02*
X181169809Y-56273780D01*
X181169809Y-55273780D01*
X182122190Y-56273780D02*
X182026952Y-56226161D01*
X181979333Y-56178542D01*
X181931714Y-56083304D01*
X181931714Y-55797590D01*
X181979333Y-55702352D01*
X182026952Y-55654733D01*
X182122190Y-55607114D01*
X182265047Y-55607114D01*
X182360285Y-55654733D01*
X182407904Y-55702352D01*
X182455523Y-55797590D01*
X182455523Y-56083304D01*
X182407904Y-56178542D01*
X182360285Y-56226161D01*
X182265047Y-56273780D01*
X182122190Y-56273780D01*
X182884095Y-56273780D02*
X182884095Y-55607114D01*
X182884095Y-55797590D02*
X182931714Y-55702352D01*
X182979333Y-55654733D01*
X183074571Y-55607114D01*
X183169809Y-55607114D01*
X183931714Y-56273780D02*
X183931714Y-55749971D01*
X183884095Y-55654733D01*
X183788857Y-55607114D01*
X183598380Y-55607114D01*
X183503142Y-55654733D01*
X183931714Y-56226161D02*
X183836476Y-56273780D01*
X183598380Y-56273780D01*
X183503142Y-56226161D01*
X183455523Y-56130923D01*
X183455523Y-56035685D01*
X183503142Y-55940447D01*
X183598380Y-55892828D01*
X183836476Y-55892828D01*
X183931714Y-55845209D01*
X185169809Y-56273780D02*
X185169809Y-55607114D01*
X185169809Y-55702352D02*
X185217428Y-55654733D01*
X185312666Y-55607114D01*
X185455523Y-55607114D01*
X185550761Y-55654733D01*
X185598380Y-55749971D01*
X185598380Y-56273780D01*
X185598380Y-55749971D02*
X185646000Y-55654733D01*
X185741238Y-55607114D01*
X185884095Y-55607114D01*
X185979333Y-55654733D01*
X186026952Y-55749971D01*
X186026952Y-56273780D01*
X186646000Y-56273780D02*
X186550761Y-56226161D01*
X186503142Y-56178542D01*
X186455523Y-56083304D01*
X186455523Y-55797590D01*
X186503142Y-55702352D01*
X186550761Y-55654733D01*
X186646000Y-55607114D01*
X186788857Y-55607114D01*
X186884095Y-55654733D01*
X186931714Y-55702352D01*
X186979333Y-55797590D01*
X186979333Y-56083304D01*
X186931714Y-56178542D01*
X186884095Y-56226161D01*
X186788857Y-56273780D01*
X186646000Y-56273780D01*
X187836476Y-56273780D02*
X187836476Y-55273780D01*
X187836476Y-56226161D02*
X187741238Y-56273780D01*
X187550761Y-56273780D01*
X187455523Y-56226161D01*
X187407904Y-56178542D01*
X187360285Y-56083304D01*
X187360285Y-55797590D01*
X187407904Y-55702352D01*
X187455523Y-55654733D01*
X187550761Y-55607114D01*
X187741238Y-55607114D01*
X187836476Y-55654733D01*
X188741238Y-55607114D02*
X188741238Y-56273780D01*
X188312666Y-55607114D02*
X188312666Y-56130923D01*
X188360285Y-56226161D01*
X188455523Y-56273780D01*
X188598380Y-56273780D01*
X188693619Y-56226161D01*
X188741238Y-56178542D01*
X189360285Y-56273780D02*
X189265047Y-56226161D01*
X189217428Y-56130923D01*
X189217428Y-55273780D01*
X190122190Y-56226161D02*
X190026952Y-56273780D01*
X189836476Y-56273780D01*
X189741238Y-56226161D01*
X189693619Y-56130923D01*
X189693619Y-55749971D01*
X189741238Y-55654733D01*
X189836476Y-55607114D01*
X190026952Y-55607114D01*
X190122190Y-55654733D01*
X190169809Y-55749971D01*
X190169809Y-55845209D01*
X189693619Y-55940447D01*
G04 #@! TO.C,U1*
X185230380Y-74574304D02*
X186039904Y-74574304D01*
X186135142Y-74526685D01*
X186182761Y-74479066D01*
X186230380Y-74383828D01*
X186230380Y-74193352D01*
X186182761Y-74098114D01*
X186135142Y-74050495D01*
X186039904Y-74002876D01*
X185230380Y-74002876D01*
X186230380Y-73002876D02*
X186230380Y-73574304D01*
X186230380Y-73288590D02*
X185230380Y-73288590D01*
X185373238Y-73383828D01*
X185468476Y-73479066D01*
X185516095Y-73574304D01*
D11*
G04 #@! TO.C,J2*
X170708000Y-96740000D02*
X169378000Y-96740000D01*
X202518000Y-96740000D02*
X202518000Y-91540000D01*
X171978000Y-96740000D02*
X171978000Y-94140000D01*
X169378000Y-94140000D02*
X169378000Y-91540000D01*
X169378000Y-91540000D02*
X202518000Y-91540000D01*
X171978000Y-94140000D02*
X169378000Y-94140000D01*
X169378000Y-96740000D02*
X169378000Y-95410000D01*
X171978000Y-96740000D02*
X202518000Y-96740000D01*
G04 #@! TO.C,U1*
X164958000Y-59842400D02*
X164958000Y-87782400D01*
X205598000Y-59842400D02*
X164958000Y-59842400D01*
X185278000Y-87782400D02*
X205598000Y-87782400D01*
X164958000Y-87782400D02*
X185278000Y-87782400D01*
X205598000Y-87782400D02*
X205598000Y-59842400D01*
G04 #@! TD*
M02*
